<svg width="1024" height="1024" viewBox="0 0 1024 1024" fill="none" xmlns="http://www.w3.org/2000/svg">
<g clip-path="url(#clip0_6364_1968)">
<path d="M253.789 131.671C258.065 130.817 266.921 131.573 271.198 132.603C281.391 135.06 287.684 139.673 295.999 145.492C302.18 149.817 309.211 151.989 313.336 159.381C321.864 174.664 323.832 198.486 319.567 215.301C318.444 219.728 315.64 230.984 311.735 233.281C310.044 233.132 308.955 232.081 309.04 230.263C309.46 221.23 311.247 212.332 311.434 203.247C309.7 210.525 306.133 217.238 301.073 222.748C302.475 226.081 304.8 230.152 303.026 233.561C299.994 236.091 296.616 235.624 292.509 235.816C290.708 239.199 284.54 246.888 283.936 248.695C279.11 263.13 271.026 267.186 256.48 255.999C254.39 261.091 253.039 265.292 251.371 270.518C261.417 289.077 277.648 318.239 282.258 338.27C284.083 346.199 284.647 363.782 286.171 373.742C308.569 358.238 309.668 357.146 320.731 332.663C328.44 315.397 335.88 298.012 343.048 280.514C345.353 274.917 352.477 253.876 356.711 251.797C359.947 252.905 370.872 258.911 374.254 261.094C383.026 266.755 402.975 274.147 409.853 280.745C409.903 286.962 395.545 310.463 393.95 318.519C395.724 319.319 398.89 320.093 399.959 321.602C402.704 325.48 395.085 330.281 392.429 331.838C392.666 346.634 388.834 352.161 376.452 359.438C374.082 365.066 371.969 370.798 370.118 376.617C368.787 380.835 366.368 391.898 362.901 393.999C361.835 394.181 360.607 394.19 359.656 393.605C349.556 387.398 338.95 382.131 327.96 377.589C312.845 398.889 306.084 408.35 286.575 426.379C289.273 439.901 291.256 453.898 293.358 467.56C297.962 497.493 302.599 526.332 309.412 555.889L305.496 558.605C308.007 566.239 309.858 573.975 312.054 581.701L325.458 628.47C335.198 661.379 344.634 694.377 353.766 727.459C359.772 749.497 365.41 771.607 371.32 793.647C372.74 798.945 376.366 807.072 378.345 813.749L374.038 815.962C376.069 822.372 377.83 828.441 381.015 834.402C397.333 834.62 412.179 831.947 427.736 827.269C436.226 824.716 439.772 822.118 448.775 821.285C457.56 824.666 461.921 832.951 458.101 841.742C448.622 863.554 424.947 870.871 405.584 880.806C389.125 889.251 373.601 903.997 353.426 897.193C345.232 894.43 346.349 885.237 344.739 878.348C341.663 861.5 341.949 844.161 334.766 828.253C331.304 828.421 326.428 829.58 322.904 830.305C321.215 826.569 317.791 818.746 316.758 815.01C317.479 813.722 318.744 813.361 320.138 812.688L317.679 803.878C310.856 774.814 281.184 702.081 262.487 678.572C260.204 681.355 257.205 686.27 255.089 689.442C251.407 695.011 247.481 700.415 243.324 705.638C228.305 724.352 206.417 746.9 189.876 764.743C181.328 774.027 172.679 783.218 163.933 792.316C160.744 795.687 158.17 799.36 155.145 802.501C152.54 805.205 148.183 808.772 145.299 811.293C141.428 809.867 139.654 808.726 136.322 806.504C131.965 812.208 126.733 819.346 122.886 825.324C123.273 834.13 133.703 852.271 138.859 860.057C150.493 865.691 166.187 863.087 167.744 879.852C168.713 890.283 158.995 893.664 150.209 894.147C136.817 894.884 112.826 894.544 103.182 883.619C95.5117 874.931 89.5838 864.966 80.7244 857.155C76.067 852.474 62.3431 845.288 62.3457 837.969C62.3483 830.65 73.2017 816.943 77.6996 811.046C80.6022 807.242 82.5375 807.536 86.657 807.22C92.9983 801.206 100.96 789.47 106.165 782.048C105.009 780.993 102.634 778.959 103.477 777.24C105.312 773.502 109.52 765.816 112.721 763.369C114.234 763.501 113.776 763.562 115.23 763.277C131.29 738.291 148.028 713.901 164.562 689.235C173.09 676.511 181.754 663.437 188.408 649.608L183.363 586.061C182.726 577.702 181.738 569.451 181.377 561.067C178.191 560.761 175.081 560.845 172.555 559.002C170.4 554.839 170.529 534.72 170.468 529.327C145.165 548.077 118.739 539.348 92.5473 527.663C73.0089 518.946 60.6177 506.65 65.9805 483.845C69.5158 468.81 72.495 453.483 77.6678 438.837C80.5969 430.543 84.2474 422.518 86.8289 414.116C89.3292 405.156 88.9453 394.637 90.5469 385.424C94.6284 357.089 103.351 322.761 123.941 302.034C129.631 296.305 139.168 291.977 145.798 286.854L146.44 286.352C145.016 275.21 151.183 273.508 159.269 267.346C170.793 258.562 173.453 262.56 177.691 274.434C185.521 261.464 194.833 254.124 204.245 242.924C199.818 247.065 192.993 252.231 186.297 249.063C185.15 248.52 183.935 247.182 183.557 245.945C185.096 242.076 190.425 240.454 193.311 232.552C201.41 210.384 172.949 191.744 189.321 171.153C193.801 165.518 204.147 164.426 210.979 164.501C218.509 145.674 233.778 134.508 253.789 131.671Z" fill="black"/>
<path d="M150.368 289.422C149.977 284.183 148.901 280.438 153.275 276.832C156.155 274.457 165.7 266.616 169.116 266.708C170.541 267.569 170.694 268.538 171.314 270.117L170.798 270.698C165.138 271.402 160.947 279.59 163.944 283.56C167.413 284.882 170.063 281.91 173.619 280.709C184.368 277.079 196.319 277.652 207.208 280.235L206.303 281.137C195.452 279.329 180.156 284.814 172.708 292.953C166.157 300.493 165.464 312.506 164.618 322.002C162.526 345.501 162.177 368.891 162.982 392.427C163.918 419.804 165.018 447.234 166.669 474.546C156.078 470.489 144.963 466.986 134.258 463.242C127.146 461.007 115.549 455.825 108.593 455.075C89.7693 453.044 84.0624 488.435 82.5793 501.771C82.1627 505.518 81.7808 508.791 84.0653 511.611L85.0168 511.461C87.1654 508.423 86.5006 502.345 87.1197 498.007C88.9343 485.723 92.3269 470.015 101.91 461.315C106.626 457.035 119.58 462.893 124.859 464.831C133.099 467.794 141.365 470.686 149.656 473.506C154.289 475.101 162.458 478.176 167 478.785C169.856 495.001 170.573 506.865 170.479 523.384C167.335 526.4 164.123 528.254 160.601 530.455C149.401 537.455 130.112 536.025 118.019 532.429C108.846 529.702 87.4949 520.759 80.1456 514.833C76.8394 512.167 74.1062 508.86 72.11 505.111C70.1225 501.332 69.1024 497.211 69.6838 492.963C71.86 477.066 75.5394 460.241 80.3681 444.975C82.2439 444.573 84.9048 443.763 86.7567 442.976C114.512 431.181 144.374 405.495 157.04 377.857C158.183 375.362 161.971 365.906 161.112 363.743C158.17 363.067 154.754 373.014 153.581 375.391C139.181 404.579 111.2 427.035 81.9127 440.222C84.6788 433.641 89.4551 423.043 90.9458 416.444C93.1621 406.633 93.7895 395.037 95.2494 384.846C99.1006 357.96 107.361 325.993 126.685 305.986C133.305 299.132 142.331 295.868 149.694 289.967L150.368 289.422Z" fill="black"/>
<path d="M160.325 284.828C161.641 285.946 161.704 285.888 162.485 287.512C161.934 289.823 157.254 293.842 155.282 295.49C125.617 320.286 112.328 356.445 110.273 394.201C110 399.21 108.675 414.588 106.25 418.579C104.972 417.811 105.023 417.834 104.029 416.713C102.797 412.863 105.948 390.276 106.52 384.632C110.66 343.714 127.361 310.423 160.325 284.828Z" fill="black"/>
<path d="M158.435 478.691L160.111 479.395C164.835 486.089 150.575 520.949 144.037 527.318C142.999 526.941 142.408 526.598 141.43 526.078C140.688 523.465 148.281 511.21 149.6 507.874C153.358 498.372 154.661 488.044 158.435 478.691Z" fill="black"/>
<path d="M287.38 558.75C290.764 558.387 297.385 558.493 301.011 558.441C302.866 564.48 304.52 571.709 306.238 577.925L320.161 627.858L368.383 801.846C362.275 803.185 356.454 804.434 350.425 806.112C348.794 798.766 346.924 791.475 344.819 784.25C339.416 765.718 327.838 729.964 320.272 710.327C319.979 709.567 318.042 708.511 316.606 708.538L316.043 709.203C316.041 713.409 323.409 733.15 325.191 738.48L336.875 774.38C340.245 785.206 343.409 796.094 346.366 807.04C339.545 808.301 331.529 810.278 324.679 811.77C319.051 790.944 313.368 770.226 304.752 750.39C300.953 741.642 296.853 733.01 292.803 724.375C288.125 713.351 279.458 695.53 273.153 685.333C262.158 667.552 248.547 649.759 236.591 632.499C220.528 609.107 204.809 585.481 189.439 561.628C208.066 561.048 225.695 560.578 244.451 559.617C250.708 574.295 260.493 587.848 267.471 602.039C280.919 629.387 296.185 656.274 305.416 685.392C306.112 687.59 307.34 690.251 309.547 691.25C311.077 690.851 310.515 691.281 311.308 689.945C311.239 684.437 305.459 670.497 303.115 664.992C292.877 641.318 281.58 618.116 269.258 595.457C262.741 583.448 255.644 571.764 249.233 559.694L287.38 558.75Z" fill="black"/>
<path d="M227.146 405.988C233.14 413.103 238.806 419.692 245.277 426.315C259.69 441.065 266.53 442.508 282.452 429.014L282.894 428.636C283.417 431.878 283.922 435.122 284.409 438.369C285.058 443.684 285.799 448.988 286.632 454.278C287.89 461.992 289.104 469.713 290.275 477.441C290.938 482.83 291.793 487.652 292.757 492.98C293.879 500.3 295.122 507.602 296.486 514.881C297.279 519.412 298.888 528.676 300.138 532.952C301.509 539.815 302.811 546.654 304.496 553.447C297.561 554.241 290.621 553.595 284.481 554.317C281.369 554.76 269.319 554.486 265.255 554.565C259.506 555.477 243.096 555.175 236.161 555.477L222.165 556.222C215.652 556.812 206.714 556.876 200.022 557.036C193.285 557.222 187.057 556.809 180.341 556.42C178.407 556.403 177.397 556.508 176.167 555.363C174.974 549.639 175.061 529.156 174.988 522.327C175.126 514.577 174.641 506.987 174.512 499.24C174.062 494.411 173.658 489.578 173.299 484.742C189.807 470.83 206.308 444.366 217.176 425.798C219.235 421.903 221.258 417.99 223.247 414.059C224.341 411.868 226.305 408.163 227.146 405.988Z" fill="black"/>
<path d="M227.146 405.988C233.14 413.103 238.806 419.692 245.277 426.315C259.69 441.065 266.53 442.508 282.452 429.014L282.894 428.636C283.417 431.878 283.922 435.122 284.409 438.369C285.058 443.684 285.799 448.988 286.632 454.278C287.89 461.992 289.104 469.713 290.275 477.441C287.491 477.91 274.292 497.24 271.623 500.801C259.89 490.754 248.514 479.986 237.286 469.367C231.63 464.019 221.065 454.666 216.466 448.765C209.692 455.691 200.794 466.992 194.472 474.745C188.317 482.294 180.114 491.619 174.512 499.24C174.062 494.411 173.658 489.578 173.299 484.742C189.807 470.83 206.308 444.366 217.176 425.798C219.235 421.903 221.258 417.99 223.247 414.059C224.341 411.868 226.305 408.163 227.146 405.988Z" fill="black"/>
<path d="M227.146 405.988C233.14 413.103 238.806 419.692 245.277 426.315C259.69 441.065 266.53 442.508 282.452 429.014L282.894 428.636C283.417 431.878 283.922 435.122 284.409 438.369C285.058 443.684 285.799 448.988 286.632 454.278C281.926 461.903 275.803 469.2 270.611 476.758C259.359 469.627 239.395 451.107 229.771 441.101C225.662 436.83 221.722 430.755 217.587 426.239L217.176 425.798C219.235 421.903 221.258 417.99 223.247 414.059C224.341 411.868 226.305 408.163 227.146 405.988Z" fill="white"/>
<path d="M227.145 405.988C233.139 413.103 238.805 419.692 245.276 426.315C259.689 441.065 266.529 442.508 282.451 429.014L282.893 428.636C283.416 431.878 283.921 435.122 284.408 438.369C281.37 441.126 271.655 454.902 268.784 458.795C256.579 447.666 246.916 436.304 235.016 425.03C231.521 421.719 227.017 416.816 223.246 414.059C224.34 411.868 226.304 408.163 227.145 405.988Z" fill="black"/>
<path d="M222.847 496.113C240.521 514.174 255.916 531.599 276.749 546.959C279.688 541.587 292.866 517.837 296.485 514.881C297.278 519.412 298.887 528.676 300.137 532.952C301.508 539.815 302.81 546.654 304.495 553.447C297.56 554.241 290.62 553.595 284.48 554.317C281.368 554.76 269.318 554.486 265.254 554.565C259.505 555.477 243.095 555.175 236.16 555.477L222.164 556.222C215.651 556.812 206.713 556.876 200.021 557.036C193.284 557.222 187.056 556.809 180.34 556.42C181.648 551.909 218.008 502.462 222.847 496.113Z" fill="white"/>
<path d="M222.317 520.426C230.038 528.349 249.656 549.136 257.792 554.388L265.254 554.567C259.505 555.479 243.095 555.177 236.16 555.479L222.164 556.224C215.651 556.814 206.713 556.878 200.021 557.038C200.62 555.622 205.28 548.679 206.412 546.827C211.784 538.039 217.339 529.466 222.317 520.426Z" fill="black"/>
<path d="M227.22 546.246L236.159 555.477L222.163 556.222L220.825 555.897L220.574 555.411C221.789 553.262 225.373 548.994 227.22 546.246Z" fill="white"/>
<path d="M300.137 532.953C301.508 539.816 302.81 546.655 304.495 553.448C297.56 554.242 290.62 553.596 284.48 554.318C291.776 546.568 294.896 541.943 300.137 532.953Z" fill="black"/>
<path d="M174.512 499.241C180.114 491.62 188.317 482.295 194.472 474.746C200.794 466.993 209.692 455.692 216.466 448.766C221.065 454.667 231.63 464.02 237.286 469.368C248.514 479.987 259.89 490.755 271.623 500.802C274.292 497.241 287.491 477.911 290.275 477.442C290.938 482.831 291.793 487.653 292.757 492.981C288.629 496.932 275.987 516.038 272.602 521.453C254.498 507.582 232.009 488.003 216.175 471.856C210.907 478.418 178.549 521.742 175.665 523.502L174.988 522.328C175.126 514.578 174.641 506.988 174.512 499.241Z" fill="white"/>
<path d="M186.017 564.883C187.764 567.063 192.698 575.356 194.421 578.069C200.384 587.448 206.448 596.762 212.612 606.009C227.844 628.789 244.303 650.854 259.45 673.449C244.25 698.793 230.572 713.367 210.586 735.145L169.332 779.483L154.254 795.121C139.638 786.669 130.644 778.879 118.854 767.333C125.199 756.734 131.862 746.33 138.835 736.133C147.027 723.919 191.306 661.402 192.785 651.468C193.717 645.216 192.071 637.457 191.59 631.126C189.909 609.046 187.31 586.98 186.017 564.883Z" fill="black"/>
<path d="M207.208 280.234C228.046 286.618 235.985 291.579 246.967 312.187C249.821 317.629 252.479 323.171 254.934 328.804C252.429 331.296 252.344 333.126 251.288 336.392C251.896 338.134 252.537 339.233 252.042 340.959C251.405 341.811 251.147 342.215 250.404 342.972L249.763 343.279L250.297 343.633C239.267 359.498 213.903 372.119 196.788 380.423L194.871 374.401C193.033 368.323 190.774 362.275 188.629 356.291C187.107 352.399 185.367 346.227 184.337 342.296C183.656 338.371 182.457 326.268 179.344 324.171C176.228 327.803 182.623 352.475 184.604 357.475C181.292 359.869 180.829 360.528 179.295 364.326C165.193 335.756 167.166 343.737 170.114 312.999C173.246 280.344 204.641 288.411 207.217 282.605L206.303 281.136L207.208 280.234Z" fill="black"/>
<path d="M230.653 310.867C234.063 315.711 237.925 322.176 241.182 326.542C243.302 329.861 249.703 339.582 250.404 342.972L249.763 343.279L250.297 343.633C239.267 359.498 213.903 372.119 196.788 380.423L194.871 374.401C193.033 368.323 190.774 362.275 188.629 356.291C194.096 351.623 228.673 315.549 230.653 310.867Z" fill="black"/>
<path d="M194.871 374.402C201.413 369.622 208.921 361.304 214.545 355.302L241.182 326.543C243.302 329.862 249.703 339.583 250.404 342.973L249.763 343.28L250.297 343.634C239.267 359.499 213.903 372.12 196.788 380.424L194.871 374.402Z" fill="white"/>
<path d="M224.477 302.699C226.501 305.351 228.734 308.17 230.654 310.87C228.674 315.552 194.097 351.626 188.63 356.294C187.108 352.402 185.368 346.23 184.338 342.299C191.622 336.923 220.35 304.595 224.477 302.699Z" fill="white"/>
<path d="M224.475 302.699C222.672 300.628 219.761 297.773 220.069 294.832C228.291 295.092 247.015 328.449 251.287 336.395C251.895 338.137 252.536 339.236 252.041 340.962C251.404 341.814 251.146 342.218 250.403 342.975C249.702 339.585 243.301 329.864 241.181 326.545C237.924 322.179 234.062 315.714 230.652 310.87C228.732 308.17 226.499 305.351 224.475 302.699Z" fill="black"/>
<path d="M230.078 223.467C227.102 228.325 218.29 245.228 211.752 240.29C211.443 238.91 214.9 226.525 214.887 221.905C214.863 212.949 212.231 207.776 211.081 199.504C207.284 172.191 221.195 142.684 250.104 137.205C266.985 134.005 278.253 138.883 291.767 148.091C308.601 158.958 311.245 160.577 315.742 181.315C317.258 188.307 317.381 199.505 316.431 206.702C316.229 203.672 316.11 201.396 315.539 198.407C315.237 195.094 314.243 188.072 311.928 185.773L311.009 185.976C309.561 188.333 308.326 195.879 307.531 198.972C305.983 205.111 303.4 210.941 299.893 216.213C301.439 209.588 311.727 174.594 305.983 170.643C305.08 170.719 304.857 170.586 304.593 171.293C297.935 189.077 278.801 196.147 262.215 201.836C259.438 202.788 254.821 204.033 251.323 204.445C249.989 204.589 248.653 204.702 247.315 204.783C247.226 199.807 247.295 189.835 239.33 190.544C230.51 191.33 223.811 204.678 224.91 212.637C225.391 217.052 227.559 220.169 230.078 223.467Z" fill="white"/>
<path d="M321.307 347.277C323.259 348.811 330.206 362.306 331.785 365.259C317.596 383.779 286.39 429.663 263.54 434.143C253.379 431.481 233.9 408.1 227.154 399.492L227.72 398.609C239.889 392.012 253.993 382.489 263.371 372.199C266.694 377.386 268.729 380.088 270.181 385.986C261.475 396.054 259.851 403.826 270.204 413.849C269.229 408.437 265.859 398.785 269.408 393.901C271.922 390.441 277.416 387.056 280.9 384.244C289.759 377.094 298.995 370.325 307.694 362.974C312.552 358.86 317.408 352.382 321.307 347.277Z" fill="white"/>
<path d="M357.482 257.715C370.75 265.605 390.558 275.465 404.552 282.575C399.625 293.757 392.197 308.743 388.144 319.712C380.083 321.525 372.093 322.899 363.965 324.337C357 325.754 349.51 327.825 342.691 329.789L338.035 328.032C332.063 329.546 330.816 330.17 325.736 333.713C336.063 308.36 347.191 283.36 357.482 257.715Z" fill="black"/>
<path d="M361.293 261.773C362.124 262.284 362.079 262.355 362.774 263.075C363.263 264.907 363.005 268.448 362.421 270.28C361.117 274.373 361.679 274.433 358.357 276.339C357.569 275.88 357.204 275.592 356.469 275.053C355.172 271.332 358.524 264.353 361.293 261.773Z" fill="black"/>
<path d="M443.453 826.568C445.682 826.4 447.425 826.26 449.572 826.891C450.214 827.469 451.131 828.206 450.805 829.298C446.081 844.871 426.622 856.394 412.636 862.714C393.289 871.456 376.265 882.614 354.535 882.71C353.076 882.724 352.415 882.656 350.993 882.506C349.099 880.804 347.671 865.702 347.312 862.414C352.431 862.756 357.573 863.269 362.706 863.576C370.796 864.06 372.117 858.207 375.382 852.357C377.973 847.714 380.427 843.026 382.93 838.359C407.091 838.576 421.117 835.056 443.453 826.568Z" fill="white"/>
<path d="M301.474 186.043C302.624 188.439 297.795 205.328 296.765 208.773C293.908 206.813 288.502 202.361 285.094 204.66L285.035 205.756C287.296 209.708 291.685 210.885 295.867 212.246C293.311 220.25 294.551 223.36 299.172 230.093C289.387 232.235 288.857 232.105 284.099 241.004C280.409 240.091 272.827 236.235 270.336 237.438L270.291 238.542C272.284 242.837 275.304 243.817 279.488 246.181C278.516 248.802 277.476 252.334 275.764 254.495C269.842 261.967 260.45 252.988 255.624 248.294C250.947 242.62 247.747 237.613 245.483 230.481C244.217 226.494 243.809 222.064 241.537 218.562L240.682 218.445C239.65 219.63 239.312 220.027 238.092 221.085C223.995 221.062 228.765 195.501 240.477 195.669C244.146 198.317 241.533 204.968 244.416 207.688C248.118 211.18 261.848 206.89 265.841 205.597C278.698 201.433 291.493 195.141 301.474 186.043Z" fill="white"/>
<path d="M270.032 211.805C274.487 212.218 284.335 215.7 287.96 218.311C288.776 220.01 288.502 219.585 288.354 221.733C282.968 221.633 274.391 218.709 270.14 215.355C269.321 213.481 269.534 214.169 270.032 211.805Z" fill="black"/>
<path d="M238.077 197.141C242.635 198.147 240.105 205.104 239.412 208.308C240.72 211.083 241.86 213.251 240.04 215.996C233.286 212.503 234.698 202.346 238.077 197.141Z" fill="black"/>
<path d="M83.7436 811.309C84.7932 814.876 85.2393 817.041 87.3867 820.156C91.2233 826.283 100.653 831.513 108.033 830.155C119.908 827.969 113.019 830.341 115.74 835.008C117.269 836.379 117.94 836.275 119.978 836.586C122.452 839.936 130.44 855.786 132.209 859.947C129.552 861.56 123.864 864.946 125.391 868.832C127.841 869.699 133.935 866.21 137.018 864.936C144.273 867.894 153.459 869.744 159.951 872.81C161.606 875.491 162.148 876.54 163.023 879.594C161.601 881.647 159.017 882.284 156.588 882.657C143.987 884.594 127.189 882.427 116.53 875.05C111.174 871.342 104.719 861.136 100.096 855.87C92.7512 847.501 84.4977 841.127 77.1577 832.934C75.3798 830.95 74.5972 829.223 74.1328 826.658C74.8506 822.93 81.2611 814.781 83.7436 811.309Z" fill="white"/>
<path d="M182.978 379.656L189.667 391.733C192.229 395.556 194.947 399.656 198.126 403.007C201.484 405.953 201.825 407.007 206.156 407.171C204.84 409.745 199.757 416.076 197.899 418.977C189.518 432.066 178.711 445.214 170.296 458.023L169.259 436.942C168.65 430.417 168.429 423.237 168.082 416.642C167.898 412.027 166.577 396.683 167.083 393.751C167.948 390.211 179.2 380.614 182.978 379.656Z" fill="black"/>
<path d="M169.26 436.943C170.032 434.998 172.179 433.108 173.73 431.572C182.841 422.548 190.712 413.495 198.127 403.008C201.485 405.954 201.826 407.008 206.157 407.172C204.841 409.746 199.758 416.077 197.9 418.978C189.519 432.067 178.712 445.215 170.297 458.024L169.26 436.943Z" fill="white"/>
<path d="M182.978 379.656L189.667 391.733C186.22 395.655 170.662 414.979 168.082 416.642C167.898 412.027 166.577 396.683 167.083 393.751C167.948 390.211 179.2 380.614 182.978 379.656Z" fill="white"/>
<path d="M251.939 350.316C255.239 352.22 260.411 363.89 261.86 367.573C247.02 382.021 227.67 395.909 207.618 401.483C206.873 401.56 205.859 401.747 205.294 401.293C202.29 398.882 199.198 388.565 198.018 385.154C217.42 375.667 236.522 365.897 251.939 350.316Z" fill="white"/>
<path d="M394.128 323.703L394.744 324.342C390.792 330.427 376.497 331.001 374.484 334.382C377.145 338.989 383.868 334.241 388.335 334.188L388.843 334.685C387.407 338.298 378.463 339.653 376.241 343.456L376.732 344.093C381.33 345.001 382.847 343.794 387.422 342.027C383.102 352.148 377.137 353.688 367.648 357.677C360.288 359.369 354.862 358.776 347.339 357.903C343.578 350.349 341.16 345.454 336.84 338.322C350.666 329.983 377.592 326.471 394.128 323.703Z" fill="white"/>
<path d="M205.604 248.258C218.176 256.952 238.869 277.444 248.023 289.924C251.548 292.32 256.343 296.546 259.446 299.599C256.6 301.29 251.821 304.892 249.22 305.499C245.867 300.172 242.087 295.126 237.916 290.412C226.18 280.493 222.518 279.02 207.553 275.191C198.902 273.948 191.74 272.796 182.998 274.056C185.67 270.863 188.246 267.737 191.108 264.702C192.858 262.181 198.574 256.112 200.829 253.608L205.604 248.258Z" fill="white"/>
<path d="M200.829 253.605C206.917 259.559 236.483 285.121 237.916 290.409C226.18 280.49 222.518 279.017 207.553 275.188C198.902 273.945 191.74 272.793 182.998 274.053C185.67 270.86 188.246 267.734 191.108 264.699C192.858 262.178 198.574 256.109 200.829 253.605Z" fill="black"/>
<path d="M191.108 264.701C195.812 264.475 206.371 271.333 207.553 275.19C198.902 273.947 191.74 272.795 182.998 274.055C185.67 270.862 188.246 267.736 191.108 264.701Z" fill="white"/>
<path d="M339.594 826.409C349.943 823.989 359.456 820.306 369.677 817.648C370.713 820.077 371.083 821.36 371.772 823.923C373.2 828.714 374.507 833.88 377.075 838.152C373.91 844.368 369.328 854.213 364.282 858.773C358.552 857.932 352.432 857.65 346.632 857.261C345.669 849.729 344.956 845.045 342.772 837.661C342.001 833.752 340.796 830.196 339.594 826.409Z" fill="white"/>
<path d="M339.594 826.409C349.943 823.989 359.456 820.306 369.677 817.648C370.713 820.077 371.083 821.36 371.772 823.923C367.551 824.285 347.949 834.859 342.772 837.661C342.001 833.752 340.796 830.196 339.594 826.409Z" fill="black"/>
<path d="M238.301 225.601L238.606 225.551C240.03 226.127 240.317 229.175 240.801 231.096C242.851 239.229 247.26 246.032 252.819 252.213C248.654 261.92 247.325 270.177 246.35 280.475C242.857 276.202 240.177 273.106 236.356 269.075C232.312 264.94 228.243 260.946 223.897 257.125C219.192 252.989 214.435 249.622 210.266 244.939C226.111 250.55 226.136 227.687 238.301 225.601Z" fill="white"/>
<path d="M222.082 401.48C223.393 401.495 223.568 402.035 224.036 402.998C223.368 410.294 194.891 452.493 189.274 460.452C185.511 465.785 177.06 474.746 172.714 480.695L172.554 480.764L172.097 480.546C171.428 476.479 171.21 468.917 171.277 464.692C175.401 457.648 179.901 452.953 184.225 446.685C192.547 434.624 205.03 418.549 211.167 405.755L222.082 401.48Z" fill="black"/>
<path d="M105.343 790.978C106.676 789 107.878 787.185 109.344 785.293C115.557 793.093 123.92 799.183 132.459 804.27L128.009 808.725C119.753 817.21 114.654 829.398 100.378 824.269C94.9457 822.317 91.5331 818.46 88.9922 813.454C91.0966 809.576 102.032 795.563 105.343 790.978Z" fill="white"/>
<path d="M105.344 790.978C106.677 789 107.879 787.185 109.345 785.293C115.558 793.093 123.921 799.183 132.46 804.27L128.01 808.725C124.447 806.362 119.959 804.532 116.502 801.628C112.784 798.505 109.209 793.623 105.344 790.978Z" fill="black"/>
<path d="M206.116 169.142C207.846 169.044 207.846 168.738 208.991 169.513C206.383 181.159 204.615 191.344 206.906 203.189C208.466 211.872 213.089 221.671 207.861 229.967C205.856 233.149 194.896 246.847 190.874 244.54L191.384 243.621C201.272 233.21 201.396 222.678 196.846 209.801C193.243 199.604 184.826 187.076 191.403 176.486C194.361 171.722 200.936 169.977 206.116 169.142Z" fill="white"/>
<path d="M454.354 834.02L454.665 834.236C453.174 854.634 419.716 868.399 403.943 876.148C388.247 883.86 371.957 899.044 353.355 892.392C352.071 890.705 351.277 889.614 350.846 887.568C351.736 885.635 354.17 886.331 356.156 886.451C373.88 887.523 390.774 877.776 406.411 870.572C424.262 862.347 446.266 853.224 454.354 834.02Z" fill="white"/>
<path d="M369.386 362.176L369.935 362.73C367.159 369.488 363.08 381.558 361.069 388.514C354.23 384.525 348.795 381.727 341.683 378.358C338.697 377.018 334.251 375.21 331.712 373.406C331.697 371.512 331.384 372.276 332.422 370.946C333.304 370.559 333.99 370.236 334.88 370.424C337.604 371 345.736 368.483 348.061 367.05C348.529 365.569 348.552 365.261 349.389 363.92C353.92 362.941 361.952 363.551 369.386 362.176Z" fill="black"/>
<path d="M113.969 769.387C126.759 781.786 136.389 789.969 151.877 799.17C149.461 801.037 147.152 803.052 144.825 805.032C144.607 805.268 144.037 805.549 143.722 805.732C134.096 803.061 115.202 785.399 108.184 777.289L113.969 769.387Z" fill="black"/>
<path d="M69.8938 831.336C71.9838 833.78 74.4493 837.608 76.5409 839.603C82.5168 845.303 88.4297 850.63 94.2366 856.526C100.835 863.226 106.945 874.837 114.453 879.81C128.165 888.892 144.399 889.301 159.83 886.666C159.249 887.601 159.37 887.244 158.053 887.87C145.051 890.834 132.331 889.991 119.408 886.962C107.016 884.057 102.646 875.158 95.5896 865.866C92.6268 862.016 89.3844 858.389 85.8887 855.015C81.0383 850.296 69.4792 843.068 67.0537 838.841C66.5943 835.669 68.1626 834.031 69.8938 831.336Z" fill="white"/>
<path d="M369.842 806.078L370.671 806.146C371.926 807.632 372.381 809.639 372.997 811.524C363.447 814.45 354.603 817.621 344.797 820.251C341.182 821.221 328.461 824.668 325.971 825.729C325.214 824.429 323.089 817.944 322.465 816.137C333.213 815.731 358.169 808.919 369.842 806.078Z" fill="black"/>
<path d="M167.083 393.75C166.645 378.412 166.647 363.065 167.089 347.727C172.226 358.342 177.404 369.296 182.978 379.655C179.2 380.613 167.948 390.21 167.083 393.75Z" fill="black"/>
<path d="M248.023 289.922C249.991 285.555 250.186 282.313 250.664 277.617C255.443 286.387 263.641 302.845 267.528 311.993C263.863 316.169 261.333 320.231 258.161 324.751C255.506 318.017 252.512 311.908 249.22 305.497C251.821 304.89 256.6 301.288 259.446 299.597C256.343 296.544 251.548 292.318 248.023 289.922Z" fill="black"/>
<path d="M266.607 348.906C270.22 349.243 277.726 350.709 279.566 354.084C280.341 357.396 280.681 359.154 281.06 362.54C281.41 367.094 282.17 373.364 282.348 377.709C280.182 379.417 277.982 381.081 275.749 382.699C275.287 380.34 273.583 373.275 273.415 371.554C271.266 363.969 268.997 356.419 266.607 348.906Z" fill="white"/>
<path d="M281.059 362.539C281.409 367.093 282.169 373.363 282.347 377.708C280.181 379.416 277.981 381.08 275.748 382.698C275.286 380.339 273.582 373.274 273.414 371.553C276.613 369.51 278.833 365.717 281.059 362.539Z" fill="black"/>
<path d="M267.527 311.992C270.029 317.827 272.522 323.797 275.108 329.583C270.756 334.349 268.865 336.289 263.528 339.796C261.877 334.711 260.012 329.762 258.16 324.75C261.332 320.23 263.862 316.168 267.527 311.992Z" fill="white"/>
<path d="M275.109 329.586C277.415 336.726 279.256 346.531 279.566 354.086C277.726 350.711 270.22 349.245 266.607 348.908L263.529 339.799C268.866 336.292 270.757 334.352 275.109 329.586Z" fill="black"/>
<path d="M254.935 328.805C261.06 343.004 265.888 360.35 270.232 375.135L269.921 374.556C266.872 368.785 257.125 342.326 250.298 343.634L249.764 343.28L250.405 342.973C251.148 342.216 251.406 341.812 252.043 340.96C252.538 339.234 251.897 338.135 251.289 336.393C252.345 333.127 252.43 331.297 254.935 328.805Z" fill="white"/>
<path d="M184.604 357.477C188.827 370.525 193.063 384.588 198.035 397.249C191.193 387.263 184.719 375.162 179.295 364.328C180.829 360.53 181.292 359.871 184.604 357.477Z" fill="white"/>
<path d="M171.315 270.117C172.32 272.06 172.712 272.489 172.827 274.596C171.644 277.688 169.854 277.714 166.893 278.714C168.38 276.112 170.082 273.563 170.799 270.698L171.315 270.117Z" fill="black"/>
<path d="M315.539 198.406C316.11 201.395 316.229 203.671 316.431 206.701C316.782 209.058 316.31 211.566 315.7 213.843L315.346 213.487C315.368 208.46 315.432 203.433 315.539 198.406Z" fill="#61626D"/>
<path d="M337.447 471.491C345.999 471.384 371.881 469.645 360.919 486.263C355.811 489.479 343.853 488.286 337.447 488.158V471.491Z" fill="white"/>
<path d="M337.549 443.471C345.254 443.383 365.376 440.94 357.867 455.117C353.724 457.942 343.113 457.002 337.605 456.919L337.549 443.471Z" fill="white"/>
<path d="M403.924 443.487C407.368 443.43 410.85 443.417 414.286 443.391C424.742 443.311 432.71 449.363 425.776 459.898C420.728 463.596 410.37 462.468 403.861 462.352L403.924 443.487Z" fill="white"/>
<path d="M614.612 536.224C621.615 536.153 630.523 535.807 635.93 540.804C643.554 547.85 642.795 558.394 636.232 565.699C629.045 571.29 623.091 570.549 614.483 570.479C614.444 559.061 614.487 547.642 614.612 536.224Z" fill="white"/>
<path d="M776.21 456.777C777.858 458.26 784.274 475.07 785.474 478.064L777.125 478.07L766.955 478.069C769.953 470.934 773.038 463.836 776.21 456.777Z" fill="white"/>
<path d="M360.21 547.879C361.565 549.624 366.815 561.406 367.879 563.823L361.626 563.802L352.844 563.794L360.21 547.879Z" fill="white"/>
<path d="M534.722 547.371C535.996 549.156 541.401 560.82 542.69 563.502L535.75 563.513L526.871 563.498C529.231 558.002 531.851 552.62 534.722 547.371Z" fill="white"/>
<path d="M396 494.625V394H424.75V437.125H467.875V394H496.625V494.625H467.875V451.5H424.75V494.625H396ZM525.375 494.625V480.25H511V437.125H525.375V422.75H597.25V437.125H611.625V480.25H597.25V494.625H525.375ZM539.75 480.25H582.875V437.125H539.75V480.25ZM626 494.625V422.75H712.25V437.125H726.625V451.5H712.25V465.875H726.625V480.25H712.25V494.625H626ZM654.75 451.5H697.875V437.125H654.75V451.5ZM654.75 480.25H697.875V465.875H654.75V480.25ZM755.375 494.625V480.25H741V465.875H755.375V451.5H812.875V437.125H755.375V422.75H827.25V437.125H841.625V494.625H755.375ZM769.75 480.25H812.875V465.875H769.75V480.25ZM856 494.625V465.875H870.375V451.5H856V437.125H870.375V422.75H956.625V494.625H927.875V465.875H884.75V494.625H856ZM884.75 451.5H927.875V437.125H884.75V451.5ZM396 609.625V537.75H424.75V595.25H439.125V537.75H453.5V595.25H467.875V537.75H496.625V609.625H396ZM568.5 552.125H582.875V566.5H597.25V580.875H611.625V609.625H582.875V580.875H539.75V609.625H511V537.75H539.75V566.5H568.5V552.125ZM611.625 537.75V552.125H582.875V537.75H611.625ZM640.375 609.625V595.25H626V552.125H640.375V537.75H712.25V552.125H726.625V595.25H712.25V609.625H640.375ZM654.75 595.25H697.875V552.125H654.75V595.25ZM841.625 537.75V609.625H812.875V552.125H784.125V595.25H769.75V609.625H741V580.875H755.375V566.5H769.75V537.75H841.625ZM870.375 609.625V595.25H856V580.875H870.375V566.5H927.875V552.125H870.375V537.75H942.25V552.125H956.625V609.625H870.375ZM884.75 595.25H927.875V580.875H884.75V595.25Z" fill="black"/>
</g>
<defs>
<clipPath id="clip0_6364_1968">
<rect width="1024" height="1024" fill="white"/>
</clipPath>
</defs>
</svg>
