<svg width="1024" height="1024" viewBox="0 0 1024 1024" fill="none" xmlns="http://www.w3.org/2000/svg">
<g clip-path="url(#clip0_6364_1562)">
<path d="M0 0H1024V1024H0V0Z" fill="white"/>
<path d="M525.941 326.108C526.382 319.036 531.425 260.122 533.609 258.248C534.638 257.365 535.909 256.904 537.271 257.033C538.605 257.159 539.62 257.812 540.304 258.933C543.841 264.729 546.61 274.512 549.098 281.033C554.099 294.141 560.018 307.498 563.875 320.983C571.759 321.065 578.115 321.226 585.988 322.469C592.88 308.92 599.947 295.461 607.185 282.095C610.218 276.53 613.112 270.95 616.497 265.632C619.421 261.038 624.737 263.492 624.752 267.781C624.8 281.355 623.457 295.007 623.063 308.574C622.823 316.828 621.933 325.329 622.161 333.552C629.606 337.011 633.782 338.953 640.66 343.587C645.889 339.373 692.077 307.309 694.824 307.221C696.233 307.176 698.068 308.282 698.789 309.464C699.775 311.081 698.959 312.778 698.29 314.351C694.772 322.615 689.93 330.671 685.826 338.68C680.518 349.039 675.581 359.842 669.819 369.943C674.91 376.087 679.645 382.519 684 389.205C690.91 387.022 746.176 374.907 750.436 375.758C751.594 376.682 752.282 377.053 752.392 378.841C752.483 380.331 752.272 381.949 751.074 382.945C745.823 387.311 740.061 391.496 734.687 395.727L698.706 424.138C700.348 430.806 701.991 438.02 702.918 444.83C724.341 448.328 745.715 452.681 766.833 457.652C771.09 458.654 771.424 463.777 766.449 465.556C751.114 471.041 733.274 473.607 718.106 478.997C721.237 479.429 725.668 479.482 727.421 482.031C729.166 484.567 730.232 488.811 730.27 491.85C728.738 494.585 697.616 501.595 691.878 503.756C692.192 511.209 692.3 514.21 689.282 521.306C700.37 518.517 712.683 514.887 723.612 512.541C770.666 502.444 836.085 494.424 878.948 521.318C932.941 555.196 965.199 627.911 980.075 687.551C983.049 699.476 985.081 711.272 987.102 723.191C959.284 722.928 931.464 722.89 903.645 723.078L789.149 723.291C741.794 723.583 692.022 722.138 645.155 727.555C621.522 730.403 598.052 734.475 574.841 739.757C559.372 743.404 543.761 748.029 528.379 752.146C441.194 775.479 348.753 762.964 265.472 730.964C247.433 724.032 249.027 723.838 229.509 723.861L196.55 723.87C143.75 723.393 90.3119 724.604 37.6582 723.872C39.1632 716.948 40.3749 711.976 42.9896 705.254C51.4485 683.506 71.5302 662.719 91.1942 650.119C99.6287 644.783 108.509 640.187 117.737 636.383C122.094 635.116 131.732 631.054 136.454 629.249C143.851 626.66 158.506 623.866 166.226 622.377C175.569 621.258 184.886 620.01 194.271 619.297C196.293 619.144 198.294 618.949 200.293 618.605C221.55 617.494 242.863 618.281 263.98 620.957C270.59 621.95 280.077 623.652 286.526 624.126C289.619 624.617 302.83 626.98 304.863 626.237C317.485 621.625 333.611 613.694 345.619 608.088L407.075 579.822C417.129 563.749 432.741 546.587 443.65 530.742C440.66 525.475 438.236 520.815 435.542 515.387C412.619 515.651 389.454 517.808 366.538 518.676C363.933 518.775 362.463 517.664 362.198 515.066C363.978 510.609 377.833 503.028 382.57 500.446C396.15 493.044 411.228 481.562 425.133 475.449C424.796 470.944 424.513 465.006 423.944 460.662C404.039 449.652 381.73 441.306 361.359 431.156C355.261 428.117 360.038 421.599 365.385 422.509C387.146 421.974 408.95 420.521 430.709 420.014C432.941 413.366 435.151 406.867 438.27 400.557C423.678 384.845 408.92 369.235 394.752 353.154C391.877 349.891 394.713 344.502 399.289 346.061C419.182 352.838 440.498 359.316 459.756 367.539C464.454 362.789 469.212 357.827 474.143 353.34C471.713 345.016 452.053 291.847 453.737 288.271C454.239 287.204 455.287 286.45 456.407 286.147C457.767 285.78 458.815 286.007 459.992 286.742C464.408 289.5 468.63 295.164 472.467 298.887C484.072 310.256 495.832 321.466 507.743 332.515C513.662 330.268 519.85 327.741 525.941 326.108Z" fill="url(#paint0_linear_6364_1562)"/>
<path d="M94.9219 657.599C140.924 627.976 203.776 622.025 256.853 628.432C306.219 634.391 354.91 644.13 404.812 634.992C430.305 630.324 455.525 620.195 479.595 610.656C509.11 598.959 538.068 585.784 567.292 573.31C608.5 555.65 650.837 540.749 694.023 528.707C746.82 514.147 822.937 498.73 873.311 527.316C862.969 528.387 852.114 529.382 841.808 531.253C769.977 544.294 702.525 575.732 642.662 616.989C640.105 618.752 634.893 621.884 633.253 624.23C631.546 627.815 636.924 630.726 639.85 628.884C652.063 621.195 663.953 612.24 676.455 605.044C692.591 594.65 714.329 582.883 731.936 575.257C748.097 567.834 757.827 563.797 774.672 557.999C777.131 556.89 785.197 554.278 787.927 553.432C807.17 547.466 831.527 540.159 851.515 538.14C861.97 536.411 874.507 535.076 885.08 534.874C891.738 539.915 899.27 547.374 904.57 553.886C916.681 565.395 936.737 596.272 943.428 611.453C949.608 623.607 954.34 633.949 958.793 646.923C964.5 663.617 970.015 679.694 973.904 696.966C975.276 703.127 976.285 708.648 977.332 714.876L796.198 715.211C750.337 715.29 701.69 714.449 656.242 718.591C628.269 721.021 600.492 725.339 573.1 731.514C555.617 735.52 537.701 741.432 520.087 745.747C478.24 756.191 434.862 759.058 392.004 754.215C350.443 749.735 306.39 737.683 267.357 722.959C232.839 709.938 199.949 692.019 166.88 675.787C145.281 665.184 119.353 654.304 94.9219 657.599Z" fill="white"/>
<path d="M851.513 538.141C861.968 536.412 874.505 535.077 885.078 534.875C891.736 539.916 899.268 547.375 904.568 553.887C916.679 565.396 936.735 596.273 943.426 611.454C949.606 623.608 954.338 633.95 958.791 646.924C964.498 663.618 970.013 679.695 973.902 696.967L676.453 605.045C692.589 594.651 714.327 582.884 731.934 575.258C748.095 567.835 757.825 563.798 774.67 558C777.129 556.891 785.195 554.279 787.925 553.433C807.168 547.467 831.525 540.16 851.513 538.141Z" fill="black"/>
<path d="M851.515 538.141C861.97 536.412 874.507 535.077 885.08 534.875C891.738 539.916 899.27 547.375 904.57 553.887C916.681 565.396 936.737 596.273 943.428 611.454C949.608 623.608 954.34 633.95 958.793 646.924C954.001 645.106 945.15 642.729 940.004 641.149L902.501 629.469C864.279 617.108 825.971 605.015 787.579 593.192C774.777 589.198 762.001 585.12 749.252 580.96C744.598 579.448 736.127 577.025 731.936 575.258C748.097 567.835 757.827 563.798 774.672 558C777.131 556.891 785.197 554.279 787.927 553.433C807.17 547.467 831.527 540.16 851.515 538.141Z" fill="white"/>
<path d="M851.515 538.141C861.97 536.412 874.507 535.077 885.08 534.875C891.738 539.916 899.27 547.375 904.57 553.887C916.681 565.396 936.737 596.273 943.428 611.454L826.202 574.036C815.912 570.757 805.6 567.546 795.269 564.402C788.755 562.431 780.971 560.321 774.672 558C777.131 556.891 785.197 554.279 787.927 553.433C807.17 547.467 831.527 540.16 851.515 538.141Z" fill="black"/>
<path d="M851.514 538.141C861.969 536.412 874.506 535.077 885.079 534.875C891.737 539.916 899.269 547.375 904.569 553.887C903.181 553.958 853.184 539.114 851.514 538.141Z" fill="white"/>
<path d="M340.036 661.364C346.846 660.141 353.361 664.665 354.593 671.474C355.826 678.283 351.312 684.804 344.505 686.047C337.684 687.293 331.146 682.767 329.91 675.943C328.675 669.12 333.211 662.589 340.036 661.364Z" fill="white"/>
<path d="M477.687 660.972C484.499 660.689 490.285 665.907 490.707 672.711C491.129 679.516 486.031 685.408 479.237 685.969C474.716 686.343 470.347 684.243 467.814 680.48C465.281 676.716 464.981 671.878 467.03 667.83C469.078 663.783 473.155 661.159 477.687 660.972Z" fill="white"/>
<path d="M599.421 660.695C605.524 660.731 614.919 661.506 609.222 670.368C606.028 671.612 602.756 671.308 599.369 671.217L599.421 660.695Z" fill="white"/>
<path d="M378.914 660.929C385.278 660.871 392.915 661.583 387.956 670.254C384.496 672.361 383.015 672.038 378.963 672.046L378.914 660.929Z" fill="white"/>
<path d="M467.668 532.883C468.794 535.183 471.197 540.159 472.8 541.833C474.023 541.937 474.226 541.917 475.398 541.707L476.396 541.522C477.528 542.268 477.139 541.781 477.461 543.103C474.722 545.798 470.917 552.334 468.347 552.951C465.045 552.116 459.619 544.499 457.658 541.705C439.032 515.165 428.51 483.794 431.358 451.362C442.383 325.803 601.31 281.534 673.529 385.437C683.664 400.018 698.73 432.694 695.804 449.926L695.469 450.888C691.372 450.392 686.573 448.299 684.757 444.358C680.135 441.247 677.728 437.138 674.915 432.45C665.12 416.127 659.032 401.469 638.923 395.844C632.321 397.652 626.022 399.922 619.577 401.719C618.802 395.191 618.127 391.92 610.494 394.19C587.912 400.908 565.168 407.46 542.743 414.684C537.43 416.395 540.314 422.924 541.302 426.858C525.051 432.447 508.723 437.807 492.322 442.937C483.425 445.787 473.777 448.348 465.442 452.4C460.726 454.692 455.18 464.682 455.872 469.805C458.685 490.623 467.821 511.232 474.099 531.186L467.668 532.883Z" fill="black"/>
<path d="M467.668 532.883C468.794 535.183 471.197 540.159 472.8 541.833C474.023 541.937 474.226 541.917 475.398 541.707L476.396 541.522C477.528 542.268 477.139 541.781 477.461 543.103C474.722 545.798 470.917 552.334 468.347 552.951C465.045 552.116 459.619 544.499 457.658 541.705C439.032 515.165 428.51 483.794 431.358 451.362C442.383 325.803 601.31 281.534 673.529 385.437C683.664 400.018 698.73 432.694 695.804 449.926L695.469 450.888C691.372 450.392 686.573 448.299 684.757 444.358C679.89 411.839 661.984 382.706 635.168 363.678C608.891 344.576 575.991 336.947 543.989 342.536C476.147 353.807 434.755 420.174 448.227 485.392C450.98 498.721 459.123 521.855 467.668 532.883Z" fill="white"/>
<path d="M488.399 555.773C484.94 552.606 472.886 509.718 469.917 502.269C467.545 496.32 464.404 483.885 462.196 477.479C454.544 455.28 478.042 452.532 492.575 448.005C506.352 443.716 520.107 439.357 533.839 434.928C555.923 427.634 578.052 420.48 600.226 413.466C611.502 409.822 628.058 403.901 639.249 401.477C641.602 402.596 651.86 407.753 653.121 409.187C661.997 419.275 669.293 435.828 677.024 446.909C685.164 458.574 697.14 456.167 709.035 458.003L709.65 458.103C711.605 464.766 713.302 470.72 714.875 477.473C708.191 479.218 702.821 480.605 696.519 483.581L698.86 493.448L688.565 496.616C684.98 492.121 681.803 488.724 676.218 486.54C670.321 484.281 663.759 484.518 658.041 487.196C650.009 491.016 644.862 498.509 641.923 506.654C641.47 503.48 640.336 499.979 639.304 496.932C632.273 476.163 625.767 455.15 618.026 434.639C617.013 432.584 615.166 428.955 613.122 427.729C608.232 424.793 600.717 428.946 595.653 430.11C588.954 431.65 585.507 433.299 582.02 439.112C575.594 433.87 565.646 439.492 558.327 441.242C544.268 445.197 547.306 451.387 550.493 461.859C557.015 483.288 566.246 505.378 571.842 526.818C569.099 529.36 566.82 531.004 565.576 534.544C567.042 536.427 567.773 537.612 568.394 539.966L567.8 540.134C565.181 535.906 564.857 535.142 561.546 531.497C548.301 516.917 526.545 523.705 522 542.264C521.453 544.499 520.268 546.112 521.277 548.426L520.977 548.662C521.435 550.759 521.572 551.041 521.36 553.126C520.247 554.828 496.274 560.947 492.869 562.085C492.723 562.134 491.443 562.352 491.155 562.399C489.766 561.314 490.174 561.415 489.6 559.27C489.325 558.077 488.833 556.931 488.399 555.773Z" fill="white"/>
<path d="M521.054 543.401C521.137 542.788 521.239 542.177 521.362 541.571C522.694 535.31 526.495 529.851 531.905 526.429C543.202 519.272 558.796 523.299 565.575 534.547C567.041 536.43 567.772 537.615 568.393 539.969L567.799 540.137C565.18 535.909 564.856 535.145 561.545 531.5C548.3 516.92 526.544 523.708 521.999 542.267C521.452 544.502 520.267 546.115 521.276 548.429L520.976 548.665C518.03 549.936 515.085 551.24 512.098 552.408C511.834 549.342 511.433 547.845 514.687 546.301C516.782 545.307 518.952 544.382 521.054 543.401Z" fill="black"/>
<path d="M491.36 553.699L503.798 549.566C504.566 554.148 504.571 552.162 502.569 555.194C499.258 556.411 493.014 558.65 489.6 559.27C489.325 558.077 488.833 556.931 488.399 555.773C488.416 554.55 488.239 555.125 488.993 554.071L491.36 553.699Z" fill="#0F172E"/>
<path d="M507.219 548.227C509.743 549.38 509.547 550.103 510.196 552.746C508.28 553.318 504.175 554.864 502.568 555.197C504.57 552.165 504.565 554.151 503.797 549.569L507.219 548.227Z" fill="black"/>
<path d="M511.472 452.584C522.698 451.603 520.759 458.295 523.782 466.612C526.134 473.086 525.916 478.922 518.364 481.262C506.304 484.999 494.039 489.189 481.835 492.443C480.353 492.521 479.064 492.45 477.719 491.788C474.317 490.114 473.089 486.203 471.92 482.864C470.733 479.472 467.553 472.272 469.417 468.898C472.618 463.104 503.641 455.047 511.472 452.584Z" fill="#0F172E"/>
<path d="M652.301 415.551L653.948 415.593C657.145 417.65 672.014 444.201 675.213 449.315C665.083 450.727 653.049 451.326 642.619 452.414C638.815 452.638 634.972 453.149 631.184 453.602C627.204 444.07 623.539 434.41 620.197 424.636C629.661 421.466 642.502 418.233 652.301 415.551Z" fill="#0F172E"/>
<path d="M694.355 464.398C698.436 463.391 704.196 461.604 708.161 462.195C710.843 463.855 710.655 466.573 709.829 469.188C708.287 470.619 708.224 470.206 705.719 470.645C702.535 471.215 699.163 471.875 695.982 472.344C695.626 469.697 694.947 467.012 694.355 464.398Z" fill="#0F172E"/>
<path d="M490.083 553.117C488.471 552.928 487.85 552.483 487.131 551.05C488.29 546.798 501.218 542.986 505.619 542.876C506.711 542.849 507.186 543.775 507.703 544.517C507.54 546.257 507.619 546.162 506.649 547.597C501.65 548.357 494.8 551.171 490.083 553.117Z" fill="#0F172E"/>
<path d="M705.717 470.648L706.164 471.683C708.283 471.438 709.047 471.14 710.906 471.963L711.638 472.869C710.999 477.768 701.117 479.989 697.642 477.244C697.049 475.821 696.91 475.391 696.532 473.896L695.98 472.347C699.161 471.878 702.533 471.218 705.717 470.648Z" fill="#0F172E"/>
<path d="M705.717 470.648L706.164 471.683C704.041 472.019 697.715 472.649 696.532 473.896L695.98 472.347C699.161 471.878 702.533 471.218 705.717 470.648Z" fill="#ADAFAA"/>
<path d="M476.797 557.477C478.114 557.604 483.871 560.379 484.595 561.583L484.308 562.043C481.501 563.333 478.065 563.23 474.926 563.375C477.073 568.167 480.387 572.643 483.396 576.961C496.413 573.203 514.55 566.653 527.215 564.06C533.247 570.035 535.586 571.708 543.841 573.998C539.567 576.323 534.715 578.218 530.293 580.272C511.541 588.981 492.592 596.744 473.421 604.456C451.148 613.415 429.498 621.638 405.903 626.382C376.659 631.742 350.777 631.402 321.188 628.561C329.55 624.293 338.24 620.447 346.746 616.418C369.739 605.544 392.839 594.896 416.042 584.477L453.24 567.634C460.794 564.231 469.11 560.222 476.797 557.477Z" fill="white"/>
<path d="M101.742 665.203C128.842 662.857 173.089 688.276 197.975 700.868C208.492 706.067 219.1 711.077 229.795 715.897C212.156 715.56 194.513 715.426 176.87 715.497L48.1348 715.423C55.3889 690.621 74.6972 667.567 101.742 665.203Z" fill="white"/>
<path d="M606.909 432.123C608.189 431.959 609.141 431.737 610.387 432.061C610.989 432.072 611.825 433.297 612.069 433.877C617.49 447.285 621.201 459.657 625.599 473.643C627.484 479.636 636.075 499.933 635.623 506.017C635.452 508.305 617.582 513.028 614.114 513.919C612.55 514.266 610.585 514.463 608.959 514.671C605.356 507.093 601.226 493.28 598.546 484.988C594.085 471.184 589.04 456.46 585.135 442.552L587.993 438.083C594.195 435.801 600.455 433.571 606.909 432.123Z" fill="white"/>
<path d="M576.903 441.66L577.45 441.752C580.823 445.055 599.866 505.65 602.735 515.572C592.19 521.087 589.588 521.902 578.101 524.038C577.561 524.238 577.908 524.169 577.042 523.993C574.681 520.156 553.524 454.226 552.764 449.131C557.662 446.578 571.463 442.497 576.903 441.66Z" fill="white"/>
<path d="M649.572 523.074C650.071 523.153 655.745 529.078 657.848 530.665C646.042 535.215 631.95 539.537 619.798 543.899C603.273 549.941 586.877 556.331 570.621 563.063C568.331 563.839 565.852 565.013 563.617 565.996C569.065 559.741 569.658 555.405 570.286 547.606L611.327 534.982C623.765 531.027 637.064 526.313 649.572 523.074Z" fill="white"/>
<path d="M425.242 481.441C425.549 481.612 425.856 481.784 426.163 481.955C426.65 488.044 431.898 505.762 433.208 509.923C418.155 509.742 396.777 511.137 381.623 512.391C378.739 512.588 375.665 512.936 372.77 513.216C390.602 502.565 406.95 491.974 425.242 481.441Z" fill="black"/>
<path d="M426.762 425.733L428.195 425.711C428.772 427.044 427.278 433.543 426.927 435.453C425.748 441.879 425.158 448.218 424.515 454.706C412.632 448.638 400.586 442.891 388.392 437.473C381.858 434.525 375.154 431.209 368.664 428.111C387.91 427.671 407.496 426.546 426.762 425.733Z" fill="black"/>
<path d="M402.361 353.344C407.35 354.313 417.374 357.869 422.328 359.586C433.655 363.534 444.932 367.624 456.157 371.854C452.854 376.322 449.66 380.87 446.579 385.494L441.193 395.08C437.213 391.676 431.655 385.336 427.95 381.307C419.351 371.96 411.145 362.555 402.361 353.344Z" fill="black"/>
<path d="M537.159 266.863C539.475 269.423 556.665 316.27 557.961 321.031L549.142 321.612C543.138 322.397 537.34 323.401 531.375 324.421C532.806 305.673 535.315 285.736 537.159 266.863Z" fill="black"/>
<path d="M461.166 296.207C464.128 297.488 497.888 330.568 502.303 334.912C499.213 336.795 495.605 338.742 492.429 340.555C487.511 343.506 483.543 346.417 478.903 349.771C472.621 333.6 466.5 312.989 461.166 296.207Z" fill="black"/>
<path d="M690.645 316.012C690.757 317.772 669.055 359.747 665.963 365.694C662.622 362.232 659.208 358.841 655.725 355.523C652.043 352.351 649.228 349.999 645.244 347.13C657.319 337.522 677.414 324.591 690.645 316.012Z" fill="black"/>
<path d="M618.728 272.859C619.631 274.352 618.848 281.145 618.745 283.426C618.127 299.286 617.34 315.139 616.386 330.983C610.266 328.67 604.839 326.735 598.502 325.058C596.357 324.536 593.677 324.072 591.471 323.625C596.7 313.472 602.021 303.367 607.433 293.31C610.889 286.833 614.88 278.922 618.728 272.859Z" fill="black"/>
<path d="M739.566 382.615C741.144 382.371 740.634 382.136 741.68 382.699C740.266 384.451 723.331 397.488 720.696 399.522C713.188 405.316 704.948 412.669 697.458 418.249L695.118 412.146C693.233 406.504 689.497 399.091 686.877 393.72C692.716 392.063 700.753 390.652 706.811 389.409L739.566 382.615Z" fill="black"/>
<path d="M607.172 519.134C617.334 520.809 631.181 512.882 640.62 510.482C640.924 510.405 645.931 513.775 646.779 514.205L647.289 515.178C645.732 517.755 641.984 518.511 639.023 519.283C632.937 520.869 627.027 522.977 620.977 524.851C609.625 528.391 598.24 531.821 586.822 535.142C582.893 536.288 571.98 539.65 568.394 539.969C567.773 537.615 567.042 536.43 565.576 534.547C569.637 536.404 573.852 532.1 576.517 529.139C588.337 527.76 596.726 525.105 607.172 519.134Z" fill="white"/>
<path d="M446.368 535.828C448.528 537.981 459.78 553.516 461.767 556.442C450.479 560.884 439.288 565.568 428.201 570.49L416.828 575.388C426.086 562.342 436.746 548.855 446.368 535.828Z" fill="black"/>
<path d="M713.852 452.223C728.273 455.058 745.066 458.39 759.313 461.871L751.103 464.104C740.619 466.841 730.274 469.938 719.759 472.614C717.755 465.762 716.267 458.942 713.852 452.223Z" fill="black"/>
<path d="M612.24 398.484L613.004 398.504C613.452 399.619 611.685 403.388 611.097 405.189C590.432 411.437 566.642 418.416 546.45 425.335L544.234 419.367C566.996 412.357 589.555 405.882 612.24 398.484Z" fill="white"/>
<path d="M544.748 539.909C550.061 538.648 555.387 541.944 556.627 547.262C557.868 552.579 554.551 557.892 549.229 559.112C543.936 560.326 538.658 557.031 537.424 551.743C536.19 546.454 539.465 541.164 544.748 539.909Z" fill="white"/>
<path d="M667.993 500.09C672.502 500.435 675.954 501.787 677.868 506.254C678.956 508.807 678.95 511.693 677.852 514.241C676.352 517.701 673.895 519.124 670.549 520.364C665.948 520.106 662.472 518.455 660.711 513.871C659.751 511.349 659.838 508.548 660.954 506.091C662.485 502.686 664.735 501.423 667.993 500.09Z" fill="white"/>
<path d="M695.806 449.926C698.07 450.052 706.468 450.964 708.492 451.793C704.133 451.896 699.774 451.593 695.471 450.888L695.806 449.926Z" fill="#ADAFAA"/>
<path d="M154.152 375.018C177.049 374.57 189.309 382.336 200.508 402.135C217.966 386.997 239.662 381.711 256.723 400.636C239.512 398.467 228.656 400.689 215.983 413.098C240.965 416.253 269.373 424.56 256.75 456.956C271.785 451.805 277.066 459.817 283.181 471.814C288.329 462.606 295.097 453.659 306.734 452.844C308.951 452.688 312.259 452.227 314.196 453.368L314.317 453.823C310.837 455.637 308.028 456.765 305.521 459.734C302.92 462.76 300.725 466.112 298.99 469.705C306.095 467.285 312.103 465.362 319.737 467.085C330.653 469.55 337.429 475.887 341.409 486.262C328.337 478.733 317 475.417 302.589 481.807C327.387 489.764 338.962 503.789 325.334 528.722C324.542 510.128 316.472 500.37 298.444 495.72C307.391 513.963 307.247 525.887 294.074 542.058C294.236 528.207 294.336 508.938 281.839 499.781C277.441 519.523 279.857 605.59 286.525 624.126C280.076 623.652 270.589 621.95 263.979 620.957C242.862 618.281 221.549 617.494 200.292 618.605C198.293 618.949 196.292 619.144 194.27 619.297C184.885 620.01 175.568 621.258 166.225 622.377C168.278 615.936 170.652 609.061 172.317 602.526C177.167 583.484 179.771 564.004 183.127 544.713C189.092 510.422 189.121 478.238 187.999 443.522C171.221 455.65 170.122 471.659 170.994 491.09C149.953 472.068 156.952 450.79 171.487 429.968C145.875 434.694 135.579 448.488 132.238 473.52C120.187 460.596 123.649 436.905 136.317 425.54C145.3 417.48 155.834 416.893 167.1 415.373C148.827 402.311 131.248 409.452 113.553 419.361C118.4 408.435 125.034 400.282 136.423 395.809C146 392.15 156.641 392.461 165.989 396.672C171.3 399.015 175.401 402.006 179.753 405.767C174.051 390.285 167.476 384.285 154.152 375.018Z" fill="black"/>
<path d="M217.693 430.504C224.445 431.024 229.384 431.411 235.57 434.354C243.405 437.971 249.489 444.342 253.544 451.883C253.829 452.413 256.041 457.879 255.933 457.846C265.057 460.608 268.174 465.818 270.82 474.351C255.305 467.088 239.026 462.928 228.723 482.913C227.788 484.727 226.406 489.553 226.601 491.548C227.412 491.9 227.762 492.108 228.639 491.524C238.986 484.645 248.856 479.176 262.065 482.545C256.747 485.991 252.78 489.171 249.567 494.794C245.312 502.243 243.253 512.607 248.293 520.148L248.913 520.354C255.136 508.652 257.14 499.969 272.178 495.388C272.664 495.241 273.151 495.1 273.639 494.965C273.404 514.533 271.057 530.363 268.81 549.474C266.216 571.532 259.384 599.528 263.979 620.959C242.862 618.283 221.549 617.496 200.292 618.607C200.757 610.282 201.564 602.229 201.855 593.868C202.585 565.033 202.294 536.181 200.984 507.366C200.414 494.634 199.756 481.906 199.008 469.184C198.484 460.731 197.522 450.717 197.667 442.391C209.755 448.038 216.12 454.031 223.889 464.989C225.788 467.668 229.272 472.729 231.47 474.886C231.682 456.647 226.967 446.08 217.693 430.504Z" fill="white"/>
<path d="M98.8534 513.885C106.369 502.15 117.259 492.647 132.409 495.006C134.416 495.318 139.495 495.891 140.678 497.472C139.505 498.612 133.045 500.07 130.893 500.903C122.443 504.173 119.535 507.112 115.81 514.882C119.329 513.651 122.868 512.258 126.506 511.486C146.015 507.35 155.549 520.46 159.012 536.703C146.563 528.812 133.501 515.367 118.685 528.76C121.337 529.419 123.611 530.09 126.156 531.068C142.574 537.381 149.123 553.113 133.685 565.323C132.301 550.711 123.918 543.903 110.806 539.827C114.837 563.328 125.809 607.628 136.453 629.249C131.731 631.054 122.093 635.116 117.736 636.383C117.117 630.093 113.453 614.018 112.138 606.752C108.172 585.051 104.44 563.307 100.943 541.526C90.4945 550.241 93.4473 566.842 94.7415 578.804C81.3828 567.812 81.326 550.995 86.2624 535.638C81.9211 536.374 77.9724 537.249 74.1275 539.369C65.0798 544.357 65.0893 550.045 62.3641 558.666L61.6812 558.75C55.7853 554.195 56.6722 539.661 61.1308 533.934C67.8859 525.258 75.0003 522.609 85.3102 520.827C71.7481 512.413 64.4542 514.834 50.2656 519.142C59.3821 499.003 84.9944 498.973 98.8534 513.885Z" fill="black"/>
</g>
<defs>
<linearGradient id="paint0_linear_6364_1562" x1="641.472" y1="269.87" x2="475.757" y2="847.746" gradientUnits="userSpaceOnUse">
<stop stop-color="#091020"/>
<stop offset="1" stop-color="#070F31"/>
</linearGradient>
<clipPath id="clip0_6364_1562">
<rect width="1024" height="1024" fill="white"/>
</clipPath>
</defs>
</svg>
