<svg width="1024" height="1024" viewBox="0 0 1024 1024" fill="none" xmlns="http://www.w3.org/2000/svg">
<g clip-path="url(#clip0_6364_1382)">
<path d="M0 0H1024V1024H0V0Z" fill="white"/>
<path d="M321.716 131.729C340.94 131.468 360.956 139.08 370.856 156.202C377.993 168.545 383.71 182.837 389.85 195.806C397.677 212.233 405.355 228.731 412.882 245.297C421.08 263.004 431.805 277.331 419.265 296.568C411.82 307.989 398.659 311.786 386.765 316.987L354.932 330.925L247.223 377.788L179.582 407.858C167.547 413.351 143.618 425.696 131.865 428.103C121.824 428.673 112.007 428.385 106.829 418.2C103.07 410.806 100.004 403.214 96.7171 395.601L78.2161 352.363L61.593 313.07C55.2063 297.873 46.6362 284.204 57.5244 268.617C60.3869 264.519 62.5237 262.674 66.9396 260.375C59.8637 245.998 58.067 240.666 74.8854 233.902C91.0919 227.385 97.103 223.647 103.107 243.482C111.504 239.225 123.31 234.252 132.099 230.272C130.072 226.972 128.164 224.26 129.328 220.38C131.29 217.753 158.457 206.308 163.114 204.238C162.442 202.304 161.845 199.924 161.283 197.92C164.717 195.464 173.959 191.519 178.195 189.589L207.94 176.029L263.514 150.765C284.866 141.032 297.573 133.097 321.716 131.729Z" fill="#000004"/>
<path d="M372.692 167.445L373.008 167.506C376.101 169.641 405.154 238.166 410.235 246.551C411.587 248.781 416.839 260.455 418.181 263.433C434.225 299.049 397.232 309.391 374.289 319.327L314.116 345.208C302.238 350.258 290.165 356.019 278.315 361.266L180.208 404.43C178.874 396.236 172.829 385.393 169.42 377.33C155.4 344.558 141.12 311.897 126.582 279.351C139.801 273.04 153.066 266.824 166.374 260.703L214.327 238.77C231.471 230.815 249.358 222.237 266.818 215.059C264.884 216.622 263.026 218.279 261.251 220.021C248.985 232.196 236.79 257.115 236.97 274.501C237.352 311.203 269.176 339.469 305.218 338.953C324.846 338.672 353.875 328.823 367.381 314.595C392.124 288.528 390.971 243.427 363.587 219.608C345.654 203.479 327.343 197.768 303.483 198.42C325.78 188.008 349.95 176.899 372.692 167.445Z" fill="white"/>
<path d="M319.815 134.714C326.735 134.102 336.482 135.561 343.026 137.877C357.835 143.118 365.252 150.682 371.923 164.508C361.126 169.628 349.527 174.44 338.558 179.355L258.118 215.392L90.4208 292.992C80.8882 297.285 71.3426 302.006 61.6989 306.001C55.899 292.371 50.174 279.53 62.7072 266.716C67.7552 261.555 80.252 257.196 87.2671 253.939C104.127 246.012 121.078 238.281 138.118 230.749C147.629 226.497 157.335 222.307 166.754 217.856C168.551 217.007 169.704 216.501 170.443 214.885C170.256 210.276 166.376 203.632 164.255 199.157C169.821 196.165 178.58 192.557 184.629 189.802L226.953 170.575L269.22 151.385C287.996 142.794 298.659 136.404 319.815 134.714Z" fill="white"/>
<path d="M292.191 156.426C295.893 157.635 303.721 177.09 303.097 180.936C300.462 183.531 252.927 204.054 247.618 205.58C244.977 203.559 236.626 185.226 235.834 181.334C239.165 179.237 251.4 174.018 255.354 172.297C267.327 167.086 280.034 161.08 292.191 156.426Z" fill="url(#paint0_linear_6364_1382)"/>
<path d="M290.924 159.988L291.99 160.133C294.84 163.015 298.904 175.234 300.477 179.701C285.896 186.365 270.987 192.506 256.442 199.284C253.914 200.462 251.345 201.415 248.65 202.139C247.367 200.504 239.803 185.37 238.932 183.099C244.269 180.088 255.027 175.534 260.891 172.963C270.605 168.706 281.134 163.805 290.924 159.988Z" fill="white"/>
<path d="M205.164 189.177C211.23 188.009 217.456 190.189 221.468 194.886C225.48 199.583 226.659 206.073 224.557 211.882C222.454 217.69 217.394 221.921 211.305 222.962C202.027 224.548 193.201 218.369 191.518 209.108C189.835 199.847 195.921 190.957 205.164 189.177Z" fill="#000004"/>
<path d="M205.954 191.743C213.86 190.343 221.391 195.656 222.723 203.574C224.056 211.492 218.679 218.978 210.75 220.243C202.916 221.493 195.539 216.194 194.222 208.371C192.905 200.548 198.142 193.126 205.954 191.743Z" fill="white"/>
<path d="M251.778 237.917C270.843 202.771 312.85 190.771 347.15 210.96C363.537 220.605 374.388 232.551 379.628 250.988C384.394 267.895 382.22 286.006 373.587 301.304C366.831 313.405 357.96 320.007 345.62 325.884C321.756 337.249 294.452 340.83 270.781 326.918C264.804 323.405 257.015 317.435 253.281 311.41C248.562 305.999 244.176 296.759 242.259 289.821C236.758 269.906 242.072 255.25 251.778 237.917Z" fill="white"/>
<path d="M273.329 227.097C277.534 223.916 281.95 221.024 286.676 218.68C289.926 222.924 294.901 227.946 297.506 231.572C310.306 228.165 320.606 228.515 332.464 235.435C341.937 240.954 348.789 250.055 351.472 260.685C354.04 270.476 352.587 280.887 347.437 289.601C336.428 308.159 309.454 315.635 291.002 304.049C284.237 299.802 280.069 294.563 275.85 287.942C273.136 280.7 272.599 277.05 272.518 269.364C268.572 267.866 259.969 263.254 258.713 259.204C260.316 246.989 264.077 235.686 273.329 227.097Z" fill="#000004"/>
<path d="M273.329 227.094C278.72 233.334 279.692 234.412 282.133 242.342C274.899 251.791 273.29 257.602 272.518 269.361C268.572 267.863 259.969 263.251 258.713 259.201C260.316 246.986 264.077 235.683 273.329 227.094Z" fill="white"/>
<path d="M273.328 227.097C277.533 223.916 281.949 221.024 286.675 218.68C289.925 222.924 294.9 227.946 297.505 231.572C290.857 234.353 286.922 236.852 282.132 242.345C279.691 234.415 278.719 233.337 273.328 227.097Z" fill="white"/>
<path d="M305.7 232.899C325.855 229.34 345.114 242.686 348.858 262.807C352.603 282.929 339.435 302.309 319.348 306.239C298.999 310.22 279.309 296.841 275.515 276.456C271.721 256.071 285.281 236.505 305.7 232.899Z" fill="white"/>
<path d="M310.037 250.808C320.59 248.711 330.827 255.626 332.823 266.199C334.818 276.772 327.805 286.943 317.214 288.836C306.765 290.704 296.762 283.806 294.794 273.376C292.826 262.947 299.627 252.877 310.037 250.808Z" fill="#000004"/>
<path d="M309.905 253.942C315.587 252.523 321.593 254.266 325.633 258.505C329.674 262.744 331.127 268.827 329.437 274.435C327.748 280.042 323.178 284.31 317.468 285.613C308.764 287.598 300.085 282.204 298.011 273.52C295.938 264.837 301.243 256.104 309.905 253.942Z" fill="white"/>
<path d="M286.676 218.68C302.275 211.529 319.06 210.878 335.069 216.881C363.161 227.414 379.519 260.484 368.681 288.938C362.266 305.779 347.795 313.169 332.163 320.183C329.946 321.185 327.571 321.854 325.702 323.352C325.604 324.529 325.577 324.135 325.978 325.348L324.255 325.802C323.969 327.05 323.966 326.6 324.283 327.816C322.772 325.674 319.487 326.501 316.331 327.029C304.297 329.042 293.564 325.437 283.53 318.362C283.953 316.001 278.155 301.471 277.89 297.576C277.762 295.694 276.129 290.744 275.85 287.942C280.069 294.563 284.237 299.802 291.002 304.049C309.454 315.635 336.428 308.159 347.437 289.601C352.587 280.887 354.04 270.476 351.472 260.685C348.789 250.055 341.937 240.954 332.464 235.435C320.606 228.515 310.306 228.165 297.506 231.572C294.901 227.946 289.926 222.924 286.676 218.68Z" fill="white"/>
<path d="M257.829 247.359C260.338 240.388 263.019 233.551 268.254 228.245C298.469 197.618 352.324 206.264 369.674 246.32C375.892 260.676 377.02 274.7 371.693 289.482C365.886 305.435 351.48 314.6 336.526 321.304C333.098 322.872 329.574 324.222 325.976 325.344C325.575 324.131 325.602 324.525 325.7 323.348C327.569 321.85 329.944 321.181 332.161 320.179C347.793 313.165 362.264 305.775 368.679 288.934C379.517 260.48 363.159 227.41 335.067 216.877C319.058 210.874 302.273 211.525 286.674 218.676C281.948 221.02 277.532 223.912 273.327 227.093C264.075 235.682 260.314 246.985 258.711 259.2C259.967 263.25 268.57 267.862 272.516 269.36C272.597 277.046 273.134 280.696 275.848 287.938C276.127 290.74 277.76 295.69 277.888 297.572C278.153 301.467 283.951 315.997 283.528 318.358C293.562 325.433 304.295 329.038 316.329 327.025C319.485 326.497 322.77 325.67 324.281 327.812C321.454 329.836 318.625 330.036 315.346 330.437C303.176 331.925 292.467 327.637 282.372 321.105C273.168 315.15 267.717 308.021 262.808 298.352C260.791 298.893 260.862 298.519 259.631 300.513C257.346 304.213 256.619 307.113 253.34 310.181L253.281 311.41C248.562 305.999 244.176 296.759 242.259 289.821C236.758 269.906 242.072 255.25 251.778 237.917C254.596 239.758 255.727 243.909 257.829 247.359Z" fill="#000004"/>
<path d="M251.778 237.918C254.596 239.759 255.727 243.91 257.829 247.36C253.197 265.197 255.269 281.543 262.808 298.353C260.791 298.894 260.862 298.52 259.631 300.514C257.346 304.214 256.619 307.114 253.34 310.182L253.281 311.411C248.562 306 244.176 296.76 242.259 289.822C236.758 269.907 242.072 255.251 251.778 237.918Z" fill="white"/>
<path d="M283.529 318.361C264.805 307.477 257.277 279.51 258.712 259.203C259.968 263.253 268.571 267.865 272.517 269.363C272.598 277.049 273.135 280.699 275.849 287.941C276.128 290.743 277.761 295.693 277.889 297.575C278.154 301.47 283.952 316 283.529 318.361Z" fill="white"/>
<path d="M123.541 280.449C124.733 281.039 172.967 392.269 178.558 404.812C166.404 411.799 150.771 418.17 137.764 423.78C132.497 426.052 125.5 425.998 119.84 425.095C107.543 420.765 107.153 411.85 102.235 401.148C100.316 396.971 98.6135 392.627 96.7654 388.404C85.2676 361.922 74.0088 335.336 62.9902 308.651C83.5502 299.056 103.066 290.548 123.541 280.449Z" fill="white"/>
<path d="M89.651 231.549C97.072 231.393 98.7499 238.948 100.642 244.656C93.3811 248.528 82.9958 252.794 75.3698 256.152L69.7912 258.531C62.7457 246.264 61.9779 241.784 75.931 236.526C80.7844 234.697 84.302 232.794 89.651 231.549Z" fill="white"/>
<path d="M164.088 206.984C165.751 207.879 167.246 211.906 168.067 213.755C160.2 218.252 143.436 225.309 134.877 228.994C133.057 228.172 131.796 224.701 131.809 222.717C133.687 219.292 159.039 209.229 164.088 206.984Z" fill="white"/>
<path d="M905.479 479.693C910.547 479.203 915.66 479.801 920.478 481.447C932.618 485.562 942.7 496.211 943.71 509.452C944.158 515.311 941.91 521.187 942.37 526.406C943.172 527.564 947.157 530.274 948.332 530.712C954.893 533.159 976.173 550.122 973.194 558.57C972.133 559.157 964.834 558.09 962.651 557.944L962.466 558.548C959.559 568.33 954.547 569.46 945.482 572.154C950.204 575.212 955.184 578.561 958.553 583.204C970.16 599.196 971.799 622.689 968.934 641.614C967.155 653.369 963.192 667.75 957.644 678.442C955.331 682.901 950.667 689.346 949.105 693.782C947.671 697.856 946.926 704.584 945.782 709.185C942.317 723.114 935.825 741.773 923.995 750.884C919.027 754.71 913.718 754.953 907.948 753.9C903.939 766.202 900.749 780.469 901.307 793.373C905.767 800.513 910.024 807.697 913.509 815.375C920.59 830.973 936.734 876.022 933.694 892.041C932.54 898.123 928.363 901.294 923.55 904.538C924.531 907.12 925.85 910.49 927.221 912.869C932.436 921.921 943.235 929.998 940.216 941.79C938.948 946.743 934.908 950.947 930.962 954.08C921.974 961.495 915.395 970.25 905.41 976.459C895.015 982.923 874.223 985.929 867.687 972.69C865.849 968.96 865.618 964.64 867.048 960.734C870.148 952.233 879.32 945.782 885.343 939.391C890.034 934.414 893.707 928.499 898.498 923.618C898.194 923.928 901.785 922.803 902.08 922.668L898.81 913.617C893.456 913.427 888.595 913.125 886.177 907.656C882.143 898.527 879.121 888.873 875.862 879.424C869.047 859.125 862.084 838.876 854.973 818.679C842.138 842.859 828.67 866.655 816.049 890.945C812.83 897.142 809.133 904.049 805.99 910.199C797.591 926.634 797.321 922.991 783.187 917.41C777.795 929.295 772.814 940.636 770.65 953.561C769.804 958.126 768.375 964.161 764.565 967.166C754.617 975.011 736.876 960.308 727.774 955.799C716.974 950.451 706.008 944.438 695.83 938.396C685.059 931.863 670.767 915.002 684.933 904.261C695.385 896.336 704.419 904.436 714.097 906.611C725.102 909.084 737.679 910.063 748.979 911.33C750.208 907.944 751.479 905.601 753.136 902.408C746.366 899.054 742.389 898.797 746.168 890.615C750.344 881.571 754.796 872.734 759.247 863.825C768.261 845.891 777.389 828.015 786.63 810.197C799.646 784.986 812.62 759.736 825.79 734.604C828.472 729.487 829.842 723.751 832.674 718.182L850.71 683.55C852.797 679.628 862.864 662.309 862.366 658.497C857.965 658.682 855.081 670.613 840.664 671.834C834.841 672.344 829.065 670.428 824.7 666.539C812.923 656.081 816.007 642.907 825.445 632.43C824.826 624.492 827.569 619.17 832.478 613.137C834.133 611.104 837.357 607.284 839.965 607.039L840.552 607.627C840.772 609.505 840.38 611.09 840.064 612.952C842.028 611.347 842.492 604.363 847.412 602.583C851.115 601.244 855.231 602.143 858.682 603.441C866.002 584.328 880.873 569.535 898.056 558.96C873.35 565.766 869.452 551.482 867.384 530.874C856.543 518.723 857.271 493.355 877.128 490.99C882.426 490.359 886.235 485.679 891.127 483.354C896.295 480.897 899.858 480.277 905.479 479.693Z" fill="url(#paint1_linear_6364_1382)"/>
<path d="M831.573 729.754C835.273 730.356 850.319 735.712 854.533 737.131C866.376 741.138 878.303 744.888 890.308 748.379C880.235 765.726 870.07 785.345 860.406 803.033C839.923 839.865 819.943 876.975 800.471 914.352C799.064 916.919 798.512 917.58 796.597 919.822C788.16 916.969 775.293 909.996 767.115 905.989C762.107 903.535 751.526 898.708 747.1 896.057C748.675 890.854 753.269 882.229 755.833 877.092L770.704 847.549L831.573 729.754Z" fill="white"/>
<path d="M926.513 558.859C929.298 560.431 934.421 567.654 937.592 570.026C944.541 575.225 953.528 579.649 957.957 587.352C974.835 616.704 967.032 656.46 951.211 684.542C942.355 700.261 917.734 722.673 902.829 700.362C891.851 684.049 887.104 663.84 878.303 646.265C871.848 633.174 881.631 625.497 894.23 622.848C900.899 624.687 903.782 628.256 907.717 633.546C911.781 639.52 933.715 675.063 938.391 676.741C939.777 676.049 939.339 676.589 939.951 675.299C938.659 672.597 934.779 668.984 932.63 665.902C926.421 656.999 917.945 646.194 912.943 636.614L912.605 635.961C914.38 626.346 918.255 613.513 923.693 605.095C924.651 603.612 926.221 602.054 926.253 600.253L925.41 599.453L924.246 599.489C919.445 602.775 912.085 625.56 910.24 632.315C903.265 623.56 898.98 617.755 887.019 621.714C882.647 617.731 880.192 615.595 877.003 610.678C878.959 601.897 889.972 573.971 895.899 567.737C900.935 575.365 905.366 576.584 913.305 570.943C918.165 567.489 922.421 563.186 926.513 558.859Z" fill="white"/>
<path d="M947.308 595.145C948.642 595.531 948.184 595.322 949.297 596.16C954.89 607.761 951.238 640.444 949.291 653.893L947.002 653.284C946.922 652.926 948.982 630.552 949.345 628.738C951.125 619.864 946.216 601.671 947.308 595.145Z" fill="#000004"/>
<path d="M892.965 749.121L905.344 752.969C900.984 766.371 897.812 780.261 898.066 794.396C895.461 792.279 894.567 791.123 891.319 790.85L890.635 791.528C893.557 798.037 899.625 796.355 900.156 797.195C916.268 822.702 925.87 853.808 930.873 883.453C933.536 899.237 920.983 903.581 908.603 907.587C905.638 908.497 894.499 911.178 891.613 909.845C889.847 908.483 887.864 904.441 887.135 902.5C876.333 873.73 867.305 844.182 856.957 815.268C869.292 793.64 880.827 770.929 892.965 749.121Z" fill="white"/>
<path d="M880.198 658.629C881.732 658.785 884.319 667.49 885.122 669.409C891.16 683.843 899.517 712.759 918.852 712.768C928.041 712.772 939.294 704.162 945.319 697.552C941.642 713.947 934.264 749.734 913.334 752.024C907.017 750.922 899.674 748.146 893.358 746.397C872.575 740.641 852.408 732.941 831.902 726.491C841.535 704.605 857.035 680.726 866.005 659.394C871.572 659.688 874.835 659.998 880.198 658.629Z" fill="white"/>
<path d="M872.972 689.203C874.088 689.385 874.666 689.201 875.236 690.018C880.926 698.179 886.228 706.515 892.23 714.521C892.227 715.064 892.224 715.607 892.221 716.149C890.428 715.878 890.037 716.045 888.669 714.407C885.62 710.757 872.81 692.876 872.972 689.203Z" fill="#000004"/>
<path d="M905.835 482.19C910.877 481.91 915.927 482.593 920.714 484.203C935.1 489.192 943.6 503.446 940.272 518.454C940.076 519.335 939.091 526.403 939.475 526.885C943.291 531.677 949.725 534.287 954.774 537.681C957.35 539.433 959.778 541.392 962.034 543.54C966.293 547.613 967.985 550.375 970.534 555.567C965.997 555.139 964.536 555.233 960.061 555.689C958.687 563.429 956.494 564.802 949.443 567.875C949.537 559.719 947.145 549.046 938.469 546.012L938.186 546.517C939.573 550.343 943.649 553.512 945.471 557.827C947.114 561.72 948.835 568.056 943.446 570.197C939.553 569.456 934.114 562.761 931.438 559.739C928.083 556.003 929.246 557.74 925.5 555.679C924.81 551.286 925.101 543.983 925.222 539.44C930.793 536.015 935.278 532.387 933.366 525.047C929.636 510.729 915.041 518.701 905.201 518.842C896.227 518.97 884.303 511.808 881.722 502.857C881.214 501.057 881.543 499.234 880.153 497.767C871.891 497.178 868.177 521.156 867.625 526.704C861.024 515.832 860.865 498.874 875.184 493.97C877.276 493.254 880.131 493.381 882.372 493.377C889.194 486.23 896.033 483.063 905.835 482.19Z" fill="white"/>
<path d="M878.125 502.363C879.613 504.825 879.846 506.615 882.09 509.417C888.496 517.812 899.987 523.651 910.675 521.368C917.024 520.012 927.083 514.817 930.644 524.693C931.43 526.925 931.294 529.378 930.265 531.509C929.252 533.626 927.413 535.234 925.18 535.956C917.152 538.568 915.614 531.538 913.747 530.562C912.932 530.995 912.944 530.751 912.763 531.504C912.456 532.776 912.711 534.119 913.465 535.189C915.452 538.02 919.413 538.816 922.575 539.244C922.493 545.679 922.536 552.115 922.705 558.549L918.224 563.122C915.986 565.262 912.467 568.493 909.88 570.087C903.589 573.961 901.087 570.232 898.419 565.418C899.235 562.303 899.995 559.923 901.036 556.878C903.3 555.643 904.545 555.065 906.541 553.385C906.947 551.945 906.959 552.651 906.446 551.197C901.991 552.032 896.072 556.746 891.191 557.885C879.236 560.674 873.097 551.104 871.557 540.737C869.544 527.185 870.157 513.911 878.125 502.363Z" fill="white"/>
<path d="M875.889 525.09L877.929 525.676C879.599 527.846 877.502 532.902 880.943 534.654C885.894 537.174 887.724 528.296 890.05 527.285L891.104 527.951L891.269 529.17C889.136 533.777 885.119 541.007 878.508 535.647C875.505 533.211 875.83 528.712 875.889 525.09Z" fill="#000004"/>
<path d="M890.001 541.852L890.543 542.132C891.831 546.082 886.506 548.347 883.441 549.088C882.72 548.17 882.674 547.979 882.176 546.907C883.207 544.567 885.753 546.392 889.613 542.273L890.001 541.852Z" fill="#000004"/>
<path d="M767.029 956.77C756.346 952.08 745.966 946.926 735.419 941.967C720.608 935.005 704.045 930.239 692.763 917.631C689.935 914.471 687.622 911.66 687.229 907.27C687.829 905.702 687.375 906.425 688.96 905.418C698.753 899.196 708.562 910.754 713.568 912.001L714.075 911.506L713.234 909.465L712.448 909.045C713.652 908.347 720.403 909.733 721.844 910.308L721.969 910.733C724.166 911.635 744.2 913.671 748.388 914.234C752.044 929.07 756.071 935.474 770.87 940.844C769.204 946.389 768.219 951.122 767.029 956.77Z" fill="white"/>
<path d="M713.234 909.468L712.449 909.048C713.653 908.35 720.403 909.736 721.844 910.311L721.969 910.736L719.522 911.144L719.022 911.882C720.866 924.404 737.117 917.821 743.904 919.924L744.123 920.635C741.028 924.929 723.14 922.878 719.281 919.278C716.445 916.632 716.24 914.006 715.974 910.497C714.894 909.424 715.048 909.757 713.234 909.468Z" fill="#0B0539"/>
<path d="M904.54 924.844C915.324 930.16 920.417 928.243 929.317 920.953C931.987 923.828 933.596 926.069 935.476 929.548C920.744 944.668 902.179 970.773 879.918 970.739C851.613 970.694 887.824 941.613 892.73 934.931L893.337 933.918L895.152 931.565C897.646 928.339 901.016 926.691 904.54 924.844Z" fill="white"/>
<path d="M892.732 934.931L893.339 933.918C900.36 942.324 888.988 951.653 884.602 950.541L884.25 949.637C887.774 944.428 894.047 945.171 892.732 934.931Z" fill="#000004"/>
<path d="M684.081 908.336C689.361 928.018 718.967 937.731 735.35 945.163C745.538 949.785 755.768 955.741 766.291 959.416C764.81 962.267 764.543 962.814 762.263 965.23C758.018 967.668 754.43 966.938 750.208 964.689C734.301 956.214 718.062 947.544 702.244 938.94C692.209 933.481 676.49 921.168 684.081 908.336Z" fill="white"/>
<path d="M755.428 903.574C762.148 906.377 773.964 912.462 780.607 915.877C777.977 921.95 775.445 928.066 773.012 934.221L771.52 937.986C762.863 934.731 756.071 930.064 753.011 920.657C750.781 913.801 752.383 909.644 755.428 903.574Z" fill="white"/>
<path d="M936.45 932.879C937.067 933.476 937.489 934.114 937.677 934.97C939.774 945.702 930.533 949.911 924.477 955.952C911.502 968.893 893.975 987.136 873.98 975.584C872.394 974.229 872.043 973.829 870.713 972.201C899.326 980.774 918.922 949.967 936.45 932.879Z" fill="white"/>
<path d="M895.089 563.906C895.487 564.043 895.248 563.917 895.652 564.49C894.529 565.801 892.672 567.404 891.915 568.57C883.968 580.827 878.182 596.295 874.13 610.092C871.077 608.364 868.572 606.859 865.125 606.113C863.736 606.359 861.852 606.849 860.436 607.176C866.374 588.863 879.714 575.07 895.089 563.906Z" fill="white"/>
<path d="M919.638 906.414C921.809 906.621 925.708 916.374 926.754 918.601C921.302 924.466 917.596 925.482 910.035 924.258C907.027 922.906 906.292 922.452 903.892 920.196L901.205 912.277C909.444 910.526 912.112 909.914 919.638 906.414Z" fill="white"/>
<path d="M863.434 608.91C871.72 609.383 878.726 616.712 883.578 622.846C880.148 625.606 878.356 627.118 875.772 630.641C874.991 631.94 874.128 633.914 873.456 635.323C870.521 631.662 860.861 618.24 860.432 613.206C860.274 611.346 862.021 609.942 863.434 608.91Z" fill="white"/>
<path d="M850.068 630.41C858.936 632.13 862.215 644.339 872.778 638.982C873.481 639.861 878.492 653.012 879.481 655.347C876.801 657.83 864.728 656.111 860.868 655.73C862.725 643.802 860.726 636.804 850.068 630.41Z" fill="white"/>
<path d="M843.447 612.945C849.968 615.192 855.096 620.469 861.399 621.454C862.497 623.294 863.546 625.276 864.584 627.161C862.253 626.351 856.268 622.879 855.945 622.818L855.482 623.444C855.448 628.545 861.593 629.19 865.608 629.788C867.442 631.987 869.121 633.843 870.59 636.31L870.288 637.148C867.386 638.416 863.126 635.547 860.842 633.82C855.879 630.067 851.739 627.924 846.045 625.48C843.641 621.444 841.824 617.619 843.447 612.945Z" fill="white"/>
<path d="M837.917 612.441C838.646 613.155 841.803 623.212 842.612 625.282C837.642 626.174 835.326 626.809 830.785 628.893C829.393 629.639 829.256 630.055 828.062 629.82C826.154 624.888 834.19 615.374 837.917 612.441Z" fill="white"/>
<path d="M850.551 604.602C853.762 604.67 856.17 605.52 859.122 606.544C858.654 608.372 857.449 616.538 857.12 616.924L855.25 615.931C851.712 613.758 847.902 612.804 845.232 609.853C844.579 606.541 847.874 605.63 850.551 604.602Z" fill="white"/>
<path d="M829.443 632.953C830.062 634.221 826.584 636.216 825.052 638.256C821.769 642.627 821.003 645.24 819.868 650.427L819.634 650.442C819.229 643.432 823.874 636.801 829.443 632.953Z" fill="#7B7881"/>
<path d="M842.749 628.177C844.363 628.015 846.057 628.242 847.436 629.152C846.651 629.724 840.023 629.568 838.249 629.65C836.822 630.104 835.588 630.713 834.221 630.564C837.398 628.77 839.247 628.551 842.749 628.177Z" fill="#585765"/>
<path d="M573.103 57.2734C587.649 61.8758 612.356 72.463 626.794 78.6415C624.22 84.8046 619.681 93.1767 616.589 99.3198C609.903 112.639 603.115 125.906 596.224 139.121C592.548 146.207 587.518 155.306 584.649 162.545C608.71 168.786 632.103 180.412 646.91 201.054C648.838 203.742 650.755 206.432 652.658 209.138C683.276 200.784 699.44 204.45 721.71 227.934C730.194 225.412 772.764 208.882 776.921 209.235C777.947 210.499 778.558 219.311 778.421 221.054C777.656 230.777 782.696 277.294 779.97 284L779.295 284.071C776.76 280.428 777.463 263.531 777.123 257.522C770.504 259.22 757.152 270.35 750.687 273.41C753.157 285.825 755.201 298.32 756.816 310.875C761.5 310.929 770.674 310.715 774.642 312.533L774.685 313.248C770.803 314.907 759.328 313.771 754.766 313.361C753.395 307.283 752.428 299.175 751.296 292.878C749.364 282.131 747.445 271.268 745.751 260.49C738.605 262.715 735.197 264.368 728.67 267.898C724.196 270.317 711.371 281.838 708.202 281.645C707.426 280.806 707.002 279.912 707.061 278.716C707.76 264.628 706.954 245.91 691.769 239.315C677.71 233.208 662.102 241.842 649.103 247.397C639.42 251.496 629.759 255.644 620.119 259.843C621.141 247.954 623.99 234.525 617.583 223.699C607.02 205.855 583.476 200.517 565.291 194.537C554.484 190.983 544.974 187.958 534.176 184.9C535.132 179.82 537.54 172.158 539.028 167.063L547.136 139.287C552.245 121.209 557.635 103.212 563.304 85.3025C566.01 76.8031 569.532 65.1712 573.103 57.2734Z" fill="white"/>
<path d="M573.103 57.2734C587.649 61.8758 612.356 72.463 626.794 78.6415C624.22 84.8046 619.681 93.1767 616.589 99.3198C609.903 112.639 603.115 125.906 596.224 139.121C592.548 146.207 587.518 155.306 584.649 162.545C608.71 168.786 632.103 180.412 646.91 201.054C648.838 203.742 650.755 206.432 652.658 209.138C683.276 200.784 699.44 204.45 721.71 227.934C730.194 225.412 772.764 208.882 776.921 209.235C777.947 210.499 778.558 219.311 778.421 221.054C777.656 230.777 782.696 277.294 779.97 284L779.295 284.071C776.76 280.428 777.463 263.531 777.123 257.522C776.626 243.064 776.307 226.424 775.112 212.054C764.709 215.639 754.344 219.33 744.017 223.127C736.916 225.727 728.118 229.193 720.916 231.168C697.342 207.263 684.013 202.867 651.514 212.452C636.107 190.277 627.05 181.415 600.719 170.533C595.225 168.262 585.669 165.952 581.048 163.726C582.324 160.267 583.995 156.604 585.754 153.348C598.738 129.309 610.436 104.565 623.137 80.3984C609.066 73.6914 589.565 66.2416 574.745 60.5825C561.439 95.1774 552.775 132.896 541.575 168.281C540.143 172.804 538.614 178.239 537.599 182.869C548.045 185.89 557.93 189.205 568.327 192.599C586.72 198.606 609.696 204.402 620.084 222.489C625.975 232.748 624.546 244.118 623.305 255.38C630.989 252.348 638.607 249.152 646.154 245.793C660.208 239.603 677.23 230.298 692.682 236.786C709.412 243.81 710.138 262.423 710.056 277.798C715.823 273.53 741.875 253.994 747.775 258.424C748.951 261.461 750.061 269.718 750.687 273.41C753.157 285.825 755.201 298.32 756.816 310.875C761.5 310.929 770.674 310.715 774.642 312.533L774.685 313.248C770.803 314.907 759.328 313.771 754.766 313.361C753.395 307.283 752.428 299.175 751.296 292.878C749.364 282.131 747.445 271.268 745.751 260.49C738.605 262.715 735.197 264.368 728.67 267.898C724.196 270.317 711.371 281.838 708.202 281.645C707.426 280.806 707.002 279.912 707.061 278.716C707.76 264.628 706.954 245.91 691.769 239.315C677.71 233.208 662.102 241.842 649.103 247.397C639.42 251.496 629.759 255.644 620.119 259.843C621.141 247.954 623.99 234.525 617.583 223.699C607.02 205.855 583.476 200.517 565.291 194.537C554.484 190.983 544.974 187.958 534.176 184.9C535.132 179.82 537.54 172.158 539.028 167.063L547.136 139.287C552.245 121.209 557.635 103.212 563.304 85.3025C566.01 76.8031 569.532 65.1712 573.103 57.2734Z" fill="url(#paint2_linear_6364_1382)"/>
<path d="M621.938 655.449C622.565 655.823 623.507 656.359 623.815 657.068C630.165 671.685 635.402 688.192 631.094 703.984C626.937 719.226 621.124 722.869 608.693 730.23C607.592 745.336 606.584 764.116 594.636 775.147C590.544 780.182 571.098 788.448 568.491 793.003C561.459 805.29 553.305 824.584 546.92 836.976C537.921 835.78 443.495 815.618 440.339 813.821C440.078 810.645 443.975 801.77 445.302 798.378C448.598 790 451.75 781.565 454.756 773.078C462.788 774.106 472.748 776.088 480.876 777.45C499.398 780.515 517.899 783.705 536.378 787.02C532.535 778.373 508.502 733.518 508.901 728.964C512.586 727.336 548.713 741.061 555.955 741.538C575.396 742.819 574.486 710.682 575.153 698.834C600.223 696.07 605.621 689.883 616.136 666.618C617.411 663.797 620.108 657.31 621.938 655.449Z" fill="#0B0539"/>
<path d="M622.052 660.746C629.79 677.294 633.584 697.861 623.657 714.375C619.256 721.695 612.898 724.665 605.785 728.619C604.273 773.268 595.926 770.019 566.323 790.787C564.831 791.833 548.252 827.824 545.595 833.452C530.87 830.929 515.455 827.467 500.78 824.388L443.145 812.207L450.12 793.849C452.358 788.347 454.581 781.853 456.659 776.217L514.196 786.043C518.392 786.755 537.987 791.233 540.665 789.605C539.982 786.387 531.225 769.932 529.24 766.028C523.526 754.792 517.82 742.606 511.843 731.549C519.997 734.446 528.9 736.765 537.24 739.296C543.199 740.835 549.685 743.837 555.814 744.306C577.183 745.942 577.175 715.28 577.839 701.479C607.284 697.834 610.099 686.021 622.052 660.746Z" fill="white"/>
<path d="M241.946 611.84C244.059 612.052 252.75 614.441 254.596 615.197C259.144 617.058 286.077 622.799 287.321 625.888C286.8 629.885 284.695 637.337 283.64 641.484L276.026 671.257C273.656 680.627 258.246 746.572 255.824 749.571C248.626 748.79 207.83 720.674 198.093 716.407C191.393 713.47 180.171 704.367 172.38 701.647C168.212 715.477 162.844 729.225 158.665 743.1C158.108 744.948 156.948 748.418 155.278 749.344L154.523 748.749C153.876 744.42 168.155 706.804 169.877 699.585C170.141 698.476 169.674 693.716 169.704 692.488C169.862 685.984 167.709 667.428 169.206 661.81L169.858 661.462C174.15 662.779 184.665 668.238 189.157 670.43L225.492 688.163C231.346 662.803 236.831 637.359 241.946 611.84Z" fill="url(#paint3_linear_6364_1382)"/>
<path d="M244.305 615.289C255.136 617.638 273.149 623.408 284.152 626.559C275.143 666.329 263.926 706.57 254.551 746.435L211.526 721.066L187.833 707.072C183.192 704.325 177.035 700.905 172.785 697.82C171.849 689.306 172.095 674.769 171.545 665.295C183.456 670.004 196.898 677.724 208.654 683.11C212.91 685.06 223.023 690.743 227.139 691.358C229.246 688.775 242.594 623.378 244.305 615.289Z" fill="white"/>
<path d="M195.625 457.246C208.123 457.367 218.303 460.984 227.825 469.257C238.145 478.097 244.409 490.767 245.166 504.335C246.108 519.882 240.931 531.881 230.885 543.362C221.007 553.588 209.901 558.039 195.84 558.729C195.307 548.624 195.597 535.599 195.573 525.264L195.625 457.246Z" fill="white"/>
<path d="M787.799 346.876C788.999 342.254 798.765 318.359 797.713 316.461L795.666 316.198C795.181 314.896 795.258 315.577 795.777 314.095C797.321 313.289 799.999 313.685 801.428 314.607C802.201 317.498 793.23 338.726 791.74 343.413C831.194 337.304 874.218 331.288 913.248 323.224C926.659 343.869 928.298 356.836 923.548 381.762C922.699 386.216 921.154 393.468 918.897 397.079L917.992 397.609C915.141 395.18 898.699 365.518 893.573 358.811C878.42 360.565 781.705 380.637 777.487 379.726L777.283 378.96C778.503 377.507 779.798 377.37 781.653 376.816C782.052 369.451 789.17 355.615 791.12 347.786C790.464 346.942 789.242 347.087 787.799 346.876Z" fill="white"/>
<path d="M787.799 346.876C788.999 342.254 798.765 318.359 797.713 316.461L795.666 316.198C795.181 314.896 795.258 315.577 795.777 314.095C797.321 313.289 799.999 313.685 801.428 314.607C802.201 317.498 793.23 338.726 791.74 343.413C831.194 337.304 874.218 331.288 913.248 323.224C926.659 343.869 928.298 356.836 923.548 381.762C922.699 386.216 921.154 393.468 918.897 397.079L917.992 397.609C915.141 395.18 898.699 365.518 893.573 358.811C878.42 360.565 781.705 380.637 777.487 379.726L777.283 378.96C778.503 377.507 779.798 377.37 781.653 376.816C806.219 371.811 830.823 366.993 855.462 362.362C865.926 360.402 884.092 356.558 894.323 355.942C899.518 360.988 913.168 385.192 917.635 392.745C918.933 389.105 920.587 382.462 921.197 378.67C924.753 356.552 923.893 344.4 911.71 326.195C880.461 333.454 847.101 337.009 815.454 342.723C806.545 344.331 796.763 345.801 787.799 346.876Z" fill="#0B0539"/>
<path d="M409.014 467.789C411.198 470.619 421.773 510.84 423.419 517.297L410.582 517.361L395.832 517.264L409.014 467.789Z" fill="white"/>
<path d="M292.831 467.391C293.623 468.228 304.448 511.271 305.655 516.007L290.876 516.02L278.26 516.04C283.625 499.98 288.484 483.756 292.831 467.391Z" fill="white"/>
<path d="M82.1566 493.199C88.2702 492.216 94.4408 494.593 98.3145 499.424C102.188 504.255 103.168 510.795 100.879 516.549C98.5899 522.302 93.3861 526.383 87.2526 527.233C77.9114 528.528 69.2682 522.063 67.8717 512.737C66.4752 503.41 72.8458 494.697 82.1566 493.199Z" fill="#0B0539"/>
<path d="M84.0993 495.869C91.9705 495.446 98.7018 501.468 99.1544 509.337C99.607 517.207 93.6105 523.961 85.7427 524.443C77.8331 524.927 71.0357 518.892 70.5807 510.981C70.1256 503.07 76.1863 496.295 84.0993 495.869Z" fill="white"/>
<path d="M487.593 315.402C488.667 316.563 491.844 325.738 492.938 328.114C494.707 331.87 497.533 335.028 501.071 337.201C511.921 343.975 520.858 338.39 525.134 339.983C525.659 341.841 515.213 345.794 513.159 346.614C496.47 353.279 506.187 375.857 504.382 380.021L503.401 380.331L502.488 379.113C498.164 366 492.682 354 475.839 355.549C472.741 355.834 466.136 358.227 463.506 357.083C464.661 354.454 475.641 351.243 479.846 347.425C487.165 340.779 487.49 333.658 486.714 324.333C486.517 321.964 485.824 319.18 486.02 316.886C486.092 316.048 486.574 316.068 487.593 315.402Z" fill="#0B0539"/>
<path d="M490.014 329.82C490.71 330.528 492.621 333.26 493.486 334.232C499.462 340.942 503.742 342.823 512.415 343.579C503.801 349.3 501.227 352.633 499.789 362.964L499.668 363.267L499.157 363.457C498.823 363.049 498.484 362.645 498.141 362.245C492.015 355.068 487.46 352.96 478.279 352.296C486.796 345.142 489.695 341.267 490.014 329.82Z" fill="white"/>
<path d="M638.648 363.722C644.667 362.648 650.8 364.891 654.707 369.595C658.614 374.299 659.693 380.739 657.532 386.459C655.371 392.18 650.304 396.298 644.262 397.244C635.059 398.685 626.41 392.449 624.871 383.261C623.333 374.073 629.477 365.359 638.648 363.722Z" fill="#0B0539"/>
<path d="M638.983 366.644C646.658 365.166 654.073 370.204 655.528 377.883C656.982 385.563 651.922 392.963 644.238 394.394C636.588 395.819 629.226 390.785 627.778 383.139C626.33 375.493 631.341 368.116 638.983 366.644Z" fill="white"/>
<path d="M411.639 658.461C411.4 661.535 413.07 665.591 412.128 667.543L411.008 667.705C409.976 666.714 408.725 663.03 408.205 661.531C402.919 646.279 393.186 653.391 384.945 649.98L385.077 649.249C387.931 646.883 391.884 645.919 394.218 644.3C402.976 638.223 401.08 631.952 401.225 623.134C401.234 622.584 401.628 622.545 402.305 622.215C405.395 623.378 405.672 631.692 409.109 635.459C414.175 641.011 421.808 639.285 428.639 639.975L429.104 640.995L428.699 641.95L427.602 642.305C416.995 645.749 413.857 646.933 411.639 658.461Z" fill="#0B0539"/>
<path d="M404.506 632.855C404.987 633.591 405.478 634.319 405.98 635.04C409.524 640.097 413.013 641.658 418.848 642.696L419.788 641.944C424.026 643.758 424.666 641.507 427.603 642.302C416.996 645.746 413.858 646.93 411.64 658.458L409.221 657.154C405.221 650.319 401.061 648.254 393.379 648.378C400.435 643.227 402.013 640.994 404.506 632.855Z" fill="white"/>
<path d="M418.848 642.697L419.788 641.945C424.026 643.759 424.666 641.508 427.603 642.303C416.996 645.747 413.858 646.931 411.64 658.459L409.221 657.155C409.44 656.015 409.683 654.88 409.95 653.75C411.42 647.673 413.918 645.747 418.848 642.697Z" fill="#0B0539"/>
<path d="M849.707 386.706C852.159 386.517 854.409 385.901 856.251 387.82L855.856 388.573C851.002 390.302 811.333 391.737 803.622 392.055C801.81 392.24 797.57 392.803 796.146 391.944L795.904 390.847L796.525 389.926C801.49 389.04 811.771 388.822 817.136 388.553L849.707 386.706Z" fill="#0B0539"/>
<path d="M868.528 287.43C869.218 287.591 869.015 287.622 869.675 288.245L869.519 289.317C866.453 292.612 835.906 307.585 829.729 310.532L828.478 309.748L828.283 308.734C831.089 306.04 862.588 290.662 868.528 287.43Z" fill="#0B0539"/>
<path d="M830.154 258.887C830.362 258.97 831.233 259.62 831.451 259.776L831.502 260.816C828.853 263.698 799.996 280.152 795.205 282.654C793.96 282.416 794.394 282.596 793.389 281.799L793.508 280.651C796.203 278.498 802.585 275.073 805.769 273.236C813.985 268.603 822.114 263.819 830.154 258.887Z" fill="#0B0539"/>
<path d="M719.225 179.652L720.511 179.949C723.413 182.56 730.153 200.795 731.509 205.498C731.33 206.017 731.151 206.536 730.972 207.055C730.494 206.94 729.734 206.901 729.539 206.428C727.505 201.493 718.634 183.608 719.225 179.652Z" fill="#000004"/>
<path d="M216.74 567.55C210.947 567.55 205.777 566.23 201.23 563.59C196.757 560.877 193.2 557.21 190.56 552.59C187.993 547.97 186.71 542.763 186.71 536.97C186.71 531.103 187.957 525.86 190.45 521.24C192.943 516.62 196.353 512.99 200.68 510.35C205.007 507.637 209.993 506.28 215.64 506.28C220.113 506.28 224.22 507.16 227.96 508.92C231.773 510.68 235.11 513.32 237.97 516.84C238.777 517.72 239.07 518.673 238.85 519.7C238.63 520.653 238.007 521.497 236.98 522.23C236.173 522.817 235.257 523.037 234.23 522.89C233.277 522.67 232.433 522.12 231.7 521.24C227.447 516.4 222.093 513.98 215.64 513.98C211.533 513.98 207.903 514.97 204.75 516.95C201.67 518.93 199.25 521.643 197.49 525.09C195.803 528.537 194.96 532.497 194.96 536.97C194.96 541.37 195.877 545.293 197.71 548.74C199.543 552.187 202.11 554.9 205.41 556.88C208.71 558.86 212.487 559.85 216.74 559.85C219.6 559.85 222.203 559.483 224.55 558.75C226.97 557.943 229.097 556.733 230.93 555.12C231.81 554.387 232.727 553.983 233.68 553.91C234.633 553.837 235.513 554.13 236.32 554.79C237.2 555.597 237.677 556.513 237.75 557.54C237.897 558.567 237.567 559.447 236.76 560.18C231.407 565.093 224.733 567.55 216.74 567.55ZM259.61 567C258.29 567 257.227 566.633 256.42 565.9C255.687 565.093 255.32 564.03 255.32 562.71V511.01C255.393 509.763 255.797 508.773 256.53 508.04C257.337 507.233 258.363 506.83 259.61 506.83C260.857 506.83 261.847 507.233 262.58 508.04C263.387 508.773 263.79 509.8 263.79 511.12V532.02H287V533.56C290.813 533.56 294.187 534.257 297.12 535.65C300.127 537.043 302.437 538.987 304.05 541.48C305.737 543.9 306.58 546.687 306.58 549.84C306.58 553.213 305.737 556.183 304.05 558.75C302.437 561.317 300.127 563.333 297.12 564.8C294.187 566.267 290.813 567 287 567H259.61ZM263.79 559.19H287C290.3 559.19 293.013 558.347 295.14 556.66C297.267 554.973 298.33 552.553 298.33 549.4C298.33 546.1 297.267 543.607 295.14 541.92C293.013 540.16 290.3 539.28 287 539.28H263.79V559.19ZM276.11 536.75V532.02H287C289.567 532.02 291.657 531.177 293.27 529.49C294.883 527.803 295.69 525.64 295.69 523C295.69 520.653 294.81 518.673 293.05 517.06C291.363 515.373 289.2 514.53 286.56 514.53H259.72V506.83H286.56C289.933 506.83 292.903 507.527 295.47 508.92C298.11 510.24 300.163 512.073 301.63 514.42C303.17 516.767 303.94 519.48 303.94 522.56C303.94 527.327 302.327 530.883 299.1 533.23C295.947 535.577 291.913 536.75 287 536.75H276.11ZM348.235 567.55C342.295 567.55 337.015 566.267 332.395 563.7C327.848 561.06 324.255 557.43 321.615 552.81C319.048 548.19 317.765 542.91 317.765 536.97C317.765 530.957 318.975 525.677 321.395 521.13C323.888 516.51 327.298 512.88 331.625 510.24C335.951 507.6 340.938 506.28 346.585 506.28C352.158 506.28 356.998 507.563 361.105 510.13C365.285 512.623 368.511 516.107 370.785 520.58C373.058 525.053 374.195 530.15 374.195 535.87C374.195 537.043 373.828 537.997 373.095 538.73C372.361 539.39 371.408 539.72 370.235 539.72H323.485V532.68H371.115L366.385 536.09C366.458 531.837 365.688 528.023 364.075 524.65C362.461 521.277 360.151 518.637 357.145 516.73C354.211 514.823 350.691 513.87 346.585 513.87C342.405 513.87 338.738 514.86 335.585 516.84C332.431 518.82 329.975 521.57 328.215 525.09C326.528 528.537 325.685 532.497 325.685 536.97C325.685 541.443 326.638 545.403 328.545 548.85C330.525 552.297 333.201 555.01 336.575 556.99C339.948 558.97 343.835 559.96 348.235 559.96C350.875 559.96 353.515 559.52 356.155 558.64C358.868 557.687 361.031 556.513 362.645 555.12C363.451 554.46 364.368 554.13 365.395 554.13C366.421 554.057 367.301 554.313 368.035 554.9C368.988 555.78 369.465 556.733 369.465 557.76C369.538 558.787 369.135 559.667 368.255 560.4C365.835 562.453 362.755 564.177 359.015 565.57C355.275 566.89 351.681 567.55 348.235 567.55ZM469.813 567C468.566 567 467.54 566.633 466.733 565.9C465.926 565.093 465.523 564.067 465.523 562.82V531.14C465.523 525.933 464.166 521.827 461.453 518.82C458.74 515.74 455.256 514.2 451.003 514.2C446.456 514.2 442.716 515.74 439.783 518.82C436.923 521.827 435.53 525.86 435.603 530.92H428.013C428.086 526.007 429.15 521.68 431.203 517.94C433.256 514.2 436.08 511.303 439.673 509.25C443.266 507.197 447.336 506.17 451.883 506.17C456.21 506.17 460.023 507.197 463.323 509.25C466.696 511.303 469.3 514.2 471.133 517.94C473.04 521.68 473.993 526.08 473.993 531.14V562.82C473.993 564.067 473.59 565.093 472.783 565.9C472.05 566.633 471.06 567 469.813 567ZM392.813 567C391.493 567 390.43 566.633 389.623 565.9C388.89 565.093 388.523 564.067 388.523 562.82V511.12C388.523 509.873 388.89 508.847 389.623 508.04C390.43 507.233 391.493 506.83 392.813 506.83C394.06 506.83 395.05 507.233 395.783 508.04C396.59 508.847 396.993 509.873 396.993 511.12V562.82C396.993 564.067 396.59 565.093 395.783 565.9C395.05 566.633 394.06 567 392.813 567ZM431.423 567C430.176 567 429.15 566.633 428.343 565.9C427.536 565.093 427.133 564.067 427.133 562.82V531.14C427.133 525.933 425.776 521.827 423.063 518.82C420.35 515.74 416.866 514.2 412.613 514.2C408.066 514.2 404.326 515.703 401.393 518.71C398.46 521.643 396.993 525.493 396.993 530.26H390.943C391.09 525.567 392.116 521.423 394.023 517.83C396.003 514.163 398.68 511.303 402.053 509.25C405.426 507.197 409.24 506.17 413.493 506.17C417.82 506.17 421.633 507.197 424.933 509.25C428.306 511.303 430.91 514.2 432.743 517.94C434.65 521.68 435.603 526.08 435.603 531.14V562.82C435.603 564.067 435.2 565.093 434.393 565.9C433.66 566.633 432.67 567 431.423 567ZM520.112 567.55C514.246 567.55 509.002 566.23 504.382 563.59C499.762 560.95 496.132 557.32 493.492 552.7C490.852 548.08 489.532 542.837 489.532 536.97C489.532 531.03 490.852 525.75 493.492 521.13C496.132 516.51 499.762 512.88 504.382 510.24C509.002 507.6 514.246 506.28 520.112 506.28C525.979 506.28 531.186 507.6 535.732 510.24C540.352 512.88 543.982 516.51 546.622 521.13C549.262 525.75 550.619 531.03 550.692 536.97C550.692 542.837 549.336 548.08 546.622 552.7C543.982 557.32 540.352 560.95 535.732 563.59C531.186 566.23 525.979 567.55 520.112 567.55ZM520.112 559.85C524.366 559.85 528.179 558.86 531.552 556.88C534.926 554.9 537.566 552.187 539.472 548.74C541.379 545.293 542.332 541.37 542.332 536.97C542.332 532.57 541.379 528.647 539.472 525.2C537.566 521.68 534.926 518.93 531.552 516.95C528.179 514.97 524.366 513.98 520.112 513.98C515.859 513.98 512.046 514.97 508.672 516.95C505.299 518.93 502.622 521.68 500.642 525.2C498.736 528.647 497.782 532.57 497.782 536.97C497.782 541.37 498.736 545.293 500.642 548.74C502.622 552.187 505.299 554.9 508.672 556.88C512.046 558.86 515.859 559.85 520.112 559.85ZM613.916 565.9C613.182 566.633 612.192 567 610.946 567C609.772 567 608.819 566.597 608.086 565.79L581.796 536.97L606.986 508.15C607.719 507.343 608.636 506.903 609.736 506.83C610.836 506.757 611.789 507.05 612.596 507.71C613.476 508.517 613.952 509.433 614.026 510.46C614.099 511.413 613.769 512.33 613.036 513.21L592.356 536.53L614.136 560.51C614.869 561.317 615.236 562.233 615.236 563.26C615.236 564.213 614.796 565.093 613.916 565.9ZM571.236 567C569.989 567 568.999 566.633 568.266 565.9C567.532 565.093 567.166 564.067 567.166 562.82V511.12C567.166 509.8 567.532 508.773 568.266 508.04C568.999 507.233 569.989 506.83 571.236 506.83C572.556 506.83 573.582 507.233 574.316 508.04C575.122 508.773 575.526 509.8 575.526 511.12V532.9H588.946V540.6H575.526V562.82C575.526 564.067 575.122 565.093 574.316 565.9C573.582 566.633 572.556 567 571.236 567ZM649.965 567.55C644.318 567.55 639.258 566.23 634.785 563.59C630.311 560.877 626.755 557.21 624.115 552.59C621.548 547.97 620.265 542.763 620.265 536.97C620.265 531.103 621.585 525.86 624.225 521.24C626.938 516.62 630.605 512.99 635.225 510.35C639.845 507.637 645.051 506.28 650.845 506.28C656.638 506.28 661.808 507.637 666.355 510.35C670.975 512.99 674.605 516.62 677.245 521.24C679.958 525.86 681.351 531.103 681.425 536.97L678.015 539.61C678.015 544.89 676.768 549.657 674.275 553.91C671.855 558.09 668.518 561.427 664.265 563.92C660.085 566.34 655.318 567.55 649.965 567.55ZM650.845 559.85C655.098 559.85 658.875 558.86 662.175 556.88C665.548 554.9 668.188 552.187 670.095 548.74C672.075 545.22 673.065 541.297 673.065 536.97C673.065 532.57 672.075 528.647 670.095 525.2C668.188 521.753 665.548 519.04 662.175 517.06C658.875 515.007 655.098 513.98 650.845 513.98C646.665 513.98 642.888 515.007 639.515 517.06C636.141 519.04 633.465 521.753 631.485 525.2C629.505 528.647 628.515 532.57 628.515 536.97C628.515 541.297 629.505 545.22 631.485 548.74C633.465 552.187 636.141 554.9 639.515 556.88C642.888 558.86 646.665 559.85 650.845 559.85ZM677.135 567C675.888 567 674.861 566.633 674.055 565.9C673.248 565.093 672.845 564.067 672.845 562.82V544.01L674.935 535.32L681.425 536.97V562.82C681.425 564.067 681.021 565.093 680.215 565.9C679.408 566.633 678.381 567 677.135 567ZM724.408 567.55C718.615 567.55 713.481 566.267 709.008 563.7C704.535 561.06 701.015 557.43 698.448 552.81C695.955 548.19 694.708 542.91 694.708 536.97C694.708 530.957 696.028 525.64 698.668 521.02C701.308 516.4 704.938 512.807 709.558 510.24C714.178 507.6 719.421 506.28 725.288 506.28C731.228 506.28 736.471 507.6 741.018 510.24C745.638 512.807 749.231 516.4 751.798 521.02C754.438 525.64 755.795 530.957 755.868 536.97L750.918 539.61C750.918 545.037 749.781 549.877 747.508 554.13C745.235 558.31 742.081 561.61 738.048 564.03C734.088 566.377 729.541 567.55 724.408 567.55ZM725.508 590.76C719.715 590.76 714.618 589.66 710.218 587.46C705.818 585.333 702.188 582.4 699.328 578.66C698.521 577.78 698.155 576.827 698.228 575.8C698.375 574.773 698.925 573.93 699.878 573.27C700.831 572.61 701.895 572.39 703.068 572.61C704.241 572.83 705.158 573.38 705.818 574.26C707.945 576.9 710.658 579.027 713.958 580.64C717.331 582.253 721.218 583.06 725.618 583.06C729.725 583.06 733.428 582.07 736.728 580.09C740.028 578.11 742.631 575.323 744.538 571.73C746.518 568.137 747.508 563.92 747.508 559.08V542.36L750.698 535.98L755.868 536.97V559.41C755.868 565.35 754.548 570.667 751.908 575.36C749.268 580.127 745.675 583.867 741.128 586.58C736.581 589.367 731.375 590.76 725.508 590.76ZM725.288 559.85C729.615 559.85 733.428 558.897 736.728 556.99C740.101 555.01 742.741 552.297 744.648 548.85C746.555 545.403 747.508 541.443 747.508 536.97C747.508 532.497 746.555 528.537 744.648 525.09C742.741 521.57 740.101 518.857 736.728 516.95C733.428 514.97 729.615 513.98 725.288 513.98C720.961 513.98 717.111 514.97 713.738 516.95C710.365 518.857 707.725 521.57 705.818 525.09C703.911 528.537 702.958 532.497 702.958 536.97C702.958 541.443 703.911 545.403 705.818 548.85C707.725 552.297 710.365 555.01 713.738 556.99C717.111 558.897 720.961 559.85 725.288 559.85ZM776.631 592.74C775.311 592.74 774.248 592.337 773.441 591.53C772.708 590.797 772.341 589.77 772.341 588.45V536.53C772.415 530.81 773.771 525.677 776.411 521.13C779.125 516.51 782.755 512.88 787.301 510.24C791.921 507.6 797.091 506.28 802.811 506.28C808.678 506.28 813.921 507.637 818.541 510.35C823.161 512.99 826.791 516.62 829.431 521.24C832.145 525.86 833.501 531.103 833.501 536.97C833.501 542.763 832.181 547.97 829.541 552.59C826.975 557.21 823.455 560.877 818.981 563.59C814.508 566.23 809.448 567.55 803.801 567.55C798.888 567.55 794.415 566.523 790.381 564.47C786.421 562.343 783.231 559.557 780.811 556.11V588.45C780.811 589.77 780.408 590.797 779.601 591.53C778.868 592.337 777.878 592.74 776.631 592.74ZM802.811 559.85C807.065 559.85 810.878 558.86 814.251 556.88C817.625 554.9 820.265 552.187 822.171 548.74C824.151 545.22 825.141 541.297 825.141 536.97C825.141 532.57 824.151 528.647 822.171 525.2C820.265 521.753 817.625 519.04 814.251 517.06C810.878 515.007 807.065 513.98 802.811 513.98C798.631 513.98 794.855 515.007 791.481 517.06C788.108 519.04 785.468 521.753 783.561 525.2C781.655 528.647 780.701 532.57 780.701 536.97C780.701 541.297 781.655 545.22 783.561 548.74C785.468 552.187 788.108 554.9 791.481 556.88C794.855 558.86 798.631 559.85 802.811 559.85Z" fill="black"/>
</g>
<defs>
<linearGradient id="paint0_linear_6364_1382" x1="272.639" y1="200.142" x2="266.451" y2="161.423" gradientUnits="userSpaceOnUse">
<stop/>
<stop offset="1" stop-color="#000016"/>
</linearGradient>
<linearGradient id="paint1_linear_6364_1382" x1="1005.47" y1="809.011" x2="768.804" y2="691.165" gradientUnits="userSpaceOnUse">
<stop/>
<stop offset="1" stop-color="#090619"/>
</linearGradient>
<linearGradient id="paint2_linear_6364_1382" x1="577.977" y1="56.0265" x2="732.634" y2="335.862" gradientUnits="userSpaceOnUse">
<stop stop-color="#000002"/>
<stop offset="1" stop-color="#03011C"/>
</linearGradient>
<linearGradient id="paint3_linear_6364_1382" x1="273.003" y1="712.49" x2="169.899" y2="661.689" gradientUnits="userSpaceOnUse">
<stop stop-color="#000005"/>
<stop offset="1" stop-color="#050223"/>
</linearGradient>
<clipPath id="clip0_6364_1382">
<rect width="1024" height="1024" fill="white"/>
</clipPath>
</defs>
</svg>
