<svg width="1024" height="1024" viewBox="0 0 1024 1024" fill="none" xmlns="http://www.w3.org/2000/svg">
<path d="M384.317 262.061C387.615 259.479 390.884 256.744 394.063 254.014C432.088 221.362 468.894 187.495 507.513 155.543C508.54 165.977 507.564 178.815 507.64 189.439C507.737 202.811 507.777 216.233 507.961 229.603C509.574 228.265 509.255 228.091 510.977 227.901C512.217 229.008 512.243 229.587 512.73 231.168C513.303 225.114 513.027 217.192 513.167 210.948C513.576 192.615 512.936 174.39 513.056 156.024C539.448 177.191 566.865 201.403 592.77 223.629L622.549 249.119C626.683 252.676 633.693 258.401 637.393 262.075C636.688 285.542 637.778 309.035 637.525 332.522C637.49 335.708 637.405 339.331 637.607 342.464C638.88 343.714 642.207 347.155 643.426 348.162C652.04 354.088 660.902 361.368 669.078 367.919C683.438 379.641 697.951 391.173 712.614 402.513L712.792 459.426C712.84 467.918 713.231 479.103 712.842 487.273L803.072 547.041C815.637 555.403 832.593 567.613 845.073 574.955C844.357 589.535 844.986 608.724 844.987 623.771L844.879 708.296C853.354 709.285 925.342 720.244 927.61 722.74C912.992 723.507 896.794 722.906 881.985 723.116C842.166 723.872 802.342 724.331 762.516 724.494C615.96 726.026 469.393 726.218 322.834 725.072C272.477 724.205 222.116 723.668 171.752 723.462L126.774 723.045C117.227 722.902 103.453 722.164 94.2051 723.364C98.3241 721.72 105.7 720.128 110.178 719.132C122.916 716.416 135.724 714.031 148.586 711.98C156.696 710.629 171.013 707.993 178.96 707.347L178.947 574.625L268.943 513.798L296.333 495.394C300.957 492.299 307.405 488.245 311.611 484.948C311.362 457.478 312.035 429.333 311.296 401.806C327.643 390.521 344.939 375.303 361.304 363.622C366.395 359.988 371.882 355.234 377.045 351.844C378.146 366.829 377.041 384.658 377.196 400.278L379.03 504.915L379.854 548.504C379.91 551.148 379.51 556.871 379.629 558.812C379.191 567.86 379.852 578.414 380.046 587.629C380.38 603.661 380.56 619.696 380.587 635.732C380.471 642.225 380.467 648.72 380.577 655.214C380.532 657.667 380.095 664.903 381.305 666.671C381.699 663.227 381.594 659.842 381.576 656.377L381.464 652.657C381.8 623.567 381.449 594.421 382.273 565.434C382.828 544.748 382.597 523.294 382.953 502.461C384.125 422.334 384.58 342.197 384.317 262.061ZM398.502 501.561C398.457 504.948 397.967 523.043 398.896 525.274L398.596 526.552C397.842 530.65 398.346 542.234 398.606 546.595C412.451 538.874 425.786 530.552 439.383 522.407C455.51 512.748 471.564 503.287 487.188 492.811L486.967 470.692C479.808 474.217 464.732 484.439 457.213 489.208L456.334 488.556C464.791 482.978 479.496 473.872 487.037 467.91C487.081 458.456 487.314 447.926 486.956 438.555C467.22 452.073 447.674 465.866 428.324 479.932C419.619 486.195 406.504 494.973 398.502 501.561ZM399.694 612.039L451.438 589.376C462.56 584.449 476.312 578.538 487.02 572.93C487.05 569.538 487.532 552.231 486.511 550.547L486.024 550.437C456.804 564.13 427.973 579.564 398.492 593.228C398.449 596.404 397.964 609.62 398.968 611.905L399.694 612.039ZM469.953 605.814C470.307 617.483 469.163 694.41 470.616 697.252C471.3 697.38 471.689 697.506 472.375 697.496L486.924 697.552C486.288 693.168 486.843 676.699 486.86 671.395L486.702 615.807C486.664 612.786 486.912 601.123 486.355 599.048C480.827 601.115 475.386 603.501 469.953 605.814ZM435.169 662.043C427.924 664.313 419.803 667.031 412.512 669.022C412.488 672.933 411.945 696.276 413.091 698.334L414.375 698.534C421.874 698.415 429.372 698.204 436.866 697.902C436.875 692.569 437.033 665.828 436.2 662.013L435.169 662.043ZM398.449 634.745C398.45 639.07 397.589 667.23 399.079 668.937L399.391 669.008L410.502 665.159C410.506 660.545 410.912 634.049 409.837 631.305L409.534 631.054C406.165 632.192 401.793 633.815 398.449 634.745ZM463.005 648.084C462.668 639.276 462.893 630.69 462.899 621.899C462.9 619.333 463.147 611.852 462.792 609.631C462.492 609.588 461.847 609.47 461.578 609.49C454.202 612.576 445.893 616.132 438.437 618.883C438.226 623.194 438.257 653.849 438.961 655.464L439.611 655.638C447.344 652.924 455.145 650.406 463.005 648.084ZM410.429 698.868C410.439 695.286 410.871 671.598 409.914 670.096L409.609 670.029C405.951 671.111 402.127 672.311 398.46 673.299C398.415 677.387 397.543 697.088 399.582 699.019L410.429 698.868ZM413.6 664.054C421.379 661.688 428.934 658.919 436.742 656.643C436.461 650.17 437.172 625.405 436.025 620.977C435.739 620.789 435.453 620.602 435.167 620.415C427.608 623.576 419.635 627.077 412.047 630.055C412.068 637.536 411.683 657.601 412.632 664.223C412.955 664.167 413.277 664.111 413.6 664.054ZM487.021 547.455C487.065 543.858 487.714 521.67 486.389 520.461C464.156 531.814 443.058 544.632 421.306 556.817C414.359 560.708 405.543 565.922 398.516 569.387C398.488 572.699 397.961 588.443 399.157 590.477C426.383 578.286 452.999 564.146 479.828 551.07C482.219 549.905 484.611 548.546 487.021 547.455ZM439.906 697.668C447.573 697.547 455.241 697.503 462.909 697.534C462.715 691.787 463.377 655.756 462.204 653.732L462.063 653.627C454.28 656.085 446.296 658.719 438.422 660.785C438.445 665.723 437.879 695.319 439.429 697.521L439.906 697.668Z" fill="black"/>
<path d="M508.765 375.418C509.806 385.336 508.248 389.806 510.903 400.346C511.292 397.656 511.686 392.737 512.574 390.507C513.249 395.435 513.079 404.173 513.019 409.4C512.944 416.053 513.146 423.638 512.903 430.222C513.239 447.455 512.842 465.524 512.699 482.791L512.461 548.749C511.711 551.34 512.026 557.093 511.893 559.994C511.427 570.117 512.796 583.298 511.327 593.147L511.047 593.066C509.697 576.734 512.14 555.952 509.647 540.343L509.562 539.838C509.555 504.382 507.741 466.968 508.603 431.721C508.122 414.445 508.064 392.421 508.765 375.418Z" fill="#746E67"/>
<path d="M508.765 375.418C509.806 385.336 508.248 389.806 510.903 400.346C511.292 397.656 511.686 392.737 512.574 390.507C513.249 395.435 513.079 404.173 513.019 409.4C512.944 416.053 513.146 423.638 512.903 430.222C511.277 438.425 512.716 452.265 512.158 461.087C511.95 457.27 512.209 440.001 511.44 437.94C507.751 440.2 510.227 458.819 509.349 463.689C509.246 458.889 509.329 434.514 508.603 431.721C508.122 414.445 508.064 392.421 508.765 375.418Z" fill="#C9C7C5"/>
<path d="M507.961 229.604C509.574 228.266 509.255 228.092 510.977 227.902C512.217 229.009 512.243 229.588 512.73 231.169C511.921 240.622 512.643 255.325 512.582 265.374L512.457 340.544C512.421 350.241 512.745 361.169 512.401 370.743C510.902 371.099 509.537 371.404 508.065 371.881C508.915 360.275 507.446 346.511 507.805 334.602C508.854 299.845 506.716 264.259 507.961 229.604Z" fill="#C9C7C5"/>
<path d="M643.426 348.163C642.344 365.014 644.421 451.672 641.446 458.711C641.047 459.656 641.294 459.329 640.286 459.768C638.798 458.471 638.056 455.862 638.059 453.941C638.112 416.819 637.425 379.582 637.607 342.465C638.88 343.715 642.207 347.156 643.426 348.163Z" fill="#DFDEDF"/>
<path d="M512.401 370.742C520.849 376.414 529.274 382.499 537.44 388.583C551.937 399.384 566.987 409.582 581.483 420.347L579.73 421.652C559.265 407.496 533.634 388.272 513.035 375.511C512.798 380.506 512.644 385.505 512.575 390.506C511.687 392.736 511.293 397.655 510.904 400.345C508.249 389.805 509.807 385.335 508.766 375.417C499.628 381.641 490.572 387.984 481.599 394.445L480.371 392.797L508.065 371.88C509.537 371.403 510.902 371.098 512.401 370.742Z" fill="url(#paint0_linear_6361_1053)"/>
<path d="M509.563 539.84L509.648 540.345C512.141 555.954 509.698 576.736 511.048 593.068L511.328 593.149C512.797 583.3 511.428 570.119 511.894 559.996C512.027 557.095 511.712 551.342 512.462 548.751C513.342 557.931 512.861 572.484 512.796 582.132C512.739 599.313 512.544 616.493 512.211 633.671C510.922 628.247 513.555 601.792 510.869 598.586C510.089 600.172 511.019 627.113 510.931 631.709C510.233 629.087 509.985 605.286 509.997 601.136C510.052 581.175 508.783 559.632 509.563 539.84Z" fill="#3C2A16"/>
<path d="M398.211 454.421C414.258 440.818 433.846 428.854 450.374 415.523C459.869 407.865 470.473 399.93 480.371 392.797L481.599 394.445C479.578 396.809 460.4 409.927 456.431 412.797L424.619 435.977C416.505 441.974 406.826 449.509 398.211 454.421Z" fill="#C9C7C5"/>
<path d="M581.483 420.348L630.566 455.636C636.882 460.188 649.189 469.565 655.57 473.265C650.48 471.712 648.645 469.374 644.362 466.393L623.128 451.804C609.401 442.372 592.881 431.498 579.73 421.653L581.483 420.348Z" fill="#C8C8C8"/>
<path d="M259.775 710.086L524.981 709C565.291 708.861 605.601 708.644 645.913 708.648C685.369 708.651 724.442 710.655 763.781 711.627C768.334 711.754 773.262 711.843 777.724 712.628C772.926 713.158 765.921 712.973 760.967 712.964L734.073 712.907L702.779 712.86C698.372 712.836 690.59 712.985 686.491 712.582C640.293 713.068 593.046 712.501 546.76 712.383L250.492 710.906C253.774 710.741 256.532 710.66 259.775 710.086Z" fill="#C9C7C5"/>
<path d="M763.78 711.629C768.333 711.756 773.261 711.845 777.723 712.63C772.925 713.16 765.92 712.975 760.966 712.966L734.072 712.909L702.778 712.862C698.371 712.838 690.589 712.987 686.49 712.584C691.152 712.143 699.058 712.334 703.922 712.325L741.866 712.398C748.205 712.419 757.41 712.704 763.501 712.204L763.78 711.629Z" fill="#746E67"/>
<path d="M537.755 663.934L557.983 667.231L557.856 695.596L537.586 695.474C537.778 684.962 537.834 674.448 537.755 663.934Z" fill="#C9C7C5"/>
<path d="M691.001 483.672C692.445 484.013 691.98 483.732 693.022 484.713C693.464 487.342 693.235 498.912 693.238 502.588L693.243 543.71C693.255 575.806 693.084 607.903 692.731 639.997C692.551 656.035 692.691 676.135 691.735 691.977C690.634 689.299 690.756 675.036 690.709 671.45L690.42 626.398C690.009 593.337 689.851 560.274 689.948 527.211C689.917 513.872 689.527 500.581 689.539 487.254C689.54 485.673 690.116 484.911 691.001 483.672Z" fill="#C9C7C5"/>
<path d="M566.801 668.332C572.89 669.079 579.862 670.576 585.984 671.754L585.978 696.435C580.208 696.059 572.682 696.207 566.768 696.181L566.801 668.332Z" fill="#C9C7C5"/>
<path d="M600.522 674.371C606.022 674.857 612.01 675.952 617.502 676.835L617.494 697.073L600.506 697.05L600.522 674.371Z" fill="#C9C7C5"/>
<path d="M663.895 582.064C663.275 574.585 662.811 501.68 664.32 497.055C665.776 496.228 665.069 496.257 666.454 496.553C667.133 497.886 667.178 498.901 667.148 500.379C666.57 528.321 666.721 556.29 666.42 584.239C666.391 586.952 666.498 590.577 666.072 593.218C666.196 598.576 666.107 603.702 666.013 609.054C665.702 608.828 664.458 608.212 664.044 607.994C663.935 599.445 663.708 590.585 663.895 582.064Z" fill="url(#paint1_linear_6361_1053)"/>
<path d="M663.894 582.065C664.121 580.573 664.998 572.244 665.172 571.777C665.333 575.696 665.562 589.951 666.071 593.219C666.195 598.577 666.106 603.703 666.012 609.055C665.701 608.829 664.457 608.213 664.043 607.995C663.934 599.446 663.707 590.586 663.894 582.065Z" fill="#C8C8C8"/>
<path d="M330.848 481.906C332.455 490.442 332.057 498.402 332.029 507.072C331.995 518.689 331.877 530.305 331.676 541.919L330.899 659.009C331.427 663.439 331.459 691.648 330.726 696.439L330.232 696.298C329.682 690.617 329.988 679.945 329.985 673.983L329.986 631.326L330.039 562.674C330.022 548.975 329.736 534.615 330.066 520.988C329.967 511.308 329.25 491.915 330.677 483.008L330.78 482.319L330.848 481.906Z" fill="#C9C7C5"/>
<path d="M330.066 520.988C330.96 528.86 330.347 543.447 330.438 551.862L330.664 629.739C330.675 636.081 330.293 653.554 330.899 659.009C331.427 663.439 331.459 691.648 330.726 696.439L330.232 696.298C329.682 690.617 329.988 679.945 329.985 673.983L329.986 631.326L330.039 562.674C330.022 548.975 329.736 534.615 330.066 520.988Z" fill="#746E67"/>
<path d="M255.693 534.328C256.959 535.552 257.118 538.322 257.098 540.006C256.885 557.674 256.506 575.314 256.63 592.988C256.928 614.575 256.895 636.166 256.532 657.753C256.422 671.79 256.771 684.559 255.763 698.607L255.278 698.534C254.646 691.506 255.047 678.109 255.074 670.673C255.129 655.617 255.09 640.561 254.957 625.506L254.537 572.612C254.449 561.458 253.784 544.77 255.693 534.328Z" fill="#C9C7C5"/>
<path d="M673.079 548.717C672.756 538.908 673.023 529.065 673.028 519.249C673.033 509.423 672.615 499.648 673.839 489.875C675.774 501.681 674.635 520.65 674.613 533.392L674.454 614.141C674.757 631.161 674.746 648.185 674.419 665.205C674.53 669.733 675.299 679.825 673.619 683.451L673.56 681.012C672.923 667.3 673.339 653.182 673.241 639.4C673.029 609.173 672.975 578.945 673.079 548.717Z" fill="#F0E1D2"/>
<path d="M673.081 548.719C674.772 556.023 672.409 613.197 674.188 614.313L674.456 614.143C674.759 631.163 674.748 648.187 674.421 665.207C674.532 669.735 675.301 679.827 673.621 683.453L673.562 681.014C672.925 667.302 673.341 653.184 673.243 639.402C673.031 609.175 672.977 578.947 673.081 548.719Z" fill="#C8C8C8"/>
<path d="M673.561 681.01C674.233 676.346 673.04 670.05 674.42 665.203C674.531 669.731 675.3 679.823 673.62 683.449L673.561 681.01Z" fill="#7F7F7F"/>
<path d="M629.465 678.383C634.281 679.418 639.132 680.139 643.996 680.912L643.989 697.983L629.436 697.973L629.465 678.383Z" fill="#C9C7C5"/>
<path d="M265.561 691.702L265.41 601.016C265.376 590.809 263.834 533.863 266.005 528.348L266.66 528.366C268.027 530.868 267.467 545.881 267.454 549.789L267.237 584.96C266.782 620.847 265.975 658.574 266.49 694.436L265.561 691.702Z" fill="#C9C7C5"/>
<path d="M759.196 526.887C761.668 537.872 760.344 570.953 760.205 583.865L759.967 647.803C759.897 662.631 759.52 679.762 759.956 694.454L759.102 694.1L758.46 581.693C758.387 568.695 757.257 538.061 759.196 526.887Z" fill="#EFEFF0"/>
<path d="M681.028 655.568C681.545 643.152 680.98 626.625 680.93 613.999L680.608 528.227C680.607 520.029 679.753 495.67 681.519 489.309L681.977 489.141C682.84 494.069 682.607 504.27 682.578 509.455L682.485 537.193C682.365 575.93 681.633 615.542 681.969 654.214L681.028 655.568Z" fill="#EFEFF0"/>
<path d="M239.12 544.359C240.593 546.161 240.075 562.37 240.076 565.721L240.038 600.21C239.937 633.353 240.046 668.033 239.254 701.105C238.484 699.725 238.587 696.166 238.582 694.49C238.429 645.479 238.367 596.455 238.529 547.446C238.533 546.259 238.78 545.464 239.12 544.359Z" fill="#EFEFF0"/>
<path d="M532.117 363.6C532.682 349.787 532.041 331.564 532.002 317.349L531.94 229.003C531.941 223.057 531.412 192.919 532.706 189.863C534.052 196.328 533.253 222.092 533.209 230.049L533.115 318.321L532.854 348.184C532.815 352.465 532.525 359.928 532.922 363.944L532.117 363.6Z" fill="#C9C7C5"/>
<path d="M824.08 673.737C823.914 652.329 823.893 630.919 824.016 609.51C824.08 598.329 823.836 583.14 824.67 572.23C826.346 574.91 825.467 682.322 825.422 692.899C825.778 695.845 825.562 702.796 824.913 705.685C823.899 698.941 823.899 680.813 824.08 673.737Z" fill="#C9C7C5"/>
<path d="M824.082 673.734C824.726 677.954 824.089 691.033 825.424 692.896C825.78 695.842 825.564 702.793 824.915 705.682C823.901 698.938 823.901 680.81 824.082 673.734Z" fill="#746E67"/>
<path d="M767.532 690.501C767.929 674.008 766.281 538.577 768.096 534.523C769.309 543.74 768.989 566.09 768.974 576.124L768.459 653.593C768.403 664.025 767.848 680.307 768.433 690.495L767.532 690.501Z" fill="#DFDEDF"/>
<path d="M792.073 690.587L791.526 586.999C791.516 582.075 791.082 553.619 792.144 550.293C793.453 558.99 793.124 579.359 793.132 588.823L792.991 656.813C792.964 666.347 792.442 681.683 792.976 690.951L792.073 690.587Z" fill="#C9C7C5"/>
<path d="M597.608 244.852C599.136 246.64 598.578 262.148 598.579 265.936L598.442 305.138C598.252 333.009 597.904 360.752 598.375 388.632C598.451 393.113 597.854 397.567 597.749 402.037L597.604 402.028L597.195 401.534C598.188 392.037 597.384 373.674 597.266 363.511L596.993 292.042C596.925 278.707 596.209 257.471 597.608 244.852Z" fill="#746E67"/>
<path d="M247.271 537.473C248.911 547.155 248.016 572.085 247.738 582.866C247.491 595.613 247.415 608.363 247.512 621.112L247.483 654.749C247.265 654.896 247.452 654.807 246.659 654.945C246.101 653.154 246.581 643.865 246.108 640.237C245.461 622.879 245.959 600.807 246.091 583.212C245.767 570.986 245.195 548.738 247.271 537.473Z" fill="#EFEFF0"/>
<path d="M246.091 583.215C247.234 588.147 246.126 621.954 246.943 622.543L247.512 621.115L247.483 654.752C247.265 654.899 247.452 654.81 246.659 654.948C246.101 653.157 246.581 643.868 246.108 640.24C245.461 622.882 245.959 600.81 246.091 583.215Z" fill="#DFDEDF"/>
<path d="M215.191 559.969C216.594 566.522 216.176 571.76 216.064 578.409C215.771 595.862 216.257 613.235 215.864 630.699C216.215 651.044 215.159 674.365 216.032 694.046L215.054 694.317C215.109 685.573 214.669 675.931 214.586 667.058C214.451 642.785 214.462 618.511 214.62 594.238C214.506 586.12 213.953 567.605 215.191 559.969Z" fill="#C9C7C5"/>
<path d="M215.191 559.969C216.594 566.522 216.176 571.76 216.064 578.409C215.771 595.862 216.257 613.235 215.864 630.699C215.181 632.722 215.295 633.823 215.24 635.994C214.807 625.191 215.038 614.391 215.035 603.583C215.034 600.46 215.051 597.339 214.62 594.238C214.506 586.12 213.953 567.605 215.191 559.969Z" fill="#F0E1D2"/>
<path d="M545.626 201.844C547.458 203.375 546.688 227.595 546.681 231.438L546.511 334.535C546.499 341.975 547.131 375.737 545.756 379.875C545.288 347.254 545.53 314.125 545.5 281.469C545.25 254.928 545.292 228.384 545.626 201.844Z" fill="#7F7F7F"/>
<path d="M231.494 688.115C231.625 654.737 230.701 621.132 231.122 587.749C231.22 580.009 230.851 557.552 232.257 550.734C233.606 552.568 232.548 575.119 232.531 579.351L232.593 653.151C232.613 664.734 232.283 677.831 232.546 689.242L231.494 688.115Z" fill="#EFEFF0"/>
<path d="M832.667 689.25C831.972 666.886 832.201 644.857 832.317 622.498C832.374 611.537 831.796 600.502 832.299 589.504C832.509 584.913 832.156 579.902 833.23 575.453C834.498 586.467 833.986 602.22 833.988 613.703L833.927 678.736C833.645 681.086 833.556 688.077 832.926 689.221L832.667 689.25Z" fill="#746E67"/>
<path d="M781.016 698.006C781.556 674.832 780.652 650.396 781.022 627.235C781.176 617.601 780.071 544.048 781.532 542.77C782.634 545.627 782.246 573.932 782.255 578.976L781.97 697.039L781.016 698.006Z" fill="#EFEFF0"/>
<path d="M220.126 557.375C221.164 558.675 221.153 559.621 221.158 561.373C221.295 607.11 221.789 653.32 220.738 699.036L220.332 698.98C219.661 691.261 220.063 676.116 220.066 667.943L219.972 613.609C219.975 602.204 219.906 590.798 219.764 579.393C219.709 574.008 219.349 562.302 220.126 557.375Z" fill="#DFDEDF"/>
<path d="M475.085 366.97C475.416 364.237 475.163 356.306 475.148 353.072L475.028 325.082L474.784 230.6C474.779 226.405 474.461 203.473 475.251 200.887C477.277 203.782 475.118 348.989 475.897 366.069L475.085 366.97Z" fill="#7F7F7F"/>
<path d="M409.061 401.922C408.951 391.009 408.222 259.229 409.089 258.059C410.762 267.427 409.969 297.108 409.958 308.403L409.971 405.953C409.818 404.324 409.512 403.466 409.061 401.922Z" fill="#7F7F7F"/>
<path d="M828.529 690.071C828.01 662.844 827.79 635.612 827.87 608.38C827.866 603.067 827.687 577.979 828.536 574.234L829.049 574.444C830.368 578.306 829.493 608.438 829.537 614.591C829.704 637.677 829.019 661.253 829.524 684.328C829.48 686.104 829.329 688.768 829.527 690.458L828.529 690.071Z" fill="#C9C7C5"/>
<path d="M338.083 617.981L337.763 540.745C337.656 531.005 336.513 495.965 338.506 488.156C340.334 504.515 339.194 522.907 339.1 539.531L338.887 617.057L338.083 617.981Z" fill="#DFDEDF"/>
<path d="M786.618 545.848C788.577 548.673 787.608 593.427 787.608 600.404C787.679 634.639 787.559 668.875 787.248 703.109L787.101 703.15L786.737 702.794L786.444 599.361C786.429 584.114 785.586 560.343 786.618 545.848Z" fill="#DFDEDF"/>
<path d="M445.109 381.101L445.416 271.413C445.503 257.719 444.905 239.94 445.78 226.645L446.051 226.701C447.35 236.077 446.747 255.262 446.679 265.454L445.987 346.268C445.956 355.145 445.278 373.082 445.929 381.447L445.109 381.101Z" fill="#7F7F7F"/>
<path d="M357.07 628.325L356.756 542.248L356.508 513.063C356.479 509.458 355.674 497.474 357.7 495.156C359.294 497.267 358.253 536.547 358.185 542.09L357.919 606.723C356.836 612.353 357.712 626.32 357.07 628.325Z" fill="#C9C7C5"/>
<path d="M204.594 581.363C204.499 576.93 204.335 573.986 205.003 569.631L205.348 569.531C206.419 575.973 206.008 585.401 205.946 592.109C206.32 622.173 205.474 652.399 205.957 682.489C206.03 687.035 205.907 691.724 205.587 696.26C204.832 694.158 205.051 681.676 205.045 678.689C204.979 646.365 203.579 613.666 204.594 581.363Z" fill="#C9C7C5"/>
<path d="M204.593 581.363C204.498 576.93 204.334 573.986 205.002 569.631L205.347 569.531C206.418 575.973 206.007 585.401 205.945 592.109C205.494 592.708 205.788 592.539 205.088 592.653C204.528 590.647 204.852 584.748 204.635 581.876L204.593 581.363Z" fill="#F0E1D2"/>
<path d="M200.384 689.64L200.022 601.635C200.021 597.111 199.664 574.233 200.562 571.539L201.097 571.289C202.077 576.671 201.402 599.165 201.501 605.702C201.92 633.3 200.717 662.542 201.51 689.989L200.384 689.64Z" fill="#C9C7C5"/>
<path d="M610.517 400.566C611.143 362.689 609.948 324.542 610.423 286.643C610.472 282.718 609.957 260.101 610.989 257.434C611.813 260.653 611.622 283.823 611.634 288.248L611.532 364.906C611.512 374.542 610.915 392.643 611.51 401.499L610.517 400.566Z" fill="#C9C7C5"/>
<path d="M811.598 689.187L811.373 618.514L811.098 585.152C811.045 579.627 810.453 565.055 811.881 560.414C813.292 570.111 812.577 582.54 812.6 592.689C812.672 614.651 812.633 636.613 812.483 658.574C812.446 667.045 811.864 684.059 812.485 692.043L811.598 689.187Z" fill="#DFDEDF"/>
<path d="M397.001 287.527L398.094 288.565L397.963 392.069L397.899 424.411C397.89 429.2 397.651 436.422 397.948 441.012L397.071 440.069C397.845 427.897 396.869 408.848 397.05 396.077C397.556 360.208 396.258 323.345 397.001 287.527Z" fill="#7F7F7F"/>
<path d="M192.293 573.426C194.071 581.619 193.433 590.344 193.519 598.707C193.849 630.914 192.699 663.238 192.991 695.427L192.052 692.703L191.983 616.479C191.976 603.493 191.47 585.996 192.293 573.426Z" fill="#C9C7C5"/>
<path d="M460.39 250.483L461.557 250.043C462.817 290.243 459.919 331.73 460.944 372.05C461.006 374.477 461.005 382.1 460.372 384.046C458.796 353.527 460.777 321.276 460.09 290.6C459.809 278.032 459.69 262.98 460.39 250.483Z" fill="#746E67"/>
<path d="M774.599 646.994L774.485 576.333C774.472 568.318 773.86 545.465 775.388 538.527C776.815 549.777 776.128 567.686 776.038 579.402L775.832 642.696C775.489 644.199 775.298 645.682 774.599 646.994Z" fill="#EFEFF0"/>
<path d="M560.03 341.058C560.476 310.449 559.211 279.57 559.444 248.956C559.529 237.734 559.164 225.391 559.759 214.243L559.985 214.094C561.108 223.198 560.855 239.796 560.892 249.394L560.96 311.006C560.952 319.942 560.519 333.419 560.984 342.001L560.03 341.058Z" fill="#7F7F7F"/>
<path d="M209.583 674.213C209.55 661.802 208.76 567.354 210.021 565.68C211.093 571.462 210.524 596.954 210.525 604.284L210.402 689.008C210.684 691.026 210.822 699.075 210.196 700.724C208.929 698.63 209.491 678.054 209.583 674.213Z" fill="#C9C7C5"/>
<path d="M209.584 674.215C210.635 678.286 210.002 684.592 210.403 689.01C210.685 691.028 210.823 699.077 210.197 700.726C208.93 698.632 209.492 678.056 209.584 674.215Z" fill="#AFA59C"/>
<path d="M837.008 703.336L836.476 610.104C836.494 604.253 836.1 583.912 836.994 579.742C837.562 581.037 837.814 583.521 837.784 584.99C837 623.66 838.402 662.247 837.969 700.931L837.008 703.336Z" fill="#7F7F7F"/>
<path d="M807.056 680.423L806.751 601.914C806.698 593.255 806.172 564.874 807.628 558.453C809.003 594.941 807.809 631.757 808.028 668.279C808.052 672.181 807.888 676.158 808.006 680.049L807.056 680.423Z" fill="#DFDEDF"/>
<path d="M225.493 659.517C225.209 635.057 225.068 610.597 225.07 586.135C225.102 578.828 224.923 557.561 226.095 551.23C228.062 562.033 226.619 578.953 226.534 590.253L226.417 654.186C225.84 656.39 225.704 657.246 225.493 659.517Z" fill="#EFEFF0"/>
<path d="M820.089 681.681C820.035 669.452 819.236 571.333 820.709 569.797C822.121 581.361 821.444 597.29 821.293 609.272L821.068 658.758C821.045 666.883 820.68 677.42 820.983 685.271C820.819 684.23 820.368 682.741 820.089 681.681Z" fill="#EFEFF0"/>
<path d="M622.214 267.434C623.925 269.569 623.062 314.691 623.044 321.906L622.753 408.534C622.022 407.531 621.076 280.8 622.214 267.434Z" fill="#7F7F7F"/>
<path d="M489.024 297.065C489.155 266.511 488.099 235.835 488.483 205.258C488.554 199.576 487.706 193.924 489.301 188.363C490.445 193.327 489.935 215.809 489.93 222.538L489.979 295.652L489.024 297.065Z" fill="#DCBFA1"/>
<path d="M816.058 684.586L816.091 684.166C816.93 671.94 814.429 572.859 816.92 568.246C818.162 575.614 817.409 591.842 817.309 600.07C817.09 618.06 817.01 636.411 816.959 654.389C816.942 660.524 816.344 679.864 816.975 684.952L816.058 684.586Z" fill="#DFDEDF"/>
<path d="M350.504 593.201C350.355 583.228 349.676 496.341 351.066 493.578C352.389 495.836 351.473 581.021 351.475 590.977L350.504 593.201Z" fill="#EFEFF0"/>
<path d="M433.085 346.225L432.959 275.734C432.929 266.223 432.33 245.617 433.379 236.866L433.662 236.734C434.734 247.647 434.053 267.598 434.05 279.226L433.928 360.828C433.198 357.637 434.082 350.948 433.085 346.225Z" fill="#C9C7C5"/>
<path d="M802.081 653.589L801.583 594.114C801.521 582.326 801.085 567.448 802.403 556.062C803.251 561.965 803.39 566.544 803.234 572.507C802.525 599.65 803.294 626.798 802.957 653.944L802.081 653.589Z" fill="#DFDEDF"/>
<path d="M343.599 553.225C343.559 545.822 342.632 494.865 344.642 490.773C346.559 494.296 344.81 549.586 344.961 558.985C343.913 557.344 343.853 555.204 343.599 553.225Z" fill="#DFDEDF"/>
<path d="M573.056 340.561L572.932 265.527C572.906 256.354 572.347 236.12 573.409 227.812C575.458 232.804 573.351 329.885 573.973 341.509L573.056 340.561Z" fill="#7F7F7F"/>
<path d="M369.554 601.495C370.102 595.353 369.638 581.58 369.612 574.975L369.439 525.495C369.37 518.87 368.733 507.457 369.328 501.342L370.049 500.901L369.994 500.667L369.447 500.712L369.798 500.156C372.003 505.431 370.143 587.837 370.438 600.561L369.554 601.495Z" fill="#C9C7C5"/>
<path d="M585.572 322.224L585.47 259.741C585.465 256.5 585.213 237.632 585.799 235.359C587.489 237.591 586.453 334.987 586.544 346.129L586.329 346.564C585.317 339.834 587.14 329.716 585.572 322.224Z" fill="#C9C7C5"/>
<path d="M797.069 651.788L796.744 592.501C796.674 585.153 796.336 560.487 797.496 554.211C798.543 566.361 798.045 582.026 797.985 594.484L797.983 651.565L797.069 651.788Z" fill="#DFDEDF"/>
<path d="M343.599 553.223C343.853 555.202 343.913 557.342 344.961 558.983C345.589 566.72 344.999 581.217 344.932 589.503C344.805 605.067 345.194 621.01 344.955 636.476C344.623 638.566 344.324 640.662 344.058 642.762C344.005 613 343.055 582.901 343.599 553.223Z" fill="#7F7F7F"/>
<path d="M350.504 593.201L351.475 590.977C352.276 620.183 351.025 649.592 350.931 678.809C350.922 681.85 350.809 685.084 350.911 688.101L350.027 688.464C350.454 681.906 350.019 671.47 350.097 664.549L350.504 593.201Z" fill="#C9C7C5"/>
<path d="M367.054 393.354L368.033 393.055C369.801 420.837 366.834 451.986 368.012 479.975L367.053 479.593C366.879 451.78 366.585 421.042 367.054 393.354Z" fill="#7F7F7F"/>
<path d="M774.599 646.993C775.298 645.681 775.489 644.198 775.832 642.695C776.576 658.242 776.45 672.525 775.88 688.089C775.75 691.643 776.123 700.173 775.576 703.065C774.244 696.806 773.69 653.681 774.599 646.993Z" fill="#C9C7C5"/>
<path d="M489.022 297.065L489.977 295.652C489.897 320.981 490.666 348.535 489.902 373.508C490.008 374.463 490.081 376.288 489.569 377.087C488.863 371.896 488.892 369.399 489.084 364.219C489.357 341.652 488.388 320.19 489.022 297.065Z" fill="#C9C7C5"/>
<path d="M489.084 364.219C489.735 367.325 489.763 370.339 489.902 373.508C490.008 374.463 490.081 376.288 489.569 377.087C488.863 371.896 488.892 369.399 489.084 364.219Z" fill="#AFA59C"/>
<path d="M421.083 309.961L421.885 315.038C422.612 341.017 421.566 367.141 422.003 393.138C422.057 396.336 421.754 399.827 421.986 402.983L421.081 402.61C421.392 396.554 420.929 388.281 421.045 381.875C421.475 358.144 420.332 333.621 421.083 309.961Z" fill="#C9C7C5"/>
<path d="M657.573 454.682L657.423 401.536C657.433 393.723 657.151 380.659 657.83 373.141C659.821 378.032 658.214 446.495 658.521 457.62L657.573 454.682Z" fill="#7F7F7F"/>
<path d="M364.198 496.625C365.224 509.521 364.744 519.685 364.653 532.5C364.689 545.944 364.62 559.389 364.449 572.832C363.692 571.024 363.706 568.508 363.573 566.49L363.401 524.612C363.366 514.732 362.686 506.419 364.198 496.625Z" fill="#EFEFF0"/>
<path d="M585.571 322.223C587.139 329.715 585.316 339.833 586.328 346.563L586.543 346.128C586.626 346.342 586.748 346.546 586.791 346.771C587.726 351.715 587.109 414.662 586.38 416.021C586.248 416.266 586.092 416.497 585.948 416.735L585.973 416.739C586.562 412.419 585.991 396.116 586.007 390.878C586.077 368.096 585.051 345.019 585.571 322.223Z" fill="#746E67"/>
<path d="M345.508 466.923C346.013 449.126 344.638 429.719 345.322 411.743C345.576 405.086 345.06 396.887 345.944 390.418C347.207 393.07 346.452 455.668 346.432 464.201L345.508 466.923Z" fill="#7F7F7F"/>
<path d="M681.021 461.554C681.365 445.55 680.948 429.382 681.203 413.386C681.294 407.713 680.98 396.647 681.86 391.547C683.862 395.698 681.801 452.913 681.983 462.487L681.021 461.554Z" fill="#7F7F7F"/>
<path d="M357.071 628.329C357.713 626.324 356.837 612.357 357.92 606.727C358.542 629.43 357.269 652.378 357.547 675.112C357.621 681.162 357.703 687.971 357.16 693.956C355.736 690.991 356.721 635.533 357.071 628.329Z" fill="#AFA59C"/>
<path d="M456.334 488.559L457.213 489.211L417.21 515.142C414.089 517.159 401.355 525.624 398.596 526.555L398.896 525.277C405.219 520.728 413.895 515.662 420.641 511.405L456.334 488.559Z" fill="black"/>
<path d="M433.083 346.223C434.08 350.946 433.196 357.635 433.926 360.826C434.412 367.416 435.219 418.794 433.854 422.221C432.583 414.026 433.5 396.029 433.41 387.141C433.276 373.948 432.656 359.262 433.083 346.223Z" fill="#AFA59C"/>
<path d="M338.083 617.983L338.887 617.059C339.257 632.634 339.209 648.389 339.022 663.968C338.939 670.779 339.58 684.588 338.488 690.584C337.62 685.709 337.985 669.784 337.996 663.894C337.893 648.591 337.922 633.286 338.083 617.983Z" fill="#C9C7C5"/>
<path d="M356.043 454.929L355.932 407.348C355.926 401.09 355.645 386.728 356.529 381.141C357.265 388.331 356.868 396.198 357.049 403.439C357.467 420.132 356.513 438.029 357.014 454.549L356.043 454.929Z" fill="#C9C7C5"/>
<path d="M246.108 640.238C246.581 643.866 246.101 653.155 246.659 654.946C247.452 654.808 247.265 654.897 247.483 654.75C247.469 665.879 248.318 691.472 246.334 701.404C245.735 681.02 245.66 660.625 246.108 640.238Z" fill="#C8C8C8"/>
<path d="M691.483 457.861C691.486 444.989 691.379 432.117 691.161 419.246C691.123 414.918 690.842 403.428 691.492 399.815L691.878 399.531C692.819 403.366 692.53 416.55 692.532 421.31L692.478 460.738L691.483 457.861Z" fill="#C9C7C5"/>
<path d="M335.096 463.594C335.089 456.965 334.38 399.066 335.588 397.816C336.767 405.381 335.885 412.003 336.1 419.303C336.506 433.071 335.181 450.489 335.951 463.946L335.096 463.594Z" fill="#7F7F7F"/>
<path d="M196.027 639.689L195.988 600.156C195.962 594.793 195.507 581.704 196.532 576.844C197.399 583.193 196.984 590.936 197.16 597.4C197.552 611.725 196.669 626.867 196.977 641.088L196.027 639.689Z" fill="#DFDEDF"/>
<path d="M797.069 651.786L797.983 651.562C798.331 662.144 799.351 692.671 797.458 702.148C796.8 701.05 796.936 656.338 797.069 651.786Z" fill="#C9C7C5"/>
<path d="M421.082 309.958C420.929 296.381 420.865 282.803 420.89 269.224C420.907 265.155 420.745 254.215 421.482 250.859C422.869 254.83 421.982 307.957 421.884 315.035L421.082 309.958Z" fill="#DFDEDF"/>
<path d="M188.022 636.145C187.911 624.67 187.865 613.195 187.883 601.719C187.896 595.009 187.783 585.543 188.552 579.031C189.862 588.72 189.29 596.299 189.145 606.023C189.012 616.542 188.953 627.062 188.967 637.582L188.022 636.145Z" fill="#DFDEDF"/>
<path d="M664.043 607.996C664.457 608.214 665.701 608.83 666.012 609.056C665.82 622.926 665.129 639.786 665.548 653.585L664.523 653.561C664.454 638.372 664.294 623.183 664.043 607.996Z" fill="#C8C8C8"/>
<path d="M196.026 639.691L196.976 641.09C197.104 652.465 197.119 663.841 197.023 675.216C196.993 682.041 197.221 690.694 196.614 697.323C195.435 694.54 195.992 645.994 196.026 639.691Z" fill="#C9C7C5"/>
<path d="M326.193 404.402L326.562 404.742C327.863 408.812 326.934 449.321 326.744 456.033C325.433 454.427 325.906 410.522 326.193 404.402Z" fill="#7F7F7F"/>
<path d="M363.574 566.488C363.707 568.506 363.693 571.022 364.45 572.83C364.869 575.484 364.533 615.962 364.127 617.7C362.746 614.679 363.382 572.177 363.574 566.488Z" fill="#B4B3B7"/>
<path d="M460.391 250.484C460.298 239.976 458.974 219.792 461.079 210.312C462.211 223.91 461.24 236.697 461.558 250.044L460.391 250.484Z" fill="#C9C7C5"/>
<path d="M317.414 587.551L317.64 587.689L317.539 588.236C305.351 594.534 292.517 600.09 280.182 606.478L279.814 606.007C281.872 603.331 312.377 589.679 317.414 587.551Z" fill="#DFDEDF"/>
<path d="M317.021 508.074L317.187 508.656C314.894 510.746 307.792 514.779 304.675 516.7C296.669 521.592 288.711 526.564 280.803 531.615L280.449 531.385L280.557 530.812C288.653 524.505 307.657 513.586 317.021 508.074Z" fill="#DFDEDF"/>
<path d="M318.083 604.453L318.587 604.662C316.967 607.157 285.976 620.372 281.038 622.532L280.379 622.42C281.673 620.767 313.379 606.721 318.083 604.453Z" fill="#DFDEDF"/>
<path d="M317.243 548.973L317.708 549.565C314.077 552.703 302.461 558.403 297.928 560.719C291.9 563.851 285.895 567.029 279.915 570.251C279.712 570.14 279.686 569.848 279.592 569.637C281.291 568.002 312.753 551.455 317.243 548.973Z" fill="#B4B3B7"/>
<path d="M802.082 653.586L802.958 653.941C803.281 668.462 802.856 682.841 803.027 697.32L801.975 698.465C802.664 686.118 801.956 666.536 802.082 653.586Z" fill="#C9C7C5"/>
<path d="M316.868 529.129L316.82 529.395C314.677 532.038 285.653 548.451 280.516 551.474C280.381 551.038 280.451 551.369 280.713 550.479C289.724 544.309 306.894 534.207 316.868 529.129Z" fill="#DFDEDF"/>
<path d="M702.075 437.232C702.104 433.311 701.961 408.236 703.134 407.02C704.153 413.992 703.257 435.102 702.911 442.525L702.823 444.434L702.473 444.612C701.794 441.452 701.926 440.368 702.075 437.232Z" fill="#7F7F7F"/>
<path d="M702.075 437.23L702.911 442.523L702.823 444.432L702.473 444.61C701.794 441.45 701.926 440.366 702.075 437.23Z" fill="#AFA59C"/>
<path d="M317.667 568.582C317.781 569.108 317.732 568.725 317.47 569.724C309.523 574.636 289.679 583.511 280.553 587.858L280.662 587.292C291.593 580.968 306.127 574.234 317.667 568.582Z" fill="#DFDEDF"/>
<path d="M316.254 623.422L316.982 623.497L316.768 624.038C313.844 625.785 309.654 627.325 306.408 628.699C298.221 632.207 289.97 635.565 281.661 638.773L280.932 638.748C282.398 636.823 311.632 625.357 316.254 623.422Z" fill="#EFEFF0"/>
<path d="M318.672 638.988L319.193 639.265C318.329 640.455 285.701 652.777 281.291 654.488L280.74 654.333C283.337 651.728 314.05 640.721 318.672 638.988Z" fill="#B4B3B7"/>
<path d="M250.491 710.906C245.576 711.215 224.448 711.278 219.855 710.838L219.859 710.335C229.624 709.466 249.523 709.822 259.774 710.086C256.531 710.66 253.773 710.741 250.491 710.906Z" fill="#AFA59C"/>
<path d="M225.494 659.515C225.705 657.244 225.841 656.388 226.418 654.184C226.566 664.192 226.861 677.787 226.425 687.682L225.495 690.555C225.783 681.401 224.651 668.189 225.494 659.515Z" fill="#B4B3B7"/>
<path d="M681.026 655.569L681.967 654.215C682.064 659.453 682.444 687.831 681.263 690.962C680.935 681.068 680.562 665.286 681.026 655.569Z" fill="#5F5F65"/>
<path d="M710.357 588.473C715.488 589.113 735.764 600.49 741.122 603.536C735.192 602.155 716.267 591.794 710.357 588.473Z" fill="#DFDEDF"/>
<path d="M709.838 626.172C717.823 628.041 734.176 634.698 741.552 638.483C738.37 638.298 713.15 628.197 709.838 626.172Z" fill="#DFDEDF"/>
<path d="M710.75 607.426C717.367 608.861 734.256 617.401 740.412 620.508C736.195 620.242 715.298 609.93 710.75 607.426Z" fill="#DFDEDF"/>
<path d="M188.021 636.145L188.966 637.582C189.229 646.584 188.791 655.492 189.046 664.375L187.961 665.743C188.269 656.843 187.871 645.507 188.021 636.145Z" fill="#C9C7C5"/>
<path d="M664.523 653.559L665.547 653.583C665.551 657.83 665.937 681.68 665.047 683.505C664.846 683.263 664.645 683.02 664.443 682.777C664.863 674.8 664.164 660.94 664.523 653.559Z" fill="#7F7F7F"/>
<path d="M344.192 665.086C344.341 667.068 344.479 669.051 344.606 671.035C344.627 676.839 345.156 689.45 344.601 694.589L344.377 694.315C343.24 685.941 343.166 673.383 344.192 665.086Z" fill="#AFA59C"/>
<path d="M807.054 680.421L808.004 680.047C808.039 687.435 808.025 694.823 807.963 702.21L807.142 702.564L807.919 702.727L807.307 703.085L807.819 703.336L807.679 703.604C805.85 700.002 806.883 684.901 807.054 680.421Z" fill="#C9C7C5"/>
<path d="M544.678 582.77L545.764 583.655C547.191 587.852 546.363 594.037 546.014 598.603L545.2 598.371C543.9 595.159 544.539 586.626 544.678 582.77Z" fill="#EFEFF0"/>
<path d="M572.635 591.246L573.692 591.981C575.278 595.205 574.534 602.328 574.348 606.234L573.401 605.609C571.781 602.347 572.484 595.171 572.635 591.246Z" fill="#EFEFF0"/>
<path d="M537.817 486.727C540.656 488.938 539.473 499.612 539.311 503.258C536.623 498.832 537.353 491.804 537.817 486.727Z" fill="#EFEFF0"/>
<path d="M711.801 645.992C718.888 646.724 732.87 652.18 739.823 655.028C734.051 654.333 717.694 648.263 711.801 645.992Z" fill="#DFDEDF"/>
<path d="M610.517 400.566L611.51 401.499C611.673 406.971 611.134 422.643 611.62 426.815L610.89 427.223C610.21 420.323 610.456 407.704 610.517 400.566Z" fill="#AFA59C"/>
<path d="M829.524 684.328C830.264 687.529 830.504 704.028 829.397 706.336C828.974 704.386 828.831 703.694 828.721 701.719C828.536 697.61 828.397 694.171 828.529 690.071L829.527 690.458C829.329 688.768 829.48 686.104 829.524 684.328Z" fill="#211811"/>
<path d="M828.529 690.074L829.527 690.461C829.63 693.331 829.932 699.227 828.721 701.722C828.536 697.613 828.397 694.174 828.529 690.074Z" fill="#AFA59C"/>
<path d="M537.63 548.773L538.569 549.479C540.232 552.813 539.401 559.846 539.087 563.653L538.321 563.494C536.883 560.845 537.525 552.238 537.63 548.773Z" fill="#EFEFF0"/>
<path d="M820.089 681.68C820.368 682.74 820.819 684.229 820.983 685.27C821.21 692.628 822.279 699.434 820.206 706.576C819.948 698.981 819.846 689.187 820.089 681.68Z" fill="#C9C7C5"/>
<path d="M189.045 664.375C189.08 670.14 189.509 685.565 188.538 690.355C188.071 686.695 187.745 669.932 187.96 665.743L189.045 664.375Z" fill="#3C2A16"/>
<path d="M397.002 287.527C396.73 279.808 396.186 273.239 397.398 265.594C398.225 272.886 398.101 281.164 398.095 288.565L397.002 287.527Z" fill="#F0E1D2"/>
<path d="M538.057 580.867C540.237 584.335 539.241 592.438 538.978 596.763L538.298 596.211C536.832 593.097 537.329 584.179 538.057 580.867Z" fill="#EFEFF0"/>
<path d="M537.607 459.723L538.78 460.639C540.249 463.971 539.516 469.976 539.272 473.649L538.402 473.103C536.916 470.141 537.495 463.324 537.607 459.723Z" fill="#EFEFF0"/>
<path d="M572.896 533.242C575.777 535.686 574.551 544.293 574.303 548.044C571.811 543.417 572.332 538.313 572.896 533.242Z" fill="#EFEFF0"/>
<path d="M545.102 521.844C547.403 525.04 546.4 532.844 545.908 536.673C543.45 534.224 544.382 525.156 545.102 521.844Z" fill="#EFEFF0"/>
<path d="M572.677 562.258L573.388 562.669C575.409 565.399 574.446 572.142 574.136 575.615L573.343 575.318C571.865 572.173 572.518 565.957 572.677 562.258Z" fill="#EFEFF0"/>
<path d="M475.087 366.967L475.899 366.066C476.343 373.711 475.941 382.937 475.656 390.629C474.831 387.077 474.719 370.949 475.087 366.967Z" fill="#3C2A16"/>
<path d="M573.027 505.301C575.589 507.757 574.499 516.23 574.271 519.842C571.685 515.516 572.365 510.134 573.027 505.301Z" fill="#EFEFF0"/>
<path d="M537.87 430.762C540.629 433.2 539.485 440.785 539.285 444.47C536.569 440.734 537.277 435.126 537.87 430.762Z" fill="#EFEFF0"/>
<path d="M538.11 518.328C540.387 521.065 539.441 529.946 539.219 533.424C536.701 529.592 537.543 522.761 538.11 518.328Z" fill="#EFEFF0"/>
<path d="M544.691 552.352C547.297 554.687 546.135 563.222 545.892 566.739L545.269 566.773C543.954 563.313 544.534 556.29 544.691 552.352Z" fill="#EFEFF0"/>
<path d="M537.929 613.254C540.718 615.573 539.514 622.766 539.272 626.111C536.482 622.843 537.387 617.271 537.929 613.254Z" fill="#EFEFF0"/>
<path d="M832.668 689.252L832.927 689.223C833.557 688.079 833.646 681.088 833.928 678.738C834.069 681.697 834.222 704.085 833.492 705.039C833.293 703.008 832.545 691.022 832.668 689.252Z" fill="#211811"/>
<path d="M572.645 621.766L573.488 622.287C575.299 624.862 574.461 630.692 574.271 633.912L573.438 633.55C571.767 631.204 572.507 624.906 572.645 621.766Z" fill="#EFEFF0"/>
<path d="M537.782 411.184C540.656 413.413 539.463 419.952 539.135 423.287L538.095 422.223C536.855 418.543 537.425 415.022 537.782 411.184Z" fill="#EFEFF0"/>
<path d="M545.003 491.301C546.937 495.263 546.122 502.557 545.75 506.952C543.684 502.801 544.356 495.833 545.003 491.301Z" fill="#EFEFF0"/>
<path d="M573.124 477.422C575.489 480.821 574.619 487.272 574.294 491.428C572.034 486.715 572.506 482.418 573.124 477.422Z" fill="#EFEFF0"/>
<path d="M561.023 358.031C561.138 362.762 561.139 375.732 560.507 380.168C560.188 377.434 559.635 363.42 560.042 360.792L561.023 358.031Z" fill="#211811"/>
<path d="M544.595 463.285L545.222 463.802C546.774 466.862 546.03 473.508 545.842 477.208C543.6 475.419 544.503 466.419 544.595 463.285Z" fill="#EFEFF0"/>
<path d="M816.058 684.59L816.975 684.956C816.983 688.112 817.487 702.75 817.018 704.394C815.712 699.805 816.047 689.691 816.058 684.59Z" fill="#211811"/>
<path d="M580.541 536.301C582.264 539.102 581.465 547.895 581.275 551.266C579.471 547.116 579.405 540.627 580.541 536.301Z" fill="#EFEFF0"/>
<path d="M573.066 452.754L574.052 453.749C575.184 457.396 574.683 460.658 574.339 464.417C571.817 460.509 572.403 457.21 573.066 452.754Z" fill="#EFEFF0"/>
<path d="M580.092 509.234C582.537 511.077 581.501 519.439 581.343 522.643C579.153 520.81 579.987 512.274 580.092 509.234Z" fill="#EFEFF0"/>
<path d="M356.043 454.927L357.014 454.547C356.946 460.517 356.943 466.486 357.003 472.455L356.05 472.079C355.949 466.362 355.947 460.644 356.043 454.927Z" fill="#746E67"/>
<path d="M560.029 341.059L560.983 342.002C560.989 346.321 560.764 353.919 561.022 358.034L560.041 360.795C559.964 354.217 559.96 347.637 560.029 341.059Z" fill="#AFA59C"/>
<path d="M544.651 615.301C547.372 617.578 546.383 622.909 546.108 626.167L545.427 626.084C543.821 624.012 544.535 618.109 544.651 615.301Z" fill="#EFEFF0"/>
<path d="M606.617 574.863L607.286 575.598C608.514 579.594 608.036 583.546 607.718 587.671L607.312 587.574C605.778 585.808 606.511 577.679 606.617 574.863Z" fill="#EFEFF0"/>
<path d="M544.626 436.328C547.141 438.447 546.086 445.603 545.909 448.659C543.656 446.782 544.513 439.272 544.626 436.328Z" fill="#EFEFF0"/>
<path d="M580.655 593.863C582.459 596.293 581.68 604.933 581.426 608.022L580.781 607.675C579.974 603.401 580.359 598.187 580.655 593.863Z" fill="#EFEFF0"/>
<path d="M580.327 622.73L581.266 623.769C581.913 628.016 581.566 632.055 581.269 636.323C579.507 632.659 580.015 626.71 580.327 622.73Z" fill="#EFEFF0"/>
<path d="M612.678 604.395C614.685 607.136 613.863 614.13 613.566 617.541L613.178 617.47C611.931 614.964 612.556 607.37 612.678 604.395Z" fill="#EFEFF0"/>
<path d="M580.477 458.328C582.772 460.983 581.989 466.449 581.429 469.66C579.811 467.705 579.969 460.86 580.477 458.328Z" fill="#EFEFF0"/>
<path d="M545.211 416.398L545.833 417.259C546.363 421.498 546.248 424.474 545.443 428.671L544.768 427.93C544.13 423.908 544.624 420.371 545.211 416.398Z" fill="#EFEFF0"/>
<path d="M606.408 547.758C608.221 550.843 607.503 557.427 607.257 561.036C605.436 557.454 605.945 551.671 606.408 547.758Z" fill="#EFEFF0"/>
<path d="M640.663 564.336L641.113 564.712C642.578 567.706 641.986 572.791 641.81 576.157C639.719 574.382 640.557 566.916 640.663 564.336Z" fill="#DFDEDF"/>
<path d="M612.623 524.84L613.241 525.423C614.184 529.153 613.866 533.312 613.661 537.134L613.246 537.058C611.909 535.151 612.535 527.644 612.623 524.84Z" fill="#EFEFF0"/>
<path d="M606.151 496.844C608.333 498.643 607.46 505.974 607.348 508.619L606.862 508.174C605.544 504.446 605.948 500.754 606.151 496.844Z" fill="#EFEFF0"/>
<path d="M573.068 435.848C575.534 438.049 574.651 443.092 574.433 446.165C572.138 443.965 572.855 438.81 573.068 435.848Z" fill="#EFEFF0"/>
<path d="M612.67 576.895C614.483 579.225 613.865 586.287 613.737 589.219L613.252 589.052C611.861 586.877 612.531 579.638 612.67 576.895Z" fill="#EFEFF0"/>
<path d="M369.554 601.496L370.438 600.562C370.774 605.978 370.165 610.092 369.533 615.477C369.031 611.651 369.382 605.47 369.554 601.496Z" fill="#3C2A16"/>
<path d="M367.055 393.354C366.999 390.527 366.77 381.17 367.557 378.969C368.125 383.405 368.096 388.547 368.034 393.055L367.055 393.354Z" fill="#B4B3B7"/>
<path d="M612.574 500.301C614.524 501.852 613.843 509.233 613.737 511.687L613.429 511.611C611.816 509.568 612.49 503.306 612.574 500.301Z" fill="#EFEFF0"/>
<path d="M580.53 482.785C582.334 485.372 581.617 492.513 581.247 495.698C579.795 492.423 580.215 486.339 580.53 482.785Z" fill="#EFEFF0"/>
<path d="M580.656 565.367C582.295 567.987 581.575 575.033 581.37 578.137C579.63 576.344 580.44 567.962 580.656 565.367Z" fill="#EFEFF0"/>
<path d="M580.584 441.363C582.403 442.919 581.792 450.261 581.693 452.618L581.396 452.571C579.788 450.641 580.49 444.287 580.584 441.363Z" fill="#EFEFF0"/>
<path d="M634.656 536.395C636.515 538.668 635.881 544.402 635.699 547.259L635.159 547.209C633.901 545.503 634.56 538.76 634.656 536.395Z" fill="#EFEFF0"/>
<path d="M634.62 612.355C636.52 613.934 635.842 620.951 635.737 623.359C633.612 622.595 634.549 614.373 634.62 612.355Z" fill="#DFDEDF"/>
<path d="M606.35 522.223C608.323 524.857 607.485 531.602 607.244 534.873C605.882 531.873 606.096 525.543 606.35 522.223Z" fill="#EFEFF0"/>
<path d="M612.634 550.879L613.12 551.325C614.112 554.065 613.678 560.228 613.514 563.191C611.739 561.667 612.541 553.501 612.634 550.879Z" fill="#EFEFF0"/>
<path d="M640.643 589.297C642.588 590.843 641.719 598.137 641.552 600.538L641.332 600.524C639.868 598.526 640.542 592.006 640.643 589.297Z" fill="#DFDEDF"/>
<path d="M640.66 614.832C642.763 616.561 641.964 622.612 641.82 625.177C639.68 623.394 640.526 617.496 640.66 614.832Z" fill="#DFDEDF"/>
<path d="M634.599 638.344C636.761 640.138 635.919 645.874 635.716 648.484L634.789 647.544C634.184 644.511 634.483 641.461 634.599 638.344Z" fill="#EFEFF0"/>
<path d="M606.629 630.367C608.218 632.308 607.741 639.478 607.675 642.108L607.287 642.047C605.852 640.129 606.524 633.18 606.629 630.367Z" fill="#EFEFF0"/>
<path d="M606.623 602.816C608.149 606.154 607.503 612.376 607.315 616.102C605.636 614.059 606.444 605.503 606.623 602.816Z" fill="#DFDEDF"/>
<path d="M657.571 454.684L658.519 457.622C658.688 461.11 658.592 465.856 658.178 469.312C657.374 465.616 657.441 458.536 657.571 454.684Z" fill="#AFA59C"/>
<path d="M231.495 688.113L232.546 689.24C232.589 691.654 232.669 698.476 232.014 700.485C231.395 695.942 231.47 692.663 231.495 688.113Z" fill="#8E9193"/>
<path d="M691.483 457.863L692.478 460.74C692.763 464.828 692.491 469.277 692.339 473.401C691.418 468.325 691.4 463.002 691.483 457.863Z" fill="#AFA59C"/>
<path d="M200.384 689.641L201.51 689.99C201.562 693.141 201.572 695.701 201.405 698.848L200.576 699.246L201.341 699.342L201.066 700.354L200.704 699.996L201.176 700.038L201.293 699.484L200.53 699.104L201.366 698.959L200.47 698.598C200.347 695.478 200.34 692.761 200.384 689.641Z" fill="#AFA59C"/>
<path d="M640.563 539.805C642.431 541.961 641.83 547.212 641.736 550.226C641.209 550.089 641.561 550.215 640.795 549.612C640.228 546.452 640.485 543.049 640.563 539.805Z" fill="#DFDEDF"/>
<path d="M344.957 636.477C345.028 641.752 345.373 648.661 344.082 653.645C344.034 650.982 343.792 645.15 344.06 642.763C344.326 640.663 344.625 638.567 344.957 636.477Z" fill="#AFA59C"/>
<path d="M634.933 513.266C636.712 516.157 636.092 520.552 635.507 523.723C633.936 520.569 634.532 516.691 634.933 513.266Z" fill="#DFDEDF"/>
<path d="M225.495 690.557L226.425 687.684C226.491 689.831 226.823 698.963 225.931 700.544C225.462 696.503 225.408 694.635 225.495 690.557Z" fill="#5F5F65"/>
<path d="M640.623 515.848C642.422 517.352 641.742 523.83 641.614 526.148C641.017 526.063 641.369 526.178 640.697 525.522C640.236 522.434 640.513 519.005 640.623 515.848Z" fill="#DFDEDF"/>
<path d="M792.073 690.586L792.976 690.95C793.137 693.889 793.046 698.447 792.527 701.312C791.769 699.211 791.982 692.955 792.073 690.586Z" fill="#AFA59C"/>
<path d="M767.531 690.502L768.432 690.496C768.618 693.65 768.747 695.76 768.585 698.925L767.767 699.356L768.504 699.427L767.948 699.919L767.755 699.311L768.275 700.07L768.47 699.506L767.78 699.487L768.463 699.523L768.504 699.316L767.661 698.915C767.282 696.293 767.474 693.192 767.531 690.502Z" fill="#746E67"/>
<path d="M634.583 562.859C636.282 564.95 635.587 570.305 635.478 573.204L634.721 572.432C634.227 569.243 634.48 566.099 634.583 562.859Z" fill="#DFDEDF"/>
<path d="M613.187 632.363C613.87 636.302 613.643 640.305 613.244 644.259C611.987 641.493 612.272 635.383 613.187 632.363Z" fill="#EFEFF0"/>
<path d="M345.508 466.925L346.432 464.203C346.56 468.761 346.566 471.548 346.187 476.066L345.972 476.293C345.655 472.953 345.324 470.285 345.508 466.925Z" fill="#AFA59C"/>
<path d="M606.454 461.281C608.148 464.278 607.524 468.322 607.248 471.732C605.961 469.127 606.072 464.118 606.454 461.281Z" fill="#DFDEDF"/>
<path d="M634.621 480.746L635.73 481.859C636.464 484.307 636.116 486.175 635.936 488.741L635.084 487.927C634.296 485.417 634.554 483.39 634.621 480.746Z" fill="#EFEFF0"/>
<path d="M606.416 475.25C608.183 477.79 607.5 481.808 607.248 484.884C605.718 482.04 606.109 478.365 606.416 475.25Z" fill="#DFDEDF"/>
<path d="M681.022 461.555L681.984 462.488C682.017 463.244 682.043 464 682.06 464.756C682.084 465.868 682.028 470.557 681.411 471.206C680.845 467.375 680.926 465.462 681.022 461.555Z" fill="#3C2A16"/>
<path d="M532.116 363.602L532.921 363.946C533.037 366.581 533.061 369.218 532.993 371.855L532.081 372.23L532.133 372.494L532.89 372.607L532.298 373.066L532.782 373.034L532.599 373.342L532.157 372.586L532.914 372.505L532.961 372.226L532.035 371.844C531.865 368.781 531.969 366.656 532.116 363.602Z" fill="#3C2A16"/>
<path d="M612.642 464.875C614.262 467.038 613.563 472.286 613.437 475.172C611.84 472.954 612.502 467.739 612.642 464.875Z" fill="#DFDEDF"/>
<path d="M634.618 587.867C636.3 589.763 635.499 595.992 635.363 598.655C633.962 596.134 634.5 590.817 634.618 587.867Z" fill="#EFEFF0"/>
<path d="M344.192 665.086C343.758 661.621 343.606 660.79 344.042 657.281C344.856 661.297 345.02 666.936 344.606 671.035C344.479 669.051 344.341 667.068 344.192 665.086Z" fill="#3C2A16"/>
<path d="M612.609 478.859C614.245 481.033 613.593 485.289 613.421 488.154C611.783 486.467 612.484 481.21 612.609 478.859Z" fill="#EFEFF0"/>
<path d="M335.095 463.594L335.95 463.946C336.051 466.456 336.014 468.349 335.926 470.839L335.189 471.222L335.848 471.342L335.321 471.736L335.588 472.01L335.19 471.322L335.85 471.233L335.104 470.827C334.82 468.397 335.002 466.043 335.095 463.594Z" fill="#3C2A16"/>
<path d="M192.052 692.699L192.991 695.423C193.068 697.876 193.193 698.814 192.713 701.172L192.413 700.919C191.671 697.989 191.943 695.717 192.052 692.699Z" fill="#AFA59C"/>
<path d="M611.619 426.816C612.005 429.38 612.335 432.648 611.555 435.145L611.426 435.067C610.701 432.605 610.893 429.839 610.889 427.224L611.619 426.816Z" fill="#211811"/>
<path d="M409.062 401.922C409.513 403.466 409.819 404.324 409.972 405.953L410.012 411.489L408.994 411.533C408.981 408.329 409.003 405.125 409.062 401.922Z" fill="#AFA59C"/>
<path d="M640.641 495.879C642.129 497.759 641.506 501.598 641.349 504.12C639.846 502.262 640.481 498.396 640.641 495.879Z" fill="#DFDEDF"/>
<path d="M356.05 472.078L357.003 472.454C357.046 474.053 357.306 477.793 356.392 478.926C355.723 476.601 355.977 474.518 356.05 472.078Z" fill="#3C2A16"/>
<path d="M265.563 691.699L266.492 694.433C266.597 696.774 266.67 697.398 266.289 699.666L266.02 699.408C265.249 696.45 265.456 694.705 265.563 691.699Z" fill="#AFA59C"/>
<path d="M445.11 381.102L445.93 381.448C446.007 382.759 446.389 386.672 445.377 387.463C444.7 385.132 444.972 383.524 445.11 381.102Z" fill="#3C2A16"/>
<path d="M640.577 484.348L641.273 485.085C641.811 487.333 641.53 489.325 641.401 491.649L640.793 490.987C640.176 488.678 640.456 486.749 640.577 484.348Z" fill="#DFDEDF"/>
<path d="M635.079 493.809L635.736 494.426C636.32 496.566 635.953 498.453 635.755 500.692C634.423 498.226 634.718 496.485 635.079 493.809Z" fill="#DFDEDF"/>
<path d="M408.995 411.532L410.013 411.488C410.025 413.377 410.233 415.447 409.519 417.144C408.817 415.813 408.951 413.118 408.995 411.532Z" fill="#3C2A16"/>
<path d="M811.597 689.188L812.485 692.043L812.686 695.578L811.94 697.52C811.582 694.109 811.461 692.609 811.597 689.188Z" fill="#5F5F65"/>
<path d="M215.055 694.314L216.033 694.043C216.129 695.527 216.339 697.776 215.423 698.893C214.656 697.452 214.962 696.007 215.055 694.314Z" fill="#3C2A16"/>
<path d="M781.016 698.006L781.97 697.039C782.051 699.084 782.333 700.644 781.507 702.473C780.748 701.266 780.949 699.586 781.016 698.006Z" fill="#5F5F65"/>
<path d="M812.685 695.578C812.983 697.499 813.453 700.51 812.403 702.246C811.844 700.322 811.946 699.563 811.938 697.52L812.685 695.578Z" fill="#211811"/>
<path d="M397.073 440.07L397.95 441.013C398.03 442.178 398.232 444.935 397.443 445.698C396.716 443.649 396.966 442.268 397.073 440.07Z" fill="#3C2A16"/>
<path d="M573.055 340.562L573.972 341.51C574.026 342.973 574.201 344.762 573.506 345.934C572.717 344.188 572.981 342.492 573.055 340.562Z" fill="#AFA59C"/>
<path d="M350.028 688.465L350.912 688.102C351.075 689.62 351.279 691.995 350.469 693.275C349.707 691.703 349.967 690.253 350.028 688.465Z" fill="#3C2A16"/>
<path d="M759.102 694.098L759.956 694.452C760.007 695.924 760.271 697.771 759.472 698.869C758.711 697.187 758.986 695.958 759.102 694.098Z" fill="#7F7F7F"/>
<path d="M837.97 700.934C838.051 703.217 838.292 704.587 837.46 706.725C836.824 705.591 836.992 704.66 837.01 703.339L837.97 700.934Z" fill="#AFA59C"/>
<path d="M803.027 697.32C803.041 699.146 803.245 700.4 802.424 702.008C801.839 700.368 801.947 700.174 801.975 698.465L803.027 697.32Z" fill="#AFA59C"/>
<path d="M367.054 479.594L368.013 479.976C368.052 481.392 368.222 481.927 367.585 483.168C366.777 481.854 367.081 481.406 367.054 479.594Z" fill="#3C2A16"/>
<path d="M634.103 403L635.008 403.373C635.054 404.754 635.242 405.344 634.573 406.517C633.768 405.384 634.022 404.436 634.103 403Z" fill="#3C2A16"/>
<path d="M208.244 857.279L420.462 857.292C443.785 857.051 467.11 856.959 490.434 857.016C499.13 857.053 508.576 857.105 517.336 857.268C519.416 857.307 519.783 858.477 521 860.004C513.5 860.833 494.651 860.401 485.788 860.596C443.961 861.199 402.125 861.127 360.302 860.379C315.167 859.805 269.734 860.662 224.583 860.487C220.198 860.47 210.658 861.061 207.209 859.449L207 858.358L208.244 857.279Z" fill="black"/>
<path d="M560.487 857.736C569.061 856.682 588.397 857.192 597.637 857.21L665.58 857.261L795.467 857.251C803.811 857.245 862.305 856.126 866 858.661L865.716 859.81C863.428 861.346 861.381 860.961 858.523 860.948L659.021 860.984L594.262 860.976C581.972 860.916 559.719 860.992 548 858.862C551.149 858.131 556.889 858.048 560.487 857.736Z" fill="black"/>
<path d="M489.807 848.12L490.379 847.172L491.021 847.417C491.663 850.229 491.842 868.745 491.305 871.22C488.059 871.377 488.499 868.898 482.015 868.199C481.115 866.042 484.391 866.393 480.994 863.064L480.411 862.982C480.925 864.763 481.284 864.753 480.654 865.956C479.172 866.026 479.27 865.999 477.89 865.412C477.527 864.367 477.397 863.937 477.173 862.857L476.606 862.655C476.05 864.396 476.353 867.329 476.432 869.266C475.375 869.683 470.632 870.118 469.531 869.748C468.063 867.72 468.113 861.712 469.011 859.41C470.279 858.557 469.577 858.746 471.225 859.001L472.537 860.09C472.406 863.728 473.161 866.647 473.974 870.139C476.025 863.04 475.628 860.17 475.489 852.898C480.112 859.248 484.015 864.594 490.344 869.266C490.462 863.109 490.782 854.005 489.807 848.12Z" fill="#B4B3B7" fill-opacity="0.0117647"/>
<path d="M379.63 558.812C382.753 562.379 380.444 562.566 382.274 565.435C381.45 594.422 381.801 623.568 381.465 652.658C380.429 647.492 381.503 641.378 380.588 635.732C380.561 619.696 380.381 603.662 380.047 587.63C379.853 578.415 379.192 567.861 379.63 558.812Z" fill="#DCBFA1" fill-opacity="0.0196078"/>
<path d="M380.588 635.734C381.503 641.38 380.429 647.493 381.465 652.659L381.577 656.379L380.578 655.216C380.468 648.722 380.472 642.227 380.588 635.734Z" fill="#664627" fill-opacity="0.317647"/>
<path d="M380.576 655.215L381.575 656.378C381.593 659.843 381.698 663.228 381.304 666.672C380.094 664.904 380.531 657.668 380.576 655.215Z" fill="#664627" fill-opacity="0.211765"/>
<path d="M268.12 746.592C272.216 746.592 276.355 746.976 280.536 747.744C284.717 748.512 288.045 749.621 290.52 751.072C291.288 751.413 291.757 751.797 291.928 752.224C292.184 752.565 292.355 753.205 292.44 754.144L293.848 768.48C293.848 768.736 293.635 768.907 293.208 768.992C292.781 768.992 292.525 768.864 292.44 768.608C290.563 762.037 287.064 757.216 281.944 754.144C276.909 750.987 270.637 749.408 263.128 749.408C256.643 749.408 250.968 750.859 246.104 753.76C241.24 756.576 237.485 760.587 234.84 765.792C232.195 770.997 230.872 777.013 230.872 783.84C230.872 791.776 232.493 799.115 235.736 805.856C239.064 812.597 243.501 817.931 249.048 821.856C254.68 825.781 260.739 827.744 267.224 827.744C273.368 827.744 278.701 826.08 283.224 822.752C287.747 819.339 291.203 814.133 293.592 807.136C293.592 806.88 293.763 806.752 294.104 806.752C294.36 806.752 294.573 806.795 294.744 806.88C295 806.965 295.128 807.093 295.128 807.264L293.336 821.728C293.165 822.752 292.952 823.435 292.696 823.776C292.525 824.032 292.056 824.331 291.288 824.672C283.608 827.915 275.501 829.536 266.968 829.536C256.728 829.536 248.152 827.488 241.24 823.392C234.413 819.211 229.379 813.92 226.136 807.52C222.893 801.12 221.272 794.379 221.272 787.296C221.272 779.445 223.448 772.405 227.8 766.176C232.152 759.947 237.912 755.125 245.08 751.712C252.248 748.299 259.928 746.592 268.12 746.592ZM335.313 794.72C341.798 795.061 346.79 796.512 350.289 799.072C353.873 801.547 355.665 805.131 355.665 809.824C355.665 815.371 353.446 819.893 349.009 823.392C344.572 826.805 338.854 828.512 331.857 828.512C329.638 828.512 327.036 828.384 324.049 828.128C322.854 828.043 321.446 827.957 319.825 827.872C318.204 827.787 316.454 827.744 314.577 827.744L307.153 827.872C305.702 827.957 303.74 828 301.265 828C301.094 828 301.009 827.744 301.009 827.232C301.009 826.72 301.094 826.464 301.265 826.464C304.166 826.464 306.257 826.251 307.537 825.824C308.902 825.397 309.798 824.587 310.225 823.392C310.737 822.112 310.993 820.192 310.993 817.632V778.464C310.993 775.904 310.737 774.027 310.225 772.832C309.798 771.637 308.902 770.827 307.537 770.4C306.257 769.888 304.209 769.632 301.393 769.632C301.222 769.632 301.137 769.376 301.137 768.864C301.137 768.352 301.222 768.096 301.393 768.096L307.153 768.224C310.396 768.395 312.87 768.48 314.577 768.48C316.881 768.48 319.228 768.352 321.617 768.096C322.47 768.011 323.665 767.925 325.201 767.84C326.822 767.755 328.23 767.712 329.425 767.712C335.569 767.712 340.348 768.821 343.761 771.04C347.174 773.259 348.881 776.373 348.881 780.384C348.881 784.309 347.26 787.68 344.017 790.496C340.86 793.312 336.678 795.147 331.473 796L335.313 794.72ZM326.097 769.376C324.049 769.376 322.513 769.632 321.489 770.144C320.465 770.571 319.74 771.467 319.313 772.832C318.886 774.112 318.673 776.075 318.673 778.72V795.232L315.473 794.592C317.777 794.848 320.849 794.976 324.689 794.976C330.321 794.976 334.417 794.208 336.977 792.672C339.537 791.051 340.817 787.851 340.817 783.072C340.817 778.293 339.58 774.837 337.105 772.704C334.63 770.485 330.961 769.376 326.097 769.376ZM329.553 826.464C341.329 826.464 347.217 821.899 347.217 812.768C347.217 807.904 345.425 804.064 341.841 801.248C338.257 798.432 332.753 797.024 325.329 797.024C321.404 797.024 318.118 797.28 315.473 797.792L318.673 796.768V817.632C318.673 820.875 319.398 823.179 320.849 824.544C322.385 825.824 325.286 826.464 329.553 826.464ZM391.895 829.536C385.922 829.536 380.588 828.128 375.895 825.312C371.287 822.496 367.703 818.699 365.143 813.92C362.583 809.141 361.303 803.979 361.303 798.432C361.303 791.776 363.01 786.059 366.423 781.28C369.922 776.416 374.316 772.747 379.607 770.272C384.983 767.797 390.444 766.56 395.991 766.56C401.964 766.56 407.212 768.053 411.735 771.04C416.343 773.941 419.842 777.739 422.231 782.432C424.706 787.125 425.943 792.032 425.943 797.152C425.943 802.869 424.407 808.245 421.335 813.28C418.263 818.229 414.124 822.197 408.919 825.184C403.714 828.085 398.039 829.536 391.895 829.536ZM395.223 826.848C401.879 826.848 407.17 824.501 411.095 819.808C415.106 815.115 417.111 808.629 417.111 800.352C417.111 794.635 416.087 789.429 414.039 784.736C412.076 780.043 409.175 776.288 405.335 773.472C401.495 770.656 396.93 769.248 391.639 769.248C384.812 769.248 379.522 771.552 375.767 776.16C372.012 780.683 370.135 787.04 370.135 795.232C370.135 801.12 371.116 806.453 373.079 811.232C375.127 816.011 378.028 819.808 381.783 822.624C385.623 825.44 390.103 826.848 395.223 826.848ZM425.522 847.456C425.522 842.421 425.437 838.624 425.266 836.064C425.095 833.504 425.01 831.925 425.01 831.328C424.839 829.621 424.754 828.512 424.754 828C424.754 827.232 424.797 826.805 424.882 826.72C425.053 826.549 425.437 826.464 426.034 826.464C437.554 826.464 444.509 811.189 446.898 780.64C446.983 779.787 447.026 778.677 447.026 777.312C447.026 774.155 446.386 772.107 445.106 771.168C443.826 770.144 441.394 769.632 437.81 769.632C437.554 769.632 437.426 769.376 437.426 768.864C437.426 768.352 437.554 768.096 437.81 768.096H487.346C487.517 768.096 487.602 768.352 487.602 768.864C487.602 769.376 487.517 769.632 487.346 769.632C484.53 769.632 482.439 769.888 481.074 770.4C479.794 770.912 478.898 771.808 478.386 773.088C477.959 774.283 477.746 776.16 477.746 778.72V817.632V821.728C477.746 823.349 477.917 824.459 478.258 825.056C478.599 825.653 479.325 826.037 480.434 826.208C481.543 826.379 483.591 826.464 486.578 826.464C487.175 826.464 487.517 826.549 487.602 826.72C487.773 826.805 487.858 827.232 487.858 828L487.73 831.2C487.303 835.723 487.09 841.141 487.09 847.456C487.09 847.883 486.834 848.096 486.322 848.096C485.81 848.096 485.554 847.883 485.554 847.456C485.554 840.288 484.274 835.253 481.714 832.352C479.239 829.451 475.698 828 471.09 828H440.37C436.189 828 432.903 829.451 430.514 832.352C428.21 835.253 427.058 840.288 427.058 847.456C427.058 847.883 426.802 848.096 426.29 848.096C425.778 848.096 425.522 847.883 425.522 847.456ZM432.434 825.184H453.17C459.143 825.184 463.154 825.099 465.202 824.928C467.25 824.672 468.573 824.075 469.17 823.136C469.767 822.197 470.066 820.363 470.066 817.632V778.464C470.066 775.563 469.981 773.643 469.81 772.704C469.639 771.765 469.17 771.211 468.402 771.04C467.634 770.784 466.098 770.656 463.794 770.656H458.418C455.943 770.656 454.194 770.827 453.17 771.168C452.231 771.509 451.591 772.149 451.25 773.088C450.909 774.027 450.61 775.733 450.354 778.208C448.989 793.312 446.855 805.045 443.954 813.408C441.138 821.771 436.701 826.72 430.642 828.256L432.434 825.184ZM567.42 746.592C571.516 746.592 575.655 746.976 579.836 747.744C584.017 748.512 587.345 749.621 589.82 751.072C590.588 751.413 591.057 751.797 591.228 752.224C591.484 752.565 591.655 753.205 591.74 754.144L593.148 768.48C593.148 768.736 592.935 768.907 592.508 768.992C592.081 768.992 591.825 768.864 591.74 768.608C589.863 762.037 586.364 757.216 581.244 754.144C576.209 750.987 569.937 749.408 562.428 749.408C555.943 749.408 550.268 750.859 545.404 753.76C540.54 756.576 536.785 760.587 534.14 765.792C531.495 770.997 530.172 777.013 530.172 783.84C530.172 791.776 531.793 799.115 535.036 805.856C538.364 812.597 542.801 817.931 548.348 821.856C553.98 825.781 560.039 827.744 566.524 827.744C572.668 827.744 578.001 826.08 582.524 822.752C587.047 819.339 590.503 814.133 592.892 807.136C592.892 806.88 593.063 806.752 593.404 806.752C593.66 806.752 593.873 806.795 594.044 806.88C594.3 806.965 594.428 807.093 594.428 807.264L592.636 821.728C592.465 822.752 592.252 823.435 591.996 823.776C591.825 824.032 591.356 824.331 590.588 824.672C582.908 827.915 574.801 829.536 566.268 829.536C556.028 829.536 547.452 827.488 540.54 823.392C533.713 819.211 528.679 813.92 525.436 807.52C522.193 801.12 520.572 794.379 520.572 787.296C520.572 779.445 522.748 772.405 527.1 766.176C531.452 759.947 537.212 755.125 544.38 751.712C551.548 748.299 559.228 746.592 567.42 746.592ZM615.285 769.76C612.042 769.76 609.482 770.229 607.605 771.168C605.728 772.021 604.234 773.515 603.125 775.648C602.101 777.781 601.29 780.811 600.693 784.736C600.693 784.907 600.437 784.992 599.925 784.992C599.498 784.992 599.285 784.907 599.285 784.736C599.541 782.773 599.84 779.616 600.181 775.264C600.522 770.912 600.693 767.584 600.693 765.28C600.693 764.853 600.949 764.64 601.461 764.64C601.973 764.64 602.229 764.853 602.229 765.28C602.229 766.389 602.869 767.115 604.149 767.456C605.429 767.712 607.008 767.84 608.885 767.84C616.394 768.011 622.837 768.096 628.213 768.096L639.349 767.968C640.885 767.883 642.89 767.84 645.365 767.84C648.437 767.84 650.698 767.669 652.149 767.328C653.6 766.901 654.538 766.048 654.965 764.768C655.136 764.512 655.434 764.384 655.861 764.384C656.288 764.384 656.501 764.512 656.501 764.768C655.989 773.984 655.733 780.64 655.733 784.736C655.733 784.907 655.477 784.992 654.965 784.992C654.538 784.992 654.325 784.907 654.325 784.736C654.24 780.896 653.77 777.909 652.917 775.776C652.149 773.643 650.826 772.107 648.949 771.168C647.072 770.229 644.469 769.76 641.141 769.76C637.472 769.76 634.997 770.357 633.717 771.552C632.522 772.661 631.925 774.965 631.925 778.464V817.632C631.925 820.277 632.181 822.197 632.693 823.392C633.205 824.587 634.186 825.397 635.637 825.824C637.173 826.251 639.605 826.464 642.933 826.464C643.189 826.464 643.317 826.72 643.317 827.232C643.317 827.744 643.189 828 642.933 828C640.288 828 638.24 827.957 636.789 827.872L627.829 827.744L619.253 827.872C617.717 827.957 615.584 828 612.853 828C612.682 828 612.597 827.744 612.597 827.232C612.597 826.72 612.682 826.464 612.853 826.464C616.096 826.464 618.485 826.251 620.021 825.824C621.557 825.397 622.581 824.587 623.093 823.392C623.69 822.112 623.989 820.192 623.989 817.632V778.208C623.989 775.733 623.776 773.941 623.349 772.832C623.008 771.637 622.24 770.827 621.045 770.4C619.85 769.973 617.93 769.76 615.285 769.76ZM677.505 817.12C677.505 819.851 677.804 821.856 678.401 823.136C678.998 824.331 680.15 825.184 681.857 825.696C683.649 826.208 686.422 826.464 690.177 826.464C690.433 826.464 690.561 826.72 690.561 827.232C690.561 827.744 690.433 828 690.177 828C687.105 828 684.758 827.957 683.137 827.872L673.665 827.744L666.113 827.872C664.662 827.957 662.7 828 660.225 828C660.054 828 659.969 827.744 659.969 827.232C659.969 826.72 660.054 826.464 660.225 826.464C663.041 826.464 665.089 826.251 666.369 825.824C667.649 825.397 668.502 824.587 668.929 823.392C669.441 822.112 669.697 820.192 669.697 817.632V778.464C669.697 775.904 669.441 774.027 668.929 772.832C668.502 771.637 667.606 770.827 666.241 770.4C664.961 769.888 662.956 769.632 660.225 769.632C660.054 769.632 659.969 769.376 659.969 768.864C659.969 768.352 660.054 768.096 660.225 768.096L665.985 768.224C669.228 768.395 671.745 768.48 673.537 768.48C674.988 768.48 676.353 768.437 677.633 768.352C678.998 768.267 680.15 768.181 681.089 768.096C683.82 767.84 686.294 767.712 688.513 767.712C702.593 767.712 709.633 772.917 709.633 783.328C709.633 787.424 708.566 790.88 706.433 793.696C704.385 796.427 701.74 798.475 698.497 799.84C695.34 801.205 692.054 801.888 688.641 801.888C686.337 801.888 684.46 801.717 683.009 801.376C682.753 801.376 682.625 801.163 682.625 800.736C682.625 800.053 682.881 799.712 683.393 799.712C684.673 799.968 685.996 800.096 687.361 800.096C691.116 800.096 694.273 798.901 696.833 796.512C699.478 794.037 700.801 790.496 700.801 785.888C700.801 780.512 699.393 776.459 696.577 773.728C693.846 770.912 690.134 769.504 685.441 769.504C683.222 769.504 681.601 769.675 680.577 770.016C679.553 770.357 678.785 771.168 678.273 772.448C677.761 773.728 677.505 775.819 677.505 778.72V817.12ZM746.23 829.536C740.257 829.536 734.923 828.128 730.23 825.312C725.622 822.496 722.038 818.699 719.478 813.92C716.918 809.141 715.638 803.979 715.638 798.432C715.638 791.776 717.345 786.059 720.758 781.28C724.257 776.416 728.651 772.747 733.942 770.272C739.318 767.797 744.779 766.56 750.326 766.56C756.299 766.56 761.547 768.053 766.07 771.04C770.678 773.941 774.177 777.739 776.566 782.432C779.041 787.125 780.278 792.032 780.278 797.152C780.278 802.869 778.742 808.245 775.67 813.28C772.598 818.229 768.459 822.197 763.254 825.184C758.049 828.085 752.374 829.536 746.23 829.536ZM749.558 826.848C756.214 826.848 761.505 824.501 765.43 819.808C769.441 815.115 771.446 808.629 771.446 800.352C771.446 794.635 770.422 789.429 768.374 784.736C766.411 780.043 763.51 776.288 759.67 773.472C755.83 770.656 751.265 769.248 745.974 769.248C739.147 769.248 733.857 771.552 730.102 776.16C726.347 780.683 724.47 787.04 724.47 795.232C724.47 801.12 725.451 806.453 727.414 811.232C729.462 816.011 732.363 819.808 736.118 822.624C739.958 825.44 744.438 826.848 749.558 826.848ZM838.793 778.72C838.793 776.16 838.537 774.283 838.025 773.088C837.598 771.808 836.702 770.912 835.337 770.4C834.057 769.888 832.052 769.632 829.321 769.632C829.065 769.632 828.937 769.376 828.937 768.864C828.937 768.352 829.065 768.096 829.321 768.096L834.953 768.224C838.025 768.395 840.628 768.48 842.761 768.48C844.638 768.48 847.198 768.395 850.441 768.224L856.201 768.096C856.457 768.096 856.585 768.352 856.585 768.864C856.585 769.376 856.457 769.632 856.201 769.632C853.385 769.632 851.294 769.888 849.929 770.4C848.649 770.827 847.753 771.637 847.241 772.832C846.729 774.027 846.473 775.904 846.473 778.464V817.632C846.473 820.192 846.729 822.112 847.241 823.392C847.753 824.587 848.649 825.397 849.929 825.824C851.294 826.251 853.385 826.464 856.201 826.464C856.457 826.464 856.585 826.72 856.585 827.232C856.585 827.744 856.457 828 856.201 828C853.812 828 851.892 827.957 850.441 827.872L842.761 827.744L834.953 827.872C833.588 827.957 831.71 828 829.321 828C829.065 828 828.937 827.744 828.937 827.232C828.937 826.72 829.065 826.464 829.321 826.464C832.137 826.464 834.185 826.251 835.465 825.824C836.745 825.397 837.598 824.587 838.025 823.392C838.537 822.112 838.793 820.192 838.793 817.632V778.72ZM797.705 819.424L842.121 775.008L844.041 776.8L799.497 821.216L797.705 819.424ZM795.273 778.464C795.273 775.904 795.017 774.027 794.505 772.832C794.078 771.637 793.182 770.827 791.817 770.4C790.537 769.888 788.489 769.632 785.673 769.632C785.502 769.632 785.417 769.376 785.417 768.864C785.417 768.352 785.502 768.096 785.673 768.096L791.433 768.224C794.676 768.395 797.193 768.48 798.985 768.48C801.118 768.48 803.806 768.395 807.049 768.224L812.553 768.096C812.724 768.096 812.809 768.352 812.809 768.864C812.809 769.376 812.724 769.632 812.553 769.632C809.822 769.632 807.774 769.888 806.409 770.4C805.044 770.912 804.105 771.808 803.593 773.088C803.166 774.283 802.953 776.16 802.953 778.72V817.632C802.953 820.277 803.166 822.197 803.593 823.392C804.105 824.587 805.001 825.397 806.281 825.824C807.561 826.251 809.652 826.464 812.553 826.464C812.724 826.464 812.809 826.72 812.809 827.232C812.809 827.744 812.724 828 812.553 828C810.164 828 808.286 827.957 806.921 827.872L798.985 827.744L791.433 827.872C789.982 827.957 788.02 828 785.545 828C785.374 828 785.289 827.744 785.289 827.232C785.289 826.72 785.374 826.464 785.545 826.464C788.361 826.464 790.409 826.251 791.689 825.824C793.054 825.397 793.993 824.587 794.505 823.392C795.017 822.112 795.273 820.192 795.273 817.632V778.464ZM820.745 760.416C823.134 760.416 825.097 759.691 826.633 758.24C828.169 756.789 829.236 754.912 829.833 752.608C830.43 750.56 831.07 749.024 831.753 748C832.436 746.976 833.545 746.464 835.081 746.464C836.276 746.464 837.172 746.848 837.769 747.616C838.452 748.299 838.793 749.237 838.793 750.432C838.793 752.395 837.94 754.272 836.233 756.064C834.526 757.856 832.265 759.307 829.449 760.416C826.718 761.44 823.86 761.952 820.873 761.952C817.886 761.952 815.028 761.397 812.297 760.288C809.566 759.179 807.348 757.728 805.641 755.936C804.02 754.144 803.209 752.267 803.209 750.304C803.209 747.744 804.446 746.464 806.921 746.464C808.457 746.464 809.524 746.976 810.121 748C810.804 748.939 811.486 750.475 812.169 752.608C813.62 757.813 816.478 760.416 820.745 760.416Z" fill="black"/>
<defs>
<linearGradient id="paint0_linear_6361_1053" x1="530.447" y1="407.565" x2="538.557" y2="379.054" gradientUnits="userSpaceOnUse">
<stop stop-color="#D7BA9E"/>
<stop offset="1" stop-color="#EBEEEF"/>
</linearGradient>
<linearGradient id="paint1_linear_6361_1053" x1="647.064" y1="547.745" x2="683.011" y2="520.198" gradientUnits="userSpaceOnUse">
<stop stop-color="#D4C399"/>
<stop offset="1" stop-color="#F2E5F1"/>
</linearGradient>
</defs>
</svg>
