<svg width="1024" height="1024" viewBox="0 0 1024 1024" fill="none" xmlns="http://www.w3.org/2000/svg">
<rect width="1024" height="1024" fill="white"/>
<rect x="138.5" y="368.5" width="286.415" height="286.415" fill="white" stroke="black" stroke-width="13"/>
<line x1="484.084" y1="658.914" x2="891" y2="658.914" stroke="black" stroke-width="5"/>
<path d="M342.96 583.08V585H258.24L195.84 585.24V582.84L311.04 582.6V419.64L319.44 415.32V583.08H342.96ZM219.84 584.04L217.68 582.84L312.48 452.28L314.4 453.72L219.84 584.04ZM363.6 567.24L324.48 602.76L322.08 600.6L361.44 565.08L363.6 567.24Z" fill="black"/>
<path d="M573.493 414.6C585.493 414.76 596.773 417.16 607.333 421.8C617.893 426.28 627.093 432.44 634.933 440.28C642.773 448.12 648.933 457.24 653.413 467.64C658.053 478.04 660.373 489.24 660.373 501.24C660.373 513.4 658.053 524.76 653.413 535.32C648.773 545.88 642.453 555.08 634.453 562.92C626.453 570.76 617.173 577 606.613 581.64C596.053 586.12 584.773 588.44 572.773 588.6C560.453 588.76 548.853 586.6 537.973 582.12C527.253 577.48 517.893 571.24 509.893 563.4C501.893 555.56 495.573 546.36 490.933 535.8C486.293 525.24 483.973 513.96 483.973 501.96C483.973 489.96 486.293 478.68 490.933 468.12C495.573 457.4 501.893 448.12 509.893 440.28C518.053 432.28 527.573 425.96 538.453 421.32C549.333 416.68 561.013 414.44 573.493 414.6ZM572.773 585.72C584.133 585.72 594.533 583.56 603.973 579.24C613.573 574.92 621.813 569.08 628.693 561.72C635.733 554.36 641.253 545.8 645.253 536.04C649.253 526.28 651.333 515.88 651.493 504.84C651.653 493.48 649.733 482.52 645.733 471.96C641.893 461.4 636.453 452.12 629.413 444.12C622.373 436.12 613.893 429.72 603.973 424.92C594.213 419.96 583.413 417.48 571.573 417.48C560.373 417.48 549.973 419.72 540.373 424.2C530.773 428.52 522.373 434.44 515.173 441.96C508.133 449.48 502.613 458.36 498.613 468.6C494.773 478.84 492.853 489.72 492.853 501.24C492.853 512.76 494.853 523.64 498.853 533.88C503.013 544.12 508.613 553.08 515.653 560.76C522.853 568.44 531.333 574.52 541.093 579C550.853 583.48 561.413 585.72 572.773 585.72ZM859.837 506.04V423L766.957 585H764.077L859.837 418.68L868.237 414.84V585H859.837V506.04ZM758.317 506.04V423L665.437 585H662.557L758.317 418.68L766.717 414.84V585H758.317V506.04Z" fill="black"/>
</svg>
