<svg width="159" height="159" viewBox="0 0 159 159" fill="none" xmlns="http://www.w3.org/2000/svg">
<rect width="159" height="159" fill="white"/>
<path d="M91.26 58.3694L57.5339 77.4451L52.3185 70.7332L50.5801 66.4942L50.9278 62.2552L52.6662 59.0759L55.7955 56.6031L59.9678 54.1303L75.9616 44.9458L79.7862 44.2393L83.6108 45.299L91.26 49.8913V58.3694Z" fill="white"/>
<path fill-rule="evenodd" clip-rule="evenodd" d="M62.4003 52.2172C67.946 48.9503 73.667 45.7331 75 44.9998C80.5 42.5 81.1033 43.0241 94.3337 50.7391C101.057 54.6595 107.167 58.4676 107.912 59.201C109.621 60.8817 109.948 66.2858 108.554 69.7979C107.714 71.9131 106.347 73.016 100.013 76.6863C92.4298 81.0801 90.6878 81.6975 89.8353 80.2958C89.3019 79.4191 89.384 65.7277 89.9438 62.1457C90.2309 60.3102 90.0898 59.7937 89.3492 59.9753C87.8632 60.3406 61.7049 76.1833 61.7049 76.6863C61.7049 76.9286 64.1297 77.9524 67.0941 79.648C85.9377 90.4286 87.6434 91.7073 88.8416 95.9513C89.603 98.648 89.7504 107.97 89.0857 111.347C88.8367 112.612 88.2164 113.555 87.6344 113.555C87.0753 113.555 82.1861 111.056 76.769 108.002C71.352 104.948 64.2542 100.988 60.9949 99.202C54.6593 95.7295 51.8082 93.2058 50.6233 90.0181C50.2019 88.8855 49.8841 82.6478 49.8848 75.5347C49.8855 67.0065 49.7591 63.1078 51.4126 60.2858C52.9688 57.6299 56.1015 55.9275 62.4003 52.2172ZM69.1761 49.4484C64.4934 52.162 59.2537 55.1746 57.5326 56.1432C53.7799 58.4553 52.221 60.0141 51.2436 63.1101C50.2554 67.4565 51.4383 69.9625 55.8971 72.9694C58.7662 74.9045 59.8349 76.0566 60.7946 75.6023C61.5018 75.2667 68.5816 70.6881 76.2398 66.2194L90.1635 58.0946L90.1899 54.692C90.2233 50.2601 89.5272 49.0788 85.5322 46.7947C80.0735 43.6727 78.7801 43.8825 69.1761 49.4484Z" fill="black"/>
<path d="M50.6233 90.2566C50.2019 89.1241 49.8841 82.8863 49.8848 75.7732C49.8851 71.791 49.8577 68.8183 49.9968 66.4932H50.9383C51.1253 69.075 52.6339 71.0073 55.8971 73.2079C58.7662 75.143 61.7043 76.7375 61.7043 76.7375C61.7043 76.7375 64.1297 78.1909 67.0941 79.8865C85.9377 90.6671 87.6434 91.9458 88.8416 96.1898C89.603 98.8866 89.7504 108.208 89.0857 111.586C88.8367 112.851 88.2164 113.794 87.6344 113.794C87.0753 113.794 82.1861 111.295 76.769 108.241C71.352 105.186 64.2542 101.227 60.9949 99.4405C54.6593 95.968 51.8082 93.4443 50.6233 90.2566Z" fill="#283106"/>
</svg>
