<svg width="1024" height="1024" viewBox="0 0 1024 1024" fill="none" xmlns="http://www.w3.org/2000/svg">
<g clip-path="url(#clip0_6364_1546)">
<path d="M0 0H1024V1024H0V0Z" fill="white"/>
<path d="M485.206 345.349L486.541 345.316C551.11 343.85 623.072 347.731 687.272 351.82L725.237 354.414C735.068 355.105 744.976 355.562 754.535 357.555C771.572 360.791 789.954 376.604 795.155 391.506C806.781 424.818 816.686 458.96 827.993 492.413C832.581 505.956 837.03 519.538 841.339 533.155C846.302 548.59 852.793 565.93 853 581.997C852.985 601.907 845.775 621.744 830.324 636.218C817.23 648.486 804.91 648.832 787.279 650.366L752.157 653.217C678.176 659.037 603.971 662.279 529.711 662.935C441.473 663.508 353.254 660.296 265.354 653.313C254.504 652.441 243.646 651.652 232.782 650.944C212.501 649.601 199.931 649.614 184.177 636.103C162.333 617.367 156.789 589.159 163.953 563.45C167.17 551.912 170.973 540.731 174.712 529.359L192.791 473.768L210.9 416.995C214.007 407.426 217.208 396.58 221.068 387.409C226.269 375.054 244.457 360.901 258.786 358.099C275.049 354.92 293.897 354.288 310.597 353.063C368.692 348.793 426.926 346.22 485.206 345.349Z" fill="black"/>
<path d="M700.183 472.816C701.835 474.608 715.287 529.859 717.337 537.438L701.722 537.447C696.072 537.457 690.232 537.269 684.566 537.156C690.596 516.603 694.599 493.871 700.183 472.816Z" fill="black"/>
<path d="M257.148 592.352C275.25 592.356 389.321 591.23 397.242 592.985C399.776 593.547 401.484 594.856 402.228 595.895C403.373 597.497 403.496 599.233 400.84 600.648C397.707 602.317 394.044 602.703 389.039 602.873L301.994 602.887C289.461 602.904 260.853 603.298 250.461 602.505C240.867 601.773 232.615 593.6 257.148 592.352Z" fill="white"/>
<path d="M604.626 594L764 594.038L763.549 602.947C710.366 602.82 657.183 602.838 604 603L604.626 594Z" fill="white"/>
<path d="M312.113 420.297L305.707 427.664C297.379 421.471 289.158 418.375 281.043 418.375C275.704 418.375 271.113 419.656 267.27 422.219C263.426 424.781 260.49 427.878 258.461 431.508C256.539 435.138 254.991 439.729 253.816 445.281C252.749 450.833 252.055 455.638 251.734 459.695C251.521 463.753 251.414 468.504 251.414 473.949C251.414 479.288 252.375 485.374 254.297 492.207C256.326 498.934 259.689 505.233 264.387 511.105C269.085 516.978 274.53 519.914 280.723 519.914C287.449 519.914 297.753 516.391 311.633 509.344C313.021 511.372 314.836 514.736 317.078 519.434C303.625 528.723 291.613 533.367 281.043 533.367C274.21 533.367 267.964 531.285 262.305 527.121C256.646 522.957 252.161 517.672 248.852 511.266C245.648 504.859 243.139 498.186 241.324 491.246C239.616 484.199 238.762 477.526 238.762 471.227C238.762 464.286 239.296 457.56 240.363 451.047C241.431 444.427 243.246 437.807 245.809 431.188C248.371 424.568 252.215 419.229 257.34 415.172C262.572 411.115 268.764 409.086 275.918 409.086C282.111 409.086 288.517 410.154 295.137 412.289C301.757 414.424 307.415 417.094 312.113 420.297ZM327.488 408.285L334.695 409.887C334.802 411.915 335.496 427.878 336.777 457.773C339.66 457.346 342.863 457.133 346.387 457.133C360.48 457.133 372.012 461.137 380.98 469.145C389.949 477.046 394.434 486.335 394.434 497.012C394.434 518.686 381.034 529.523 354.234 529.523C347.294 529.523 340.941 528.99 335.176 527.922C329.41 526.854 326.1 525.52 325.246 523.918C325.566 514.949 325.833 496.798 326.047 469.465C326.26 442.025 326.741 421.632 327.488 408.285ZM337.578 469.785C338.326 492.527 338.859 507.689 339.18 515.27C346.547 516.23 353.007 516.711 358.559 516.711C373.507 516.711 380.98 509.611 380.98 495.41C380.98 488.043 377.777 481.85 371.371 476.832C365.072 471.707 356.743 469.145 346.387 469.145C343.184 469.145 340.247 469.358 337.578 469.785ZM413.012 409.406L420.219 411.008C420.539 416.026 421.874 453.823 424.223 524.398C423.262 527.602 421.447 529.203 418.777 529.203C416.855 529.203 414.987 528.402 413.172 526.801C411.357 525.306 410.236 523.438 409.809 521.195C410.022 513.508 410.396 496.531 410.93 470.266C411.57 444 412.264 423.714 413.012 409.406ZM432.391 418.535L430.789 411.328L491.969 407.805C494.638 407.911 496.88 408.872 498.695 410.688C500.51 412.503 501.418 414.478 501.418 416.613C501.418 418.001 500.884 419.229 499.816 420.297C498.749 421.365 497.147 422.005 495.012 422.219L468.105 420.777C470.775 458.467 472.75 492.741 474.031 523.598C473.07 526.801 471.255 528.402 468.586 528.402C466.664 528.402 464.796 527.602 462.98 526C461.165 524.505 460.044 522.637 459.617 520.395C459.831 514.629 459.938 505.874 459.938 494.129C459.938 489.751 459.884 483.185 459.777 474.43C459.777 465.674 459.777 459.108 459.777 454.73C459.777 442.025 459.991 430.547 460.418 420.297C448.353 419.443 439.01 418.855 432.391 418.535ZM557.312 410.848L566.602 408.926C568.523 423.98 569.698 444.908 570.125 471.707C570.659 498.4 571.193 516.07 571.727 524.719C570.766 528.029 568.897 529.684 566.121 529.684C564.199 529.684 562.331 528.883 560.516 527.281C558.807 525.68 557.74 523.758 557.312 521.516C557.419 517.672 557.473 511.266 557.473 502.297V470.746C555.124 470.853 551.814 471.12 547.543 471.547C543.379 471.867 539.535 472.134 536.012 472.348C532.595 472.561 529.339 472.668 526.242 472.668C523.466 472.668 521.438 472.615 520.156 472.508C520.37 479.021 520.743 488.257 521.277 500.215C521.811 512.066 522.185 520.234 522.398 524.719C521.438 528.029 519.569 529.684 516.793 529.684C514.871 529.684 513.003 528.883 511.188 527.281C509.479 525.68 508.411 523.758 507.984 521.516C508.305 512.333 508.572 494.503 508.785 468.023C509.105 441.544 509.639 421.845 510.387 408.926L517.594 410.527C517.594 410.848 517.594 411.382 517.594 412.129C517.701 412.77 517.754 413.303 517.754 413.73C519.142 439.996 519.943 456.439 520.156 463.059C523.786 462.738 527.63 462.418 531.688 462.098C535.852 461.671 540.389 461.243 545.301 460.816C550.319 460.283 554.216 459.909 556.992 459.695C557.099 459.695 557.152 459.161 557.152 458.094C557.152 457.026 557.152 452.702 557.152 445.121C557.259 437.54 557.312 426.116 557.312 410.848ZM587.102 408.285L594.309 409.887C594.415 411.915 595.109 427.878 596.391 457.773C599.273 457.346 602.477 457.133 606 457.133C620.094 457.133 631.625 461.137 640.594 469.145C649.562 477.046 654.047 486.335 654.047 497.012C654.047 518.686 640.647 529.523 613.848 529.523C606.908 529.523 600.555 528.99 594.789 527.922C589.023 526.854 585.714 525.52 584.859 523.918C585.18 514.949 585.447 496.798 585.66 469.465C585.874 442.025 586.354 421.632 587.102 408.285ZM597.191 469.785C597.939 492.527 598.473 507.689 598.793 515.27C606.16 516.23 612.62 516.711 618.172 516.711C633.12 516.711 640.594 509.611 640.594 495.41C640.594 488.043 637.391 481.85 630.984 476.832C624.685 471.707 616.357 469.145 606 469.145C602.797 469.145 599.861 469.358 597.191 469.785ZM672.625 409.406L679.832 411.008C680.152 416.026 681.487 453.823 683.836 524.398C682.875 527.602 681.06 529.203 678.391 529.203C676.469 529.203 674.6 528.402 672.785 526.801C670.97 525.306 669.849 523.438 669.422 521.195C669.635 513.508 670.009 496.531 670.543 470.266C671.184 444 671.878 423.714 672.625 409.406ZM714.105 396.113L712.984 390.988C715.547 391.309 718.056 391.469 720.512 391.469C727.879 391.469 734.659 389.44 740.852 385.383C743.307 385.596 745.389 386.344 747.098 387.625C748.913 388.906 749.82 390.401 749.82 392.109C749.82 396.06 744.535 398.035 733.965 398.035C726.598 398.035 719.978 397.395 714.105 396.113ZM699.371 408.605L706.578 410.207C707.646 427.824 708.874 457.133 710.262 498.133C731.082 461.083 745.389 431.294 753.184 408.766C754.785 407.484 756.333 406.844 757.828 406.844C760.177 406.844 762.099 408.232 763.594 411.008C765.195 413.784 766.049 416.934 766.156 420.457C766.477 430.387 766.743 447.15 766.957 470.746C767.277 494.342 767.704 511.96 768.238 523.598C767.277 526.801 765.462 528.402 762.793 528.402C760.871 528.402 759.003 527.602 757.188 526C755.372 524.505 754.251 522.637 753.824 520.395C754.145 511.105 754.305 496.852 754.305 477.633C754.411 458.414 754.518 445.441 754.625 438.715C752.276 442.772 748.165 450.46 742.293 461.777C736.421 473.095 730.975 482.811 725.957 490.926C721.046 499.04 715.974 506.087 710.742 512.066L711.383 525.039C710.422 528.349 708.553 530.004 705.777 530.004C703.855 530.004 701.987 529.203 700.172 527.602C698.464 526 697.396 524.078 696.969 521.836C697.289 512.76 697.609 494.983 697.93 468.504C698.25 442.025 698.73 422.059 699.371 408.605ZM427.83 627.002L424.051 626.162C424.051 625.546 423.939 623.727 423.715 620.703C423.491 617.68 423.379 615.496 423.379 614.152C423.379 613.033 423.463 611.829 423.631 610.541H429.09C429.37 609.589 429.818 608.161 430.434 606.258C431.105 604.354 431.553 603.01 431.777 602.227C432.001 601.443 432.309 600.295 432.701 598.783C433.149 597.215 433.429 595.9 433.541 594.836C433.709 593.716 433.849 592.344 433.961 590.721C434.129 589.097 434.213 587.389 434.213 585.598C434.213 581.398 434.045 576.667 433.709 571.404C436.844 571.572 440.148 571.684 443.619 571.74C447.146 571.796 450.03 571.88 452.27 571.992C454.509 572.104 456.805 572.356 459.156 572.748C459.324 576.555 459.492 582.826 459.66 591.561C459.884 600.239 460.08 606.482 460.248 610.289H466.799V612.809C466.799 614.264 466.827 616.336 466.883 619.023C466.995 621.711 467.051 623.503 467.051 624.398C467.051 626.078 466.995 627.366 466.883 628.262L463.104 627.422C462.88 626.638 462.656 625.63 462.432 624.398C462.264 623.223 462.068 621.935 461.844 620.535C461.62 619.135 461.452 618.128 461.34 617.512C458.148 617.344 453.053 617.008 446.055 616.504C439.112 616 433.681 615.664 429.762 615.496L427.83 627.002ZM440.764 576.695C440.708 577.535 440.652 579.299 440.596 581.986C440.54 584.618 440.456 586.633 440.344 588.033C440.288 589.433 440.12 591.393 439.84 593.912C439.616 596.376 439.308 598.447 438.916 600.127C438.524 601.751 437.936 603.542 437.152 605.502C436.424 607.406 435.557 609.057 434.549 610.457H452.941L454.621 577.367C453.837 577.311 451.766 577.227 448.406 577.115C445.103 577.003 442.555 576.863 440.764 576.695ZM474.021 572.916C482.7 571.068 487.991 570.145 489.895 570.145C497.397 570.145 501.148 573.364 501.148 579.803C501.148 582.042 500.757 584.226 499.973 586.354C499.245 588.425 498.321 589.797 497.201 590.469C501.568 593.436 503.752 597.523 503.752 602.73C503.752 607.658 502.128 611.493 498.881 614.236C495.689 616.98 491.462 618.352 486.199 618.352C479.928 618.352 475.253 616.672 472.174 613.312L474.021 572.916ZM478.809 593.996L479.564 611.045C480.964 611.717 482.56 612.053 484.352 612.053C487.823 612.053 491.014 610.961 493.926 608.777C496.837 606.594 498.293 604.046 498.293 601.135C498.293 599.119 497.509 597.271 495.941 595.592C494.374 593.856 492.386 592.988 489.979 592.988C488.579 592.988 484.855 593.324 478.809 593.996ZM477.969 576.695L478.557 589.629C479.396 589.517 480.684 589.433 482.42 589.377C484.156 589.321 485.555 589.209 486.619 589.041C487.683 588.817 488.859 588.397 490.146 587.781C491.434 587.109 492.442 585.962 493.17 584.338C493.954 582.714 494.486 580.587 494.766 577.955C494.206 576.275 492.498 575.436 489.643 575.436C488.355 575.436 486.339 575.632 483.596 576.023C480.852 576.415 478.977 576.639 477.969 576.695ZM510.555 598.111C510.555 595.872 510.779 593.38 511.227 590.637C511.73 587.893 512.458 585.01 513.41 581.986C514.362 578.963 515.79 576.443 517.693 574.428C519.597 572.412 521.809 571.404 524.328 571.404C529.703 571.404 534.014 573.84 537.262 578.711C540.509 583.526 542.133 588.901 542.133 594.836C542.133 597.355 541.853 599.875 541.293 602.395C540.789 604.858 539.977 607.294 538.857 609.701C537.738 612.109 536.114 614.124 533.986 615.748C531.915 617.316 529.479 618.212 526.68 618.436C521.529 617.764 517.553 615.58 514.754 611.885C511.954 608.133 510.555 603.542 510.555 598.111ZM524.832 575.771C522.872 575.995 521.221 577.787 519.877 581.146C518.533 584.506 517.665 587.781 517.273 590.973C516.882 594.108 516.686 596.88 516.686 599.287C516.686 602.423 517.637 605.334 519.541 608.021C521.501 610.653 523.684 611.969 526.092 611.969C527.827 611.969 529.395 611.297 530.795 609.953C532.195 608.609 533.286 606.958 534.07 604.998C534.91 602.982 535.526 600.967 535.918 598.951C536.366 596.936 536.59 595.144 536.59 593.576C536.59 588.985 535.554 584.982 533.482 581.566C531.411 578.151 528.527 576.219 524.832 575.771ZM549.943 571.824L554.646 572.664C554.646 573.84 554.674 574.708 554.73 575.268C557.81 573.308 560.917 572.328 564.053 572.328C569.148 572.328 573.123 574.512 575.979 578.879C578.834 583.246 580.262 588.201 580.262 593.744C580.262 596.544 580.038 599.231 579.59 601.807C579.198 604.326 578.47 606.93 577.406 609.617C576.342 612.249 574.691 614.376 572.451 616C570.268 617.568 567.608 618.352 564.473 618.352C561.505 618.352 558.65 617.568 555.906 616C556.13 625.798 556.326 633.077 556.494 637.836C555.99 639.572 555.01 640.439 553.555 640.439C552.547 640.439 551.567 640.02 550.615 639.18C549.719 638.396 549.16 637.416 548.936 636.24L549.943 571.824ZM555.402 580.727L555.654 607.854C556.326 609.197 557.362 610.289 558.762 611.129C560.161 611.913 561.701 612.305 563.381 612.305C565.564 612.305 567.412 611.605 568.924 610.205C570.492 608.805 571.583 606.958 572.199 604.662C572.871 602.311 573.319 600.127 573.543 598.111C573.823 596.096 573.963 593.968 573.963 591.729C573.963 582.21 570.743 577.451 564.305 577.451C562.233 577.451 560.301 577.759 558.51 578.375C556.774 578.935 555.738 579.719 555.402 580.727Z" fill="white"/>
</g>
<defs>
<clipPath id="clip0_6364_1546">
<rect width="1024" height="1024" fill="white"/>
</clipPath>
</defs>
</svg>
