<svg width="1039" height="1024" viewBox="0 0 1039 1024" fill="none" xmlns="http://www.w3.org/2000/svg">
<g clip-path="url(#clip0_6364_1319)">
<path d="M0 0H1039V1024H0V0Z" fill="white"/>
<path d="M204.307 449.168C213.572 449.214 219.182 455.192 227.653 458.411C234.955 462.003 245.038 467.353 251.327 472.23C257.155 476.75 257.347 493.12 257.499 499.6C258.052 523.169 253.354 545.103 247.534 567.766C266.187 574.943 284.777 582.278 303.303 589.767C307.781 592.121 319.778 596.592 325.004 598.657C331.409 601.189 344.916 607.226 351.158 608.861C364.518 614.78 380.238 620.234 394.08 625.798C411.17 600.781 430.781 577.7 457.107 561.815C463.316 558.069 469.978 554.183 476.922 551.981C486.669 555.406 496.153 559.138 505.701 563.064C509.323 564.554 514.948 566.376 518.226 568.05C524.858 577.782 530.501 597.237 533.46 608.909C540.668 610.271 549.98 615.182 556.684 618.538C560.076 625.26 560.073 631.323 560.568 638.701L561.189 639.103C567.495 643.122 578.618 645.726 579.528 652.102C581.908 668.763 576.254 688.58 571.729 704.185C583.198 707.979 598.104 712.682 608.788 717.984C618.943 723.024 602.839 753.044 592.533 750.595C579.923 747.599 567.526 742.174 554.905 738.51C548.112 748.84 543.784 755.112 535.366 764.395L526.923 773.501C522.605 777.213 516.985 782.338 512.367 785.426C505.73 782.498 499.645 778.925 492.659 775.99C488.157 778.663 485.379 780.358 480.549 782.37C474.766 780.816 468.215 778.325 462.503 776.31C452.909 781.066 443.111 789.465 433.688 794.725C429.884 793.259 424.385 791.745 420.332 790.391C408.81 786.564 397.325 782.628 385.88 778.583C384.642 773.469 381.007 764.585 379.227 759.016C372.086 736.678 370.167 716.994 373.394 693.767C359.233 685.147 344.229 676.875 329.949 668.345C323.14 664.277 316.061 660.887 309.281 656.59L310.003 639.108C301.535 636.286 292.034 632.415 283.503 629.313C265.726 623.016 248.009 616.554 230.355 609.929C214.843 637.652 197.386 662.049 171.632 681.602C160.484 678.12 147.267 671.158 135.332 668.37C133.272 667.889 123.388 665.094 122.635 663.844C118.385 656.787 119.951 634.978 120.17 627.452C109.378 624.771 96.707 615.467 85.5851 614.573C82.6915 614.341 80.5613 615.917 78.1743 613.276C76.9971 609.691 77.6183 603.939 77.4986 600.034C76.9671 582.704 78.8189 568.753 81.5772 551.771C74.7028 549.262 57.9705 545.268 53.7475 539.931C47.5914 532.151 56.8092 508.309 64.6962 503.785C69.7753 500.871 88.493 507.534 94.5726 509.286C104.84 496.263 123.454 480.813 138.183 472.348C146.325 467.668 157.931 472.77 166.499 475.681C176.867 466.82 191.195 452.261 204.307 449.168Z" fill="#020202"/>
<path d="M310.004 639.109C314.123 640.525 331.685 646.217 334.01 647.744C335.074 649.517 372.086 668.796 377.724 672.102C376.018 679.302 374.181 686.403 373.395 693.768C359.233 685.148 344.23 676.876 329.95 668.346C323.14 664.278 316.061 660.888 309.281 656.591L310.004 639.109Z" fill="black"/>
<path d="M334.01 647.742C346.313 652.111 367.255 659.712 379.293 665.013C378.793 667.378 378.319 669.758 377.724 672.1C372.085 668.794 335.073 649.515 334.01 647.742Z" fill="white"/>
<path d="M475.112 557.445C475.221 557.569 475.329 557.694 475.438 557.818C486.673 585.063 487.576 615.841 481.763 644.439C477.029 667.733 469.295 688.9 456.818 709.221C447.179 724.92 438.071 737.991 422.697 748.66C403.157 762.571 396.657 744.829 394.54 728.334C391.982 708.405 394.75 691.772 399.526 672.559C404.923 674.346 410.293 676.209 415.637 678.147C417.793 689.03 427.75 696.187 438.843 691.461C448.916 687.17 453.889 679.397 457.927 669.831C458.165 669.14 458.391 668.444 458.602 667.744C464.768 647.15 456.002 626.359 431.508 640.032C427.927 638.98 419.185 635.66 416.103 633.81C413.324 628.416 436.435 604.765 441.263 601.047C448.487 595.485 457.459 588.463 467.187 588.741C470.656 588.84 474.661 589.407 478.164 589.697C479.511 588.786 478.917 589.341 479.635 587.646C479.307 586.644 479.062 585.838 477.9 585.429C449.975 575.617 420.635 613.421 409.855 631.837C406.517 630.367 403.006 629.014 399.609 627.658C401.649 623.755 406.942 616.443 409.717 612.692C428.092 587.855 447.556 571.595 475.112 557.445Z" fill="white"/>
<path d="M245.913 572.805C254.223 575.621 264.622 579.979 272.897 583.184C298.02 593.045 323.082 603.057 348.081 613.22L417.591 640.361C425.27 643.387 434.591 646.523 441.842 649.708C446.99 656.952 439.702 675.538 430.917 678.386C423.689 676.295 412.997 671.911 405.698 669.216C388.395 662.93 371.162 656.456 354.003 649.796C332.771 641.801 311.471 633.982 290.106 626.34C271.022 619.248 251.881 612.309 232.684 605.522C237.789 594.251 241.599 584.373 245.913 572.805Z" fill="white"/>
<path d="M481.409 559.148C490.911 562.424 501.449 566.57 510.823 570.193C512.525 576.542 514.268 583.165 515.587 589.585C527.463 647.382 504.428 711.883 463.286 753.761C451.591 765.665 437.789 774.488 426.112 785.696L425.466 786.323C423.23 787.244 400.988 778.807 396.637 777.424C426.424 761.008 456.978 723.328 470.755 692.831C490.139 649.919 497.594 604.031 481.409 559.148Z" fill="white"/>
<path d="M216.128 458.68C220.952 460.25 247.13 474.313 249.024 477.983C255.381 493.26 252.003 518.67 249.721 534.417C242.698 582.879 211.896 646.558 170.702 675.67C168.841 675.806 144.769 665.887 140.945 664.466C185.599 636.563 214.714 570.4 220.772 520.327C223.515 497.649 223.753 480.695 216.128 458.68Z" fill="white"/>
<path d="M203.301 454.586C204.653 454.487 205.112 454.526 206.471 454.568C209.357 456.212 210.4 459.762 211.261 462.89C217.151 484.282 216.504 511.572 212.551 533.286C210.983 541.9 201.64 564.176 197.185 571.774C200.269 559.621 205.289 548.28 208.053 534.567C212.283 513.584 216.912 483.407 205.391 464.282C204.547 462.88 203.518 461.633 201.888 461.334L201.003 461.98C201.413 464.667 203.915 467.866 204.666 470.466C215.06 506.463 200.748 552.476 185.423 584.654C179.337 596.547 171.303 607.619 159.481 614.478C164.75 602.458 170.68 591.423 173.224 578.51C169.682 584.093 166.886 589.886 162.892 595.287C161.597 598.277 159.325 595.886 158.52 597.054C151.942 606.586 144.024 616.098 132.447 620.028C137.437 614.11 145.404 604.944 150.069 597.936C168.883 569.666 186.71 525.473 182.575 491.392C181.68 484.016 177.631 481.425 172.25 477.935C178.498 471.799 195.216 457.063 203.301 454.586Z" fill="white"/>
<path d="M151.762 476.152C156.022 477.153 172.177 482.88 174.611 486.128C179.469 492.612 178.073 508.775 176.883 516.433C172.063 547.465 158.015 580.697 138.268 605.409C132.929 612.09 126.397 617.604 119.686 622.605C117.26 621.725 114.666 620.444 112.303 619.355C107.227 617.139 102.062 615.053 97.3242 612.212C102.726 610.652 108.861 609.15 114.454 608.665C118.84 608.285 130.427 592.912 129.751 589.813C125.746 590.416 125.475 590.273 121.522 589.625C124.642 584.797 128.212 580.207 131.283 575.257C140.194 560.697 147.231 545.101 152.235 528.828C157.646 510.876 161.167 493.118 151.762 476.152Z" fill="white"/>
<path d="M138.167 583.344L138.751 584.074C137.757 593.876 126.166 612.078 116.362 614.977L115.736 613.721C116.435 612.283 120.194 608.59 121.542 607.306C127.881 601.272 132.536 588.951 138.167 583.344Z" fill="#020202"/>
<path d="M535.123 613.262C540.74 615.281 548.331 619.097 553.655 621.826C556.221 630.566 556.406 641.438 555.419 650.415C550.497 695.204 532.223 735.7 496.593 764.631C498.855 760.892 505.994 753.649 504.056 749.353C498.602 746.073 495.943 752.617 493.469 756.218C491.711 758.776 490.322 760.353 488.18 762.582C485.668 764.437 483.055 765.934 481.503 768.495C481.289 770.565 481.096 769.601 482.213 771.468C484.337 772.565 485.091 772.036 487.73 771.557C487.19 772.53 481.824 775.45 480.452 776.262C475.351 775.561 472.831 775.169 468.252 772.539C482.4 760.729 489.189 753.501 499.567 738.304C518.684 710.31 530.927 679.349 534.969 645.773C536.265 635.012 537.3 624.036 535.123 613.262Z" fill="white"/>
<path d="M560.643 643.949C565.142 646.155 569.84 648.609 574.539 650.296C577.615 662.936 572.678 686.469 568.455 698.662C559.645 724.102 544.505 751.212 524.27 769.464C520.63 772.748 516.109 777.479 511.781 779.642C507.729 778.104 499.294 773.365 495.037 771.178C503.774 763.019 511.128 757.756 519.279 748.357C546.428 717.046 556.623 683.765 560.643 643.949Z" fill="white"/>
<path d="M529.789 743.805C532.281 744.245 533.206 744.297 533.521 746.799C531.746 752.122 516.058 770.272 511.316 773.79C502.328 768.667 510.195 764.139 515.065 758.938C519.454 754.251 524.795 747.529 529.789 743.805Z" fill="#020202"/>
<path d="M126.141 500.055C130.541 499.829 134.77 501.168 136.423 505.67C140.517 516.81 137.882 531.953 133.784 542.885C129.776 553.58 123.472 569.651 112.849 575.703C106.26 578.953 102.218 571.2 100.017 570.388C99.3106 572.299 99.7708 572.716 100.137 575.054L99.9493 576.02L99.2504 576.063C96.8601 574.683 96.2001 573.853 94.2829 571.935C93.018 565.693 92.8674 562.959 93.1353 556.594L98.118 557.54C106.98 549.938 118.261 528.574 111.981 516.147C110.344 512.91 106.667 512.36 103.269 511.65C107.944 507.686 120.058 502.033 126.141 500.055Z" fill="white"/>
<path d="M118.357 514.852C127.727 514.958 120.759 541.222 117.941 546.061C114.642 551.729 113.547 554.552 106.956 556.829C105.937 556.743 105.505 556.651 104.502 556.463C104.446 555.458 110.144 551.203 112.113 548.227C118.155 539.099 120.103 525.348 118.357 514.852Z" fill="#020202"/>
<path d="M384.639 667.25C388.411 668.145 391.799 669.458 395.369 670.912C389.089 690.998 387.222 711.539 390.449 732.384C391.699 740.454 394.457 750.74 401.656 755.569C406.981 759.14 411.127 757.988 416.988 756.951C413.655 759.455 409.898 762.715 406.64 765.402C403.189 768.233 396.121 773.029 391.812 774.191C387.604 773.337 382.37 751.706 381.19 747.283C373.792 719.565 377.829 694.277 384.639 667.25Z" fill="white"/>
<path d="M65.173 507.64C73.2589 506.558 80.4376 510.675 89.1237 511.811L89.9381 511.914C85.2962 512.045 82.3974 511.817 77.7348 511.402C77.5727 513.761 77.6256 516.411 77.6175 518.798C83.4225 521.679 103.098 526.562 107.75 530.812C109.264 532.195 105.089 540.148 103.828 542.624C101.601 546.3 99.7959 548.683 96.8033 551.729C91.4581 548.885 77.093 544.802 71.3038 543.023C54.3925 537.826 53.3779 535.99 59.4369 519.4C60.9487 515.261 60.6597 510.469 65.173 507.64Z" fill="white"/>
<path d="M69.384 510.585L69.8424 510.526C84.553 508.717 73.9424 530.977 67.7014 536.317C65.0581 536.599 63.9232 536.745 61.7559 535.147C60.6508 533.429 60.4649 530.452 61.2456 528.683C63.6122 523.32 64.2382 513.669 69.384 510.585Z" fill="#020202"/>
<path d="M570.052 707.605C575.445 710.102 605.102 719.568 606.851 722.405C608.048 724.345 607.293 727.676 606.673 729.671C604.631 736.239 600.176 743.288 593.874 746.526C586.043 744.264 578.119 741.355 570.412 738.643C572.45 734.122 575.255 729.717 577.936 725.55L582.773 727.23C587.556 729.23 598.645 734.88 602.639 729.353C603.675 722.345 587.321 717.408 582.179 715.792C572.847 720.796 570.692 728.032 565.789 737.092C562.65 736.444 560.272 735.581 557.248 734.549C561.997 725.086 565.764 717.376 570.052 707.605Z" fill="white"/>
<path d="M444.772 640.214C446.719 639.912 448.712 640.295 450.401 641.297C465.763 650.578 446.575 700.668 424.52 685.366C422.829 683.294 422.362 682.066 421.266 679.696C423.688 680.901 426.265 682.407 428.645 683.732C429.49 683.535 430.329 683.318 431.165 683.082C443.286 679.584 450.675 661.712 447.398 649.971C446.063 645.185 442.767 643.043 438.522 640.964C440.38 640.631 442.847 640.43 444.772 640.214Z" fill="white"/>
<path d="M90.1743 555.344C91.4279 557.207 87.1328 576.421 89.3798 583.357C97.2785 607.74 120.547 569.928 126.459 568.354L127.29 568.838C127.39 570.848 127.316 570.276 126.152 572.329C121.372 579.581 113.732 589.099 106.247 593.767C94.4167 601.145 85.9441 589.347 86.2502 578.101C86.4744 569.869 87.4981 563.3 90.1743 555.344Z" fill="white"/>
<path d="M143.914 475.305C149.687 481.471 150.882 490.074 150.614 498.226L150.59 498.789C147.407 485.872 148.002 472.861 129.427 483.525L129.15 482.24C134.484 478.79 137.704 477.047 143.914 475.305Z" fill="#F2EFF0"/>
<path d="M129.149 482.242L129.426 483.527C120.361 490.244 114.193 495.904 106.388 503.964C105.182 505.209 101.371 509.71 100.447 509.959L100.481 509.482C106.163 500.073 120.171 488.845 129.149 482.242Z" fill="white"/>
<path d="M81.8488 590.832C82.3571 592.703 82.8457 606.927 82.5296 609.013C80.1215 604.962 81.2531 595.393 81.8488 590.832Z" fill="#37353A"/>
<path d="M496.834 763.91L497.05 764.978C494.669 767.188 492.102 769.197 489.378 770.984L489.34 770.101C491.045 768.316 494.767 765.285 496.834 763.91Z" fill="#37353A"/>
<path d="M482.296 211.648C492.514 215.787 604.922 254.106 607.811 254.079C615.179 254.009 623.618 251.414 630.879 249.859L675.936 239.979C674.423 251.799 675.708 259.302 675.173 270.581C675.329 283.716 677.879 294.275 680.448 307.029C681.38 311.654 681.007 317.692 682.516 322.361C683.595 325.7 684.844 327.127 687.081 329.619C689.414 332.216 693.091 333.185 694.136 335.604C693.008 336.96 691.878 337.146 690.022 337.464C688.786 342.662 691.466 345.448 694.345 350.295C688.07 350.727 679.132 352.803 672.808 354.121L642.519 360.38C595.966 370.178 549.479 380.27 503.058 390.656C439.312 404.382 375.641 418.442 312.047 432.835L259.475 444.363C249.59 446.522 238.271 448.725 228.651 451.395C228.18 453.856 227.686 455.896 227.653 458.41C219.181 455.191 213.571 449.213 204.307 449.167C213.425 441.788 222.564 433.607 231.5 425.937L293.426 372.401L428.757 257.251C446.504 241.937 464.351 226.736 482.296 211.648Z" fill="white"/>
<path d="M482.296 211.648C492.514 215.787 604.922 254.106 607.811 254.079C615.179 254.009 623.618 251.414 630.879 249.859L675.936 239.979C710.254 232.499 877.163 193.997 893.905 189.501C901.357 187.499 901.515 184 891.876 201.997C890.542 202.113 884.51 203.411 875.134 205.552C819.494 218.26 646.085 260.697 637.78 262.429L561.885 278.583L436.879 305.847C425.149 308.483 400.825 312.707 390.9 315.772C386.202 317.223 353.431 346.696 348.188 351.177L270.177 417.302C263.484 422.845 256.636 428.202 249.64 433.368L572.465 362.29L648.638 345.852C656.113 344.205 800.766 309.437 848.246 298.96C856.481 297.142 861.792 296.056 862.958 295.999C861.943 300.499 860.929 301.999 859.914 306.999C853.639 307.431 679.132 352.803 672.808 354.121L642.519 360.38C595.966 370.178 549.479 380.27 503.058 390.656C439.312 404.382 375.641 418.442 312.047 432.835L259.475 444.363C249.59 446.522 238.271 448.725 228.651 451.395C228.18 453.856 227.686 455.896 227.653 458.41C219.181 455.191 213.571 449.213 204.307 449.167C213.425 441.788 222.564 433.607 231.5 425.937L293.426 372.401L428.757 257.251C446.504 241.937 464.351 226.736 482.296 211.648Z" fill="black"/>
<path d="M486.34 234.406C488.944 234.872 496.801 237.625 499.843 238.628C510.523 242.184 521.178 245.812 531.806 249.512C543.552 253.486 560.831 258.221 571.628 262.613C561.092 264.011 546.459 267.751 535.813 270.144L482.26 281.909L412.107 296.84C436.802 277.159 461.724 254.763 486.34 234.406Z" fill="white"/>
<path d="M846.217 309.997C851.766 305.393 853.32 307.497 859.915 306.997C850.547 337.962 827.625 411.031 817.037 441.786C810.202 441.721 803.366 441.723 796.531 441.791C800.041 431.446 808.819 411.13 811.212 401C814.256 392 813.858 391.017 814.763 390.5C817.3 383 846.081 318.204 846.217 309.997Z" fill="black"/>
<path d="M884.266 197.5C888.175 192.891 889.26 195.004 893.905 194.503C887.307 225.502 860.777 298.214 853.319 329.002C848.505 328.937 844.943 328.934 840.129 329.002C842.601 318.646 850.86 297.272 854.334 287C857.378 278 856.871 279 858.393 274.5C860.179 266.992 884.17 205.716 884.266 197.5Z" fill="black"/>
<path d="M768.058 613.199C775.182 613.555 782.622 613.487 789.783 613.516C786.76 620.679 784.539 628.734 781.818 636.155C769.987 643.471 757.769 652.599 746.145 660.413C713.414 682.414 681.698 705.923 648.547 727.317C644.068 736.447 640.295 747.693 636.465 757.293C625.992 783.556 614.054 810.129 604.327 836.606C578.586 816.022 553.004 793.693 526.924 773.501L535.367 764.395C550.673 776.061 565.092 788.186 580.148 800.109C585.559 804.394 593.244 811.304 598.714 815.017C603.751 804.365 608.373 791.809 612.758 780.735C619.586 763.479 626.559 746.28 633.679 729.14C643.989 704.459 654.124 679.708 664.086 654.888C669.33 642.135 676.771 626.198 680.905 613.486C685.66 613.499 690.796 613.612 695.519 613.477C692.228 624.021 686.779 636.722 682.517 647.129C676.498 662.028 670.382 676.889 664.17 691.711C688.603 675.368 712.873 658.789 736.978 641.977C745.092 636.323 754.711 630.388 762.289 624.152C764.363 622.446 766.926 615.845 768.058 613.199Z" fill="black"/>
<path d="M456.017 474.297C469.482 471.651 482.568 480.284 485.218 493.561C487.869 506.839 479.075 519.714 465.596 522.292C452.166 524.86 439.16 516.232 436.52 503.003C433.879 489.773 442.6 476.933 456.017 474.297Z" fill="white"/>
<path d="M353.023 474.539C359.535 474.472 367.558 473.643 373.12 477.579C379.119 481.825 377.266 487.236 373.538 492.359C368.627 497.061 359.834 495.979 353.1 495.91C352.993 488.833 353.044 481.628 353.023 474.539Z" fill="white"/>
<path d="M832.511 473.751C841.895 473.469 854.02 473.259 852.724 487.208C852.418 490.496 850.623 492.677 847.973 494.61C842.319 496.469 835.446 495.925 829.426 495.821C829.378 490.29 829.055 479.666 829.61 474.543C830.57 473.659 830.869 473.928 832.511 473.751Z" fill="white"/>
<path d="M268.283 552.805C277.348 552.798 286.412 552.888 295.474 553.074C309.542 566.888 323.507 580.804 337.368 594.82C338.986 596.457 350.321 607.636 351.159 608.862C344.917 607.227 331.41 601.19 325.004 598.658C319.779 596.593 307.781 592.122 303.303 589.768L303.447 588.948C294.45 577.372 277.582 564.118 268.283 552.805Z" fill="black"/>
<path d="M825.851 569.973C829.863 570.057 835.331 569.799 838.756 571.731C838.838 573.818 838.879 573.958 837.599 575.85C833.734 576.133 829.261 577.271 826.404 575.205C825.459 573.696 825.782 571.819 825.851 569.973Z" fill="white"/>
<path d="M259.514 532L287.48 487.868L301.876 499.078L282.288 532H259.514ZM371.024 532L351.436 499.078L365.714 487.868L393.798 532H371.024ZM336.332 515.48L330.786 513.592L369.49 464.858H391.792L334.326 532H318.986L261.402 464.858H283.704L322.526 513.592L316.98 515.48V464.858H336.332V515.48ZM434.701 533.77C426.755 533.77 419.636 532.315 413.343 529.404C407.128 526.415 402.211 522.245 398.593 516.896C395.053 511.547 393.283 505.332 393.283 498.252C393.283 491.251 394.974 485.115 398.357 479.844C401.818 474.573 406.538 470.483 412.517 467.572C418.495 464.583 425.3 463.088 432.931 463.088C440.719 463.088 447.405 464.819 452.991 468.28C458.576 471.663 462.863 476.461 465.853 482.676C468.921 488.891 470.455 496.207 470.455 504.624H409.095V491.526H459.835L452.165 496.246C451.85 492.313 450.867 488.969 449.215 486.216C447.641 483.463 445.478 481.339 442.725 479.844C439.971 478.349 436.746 477.602 433.049 477.602C429.037 477.602 425.536 478.428 422.547 480.08C419.636 481.653 417.355 483.895 415.703 486.806C414.129 489.638 413.343 492.981 413.343 496.836C413.343 501.477 414.365 505.45 416.411 508.754C418.456 512.058 421.445 514.575 425.379 516.306C429.312 518.037 434.071 518.902 439.657 518.902C444.691 518.902 449.765 518.194 454.879 516.778C459.992 515.283 464.594 513.199 468.685 510.524V523.74C464.279 526.887 459.127 529.365 453.227 531.174C447.405 532.905 441.23 533.77 434.701 533.77ZM492.623 464.858H562.007V532H542.301V470.758L551.387 479.726H502.417L510.913 472.41C511.306 477.209 511.621 481.653 511.857 485.744C512.172 489.756 512.329 493.375 512.329 496.6C512.329 509.501 510.402 518.863 506.547 524.684C502.771 530.505 496.635 533.416 488.139 533.416C485.779 533.416 483.498 533.141 481.295 532.59C479.171 532.118 477.086 531.292 475.041 530.112V515.834C476.457 516.385 477.834 516.817 479.171 517.132C480.587 517.368 481.885 517.486 483.065 517.486C487.077 517.486 489.948 515.677 491.679 512.058C493.488 508.361 494.393 502.303 494.393 493.886C494.393 490.11 494.236 485.783 493.921 480.906C493.685 476.029 493.252 470.679 492.623 464.858ZM614.697 533.77C606.751 533.77 599.632 532.315 593.339 529.404C587.124 526.415 582.207 522.245 578.589 516.896C575.049 511.547 573.279 505.332 573.279 498.252C573.279 491.251 574.97 485.115 578.353 479.844C581.814 474.573 586.534 470.483 592.513 467.572C598.491 464.583 605.296 463.088 612.927 463.088C620.715 463.088 627.401 464.819 632.987 468.28C638.572 471.663 642.859 476.461 645.849 482.676C648.917 488.891 650.451 496.207 650.451 504.624H589.091V491.526H639.831L632.161 496.246C631.846 492.313 630.863 488.969 629.211 486.216C627.637 483.463 625.474 481.339 622.721 479.844C619.967 478.349 616.742 477.602 613.045 477.602C609.033 477.602 605.532 478.428 602.543 480.08C599.632 481.653 597.351 483.895 595.699 486.806C594.125 489.638 593.339 492.981 593.339 496.836C593.339 501.477 594.361 505.45 596.407 508.754C598.452 512.058 601.441 514.575 605.375 516.306C609.308 518.037 614.067 518.902 619.653 518.902C624.687 518.902 629.761 518.194 634.875 516.778C639.988 515.283 644.59 513.199 648.681 510.524V523.74C644.275 526.887 639.123 529.365 633.223 531.174C627.401 532.905 621.226 533.77 614.697 533.77ZM695.135 533.77C687.662 533.77 681.132 532.826 675.547 530.938C669.962 528.971 665.596 526.179 662.449 522.56C659.302 518.863 657.572 514.536 657.257 509.58H676.373C676.924 512.884 678.812 515.401 682.037 517.132C685.262 518.863 689.628 519.728 695.135 519.728C700.406 519.728 704.496 519.059 707.407 517.722C710.396 516.306 711.891 514.143 711.891 511.232C711.891 508.872 710.632 507.141 708.115 506.04C705.676 504.86 701.743 504.27 696.315 504.27H683.807V492.47H695.961C700.838 492.47 704.418 491.762 706.699 490.346C709.059 488.93 710.239 487.16 710.239 485.036C710.239 482.44 708.862 480.473 706.109 479.136C703.434 477.799 699.816 477.13 695.253 477.13C690.218 477.13 686.167 477.917 683.099 479.49C680.031 481.063 678.222 483.423 677.671 486.57H658.673C658.988 482.243 660.64 478.31 663.629 474.77C666.618 471.23 670.827 468.398 676.255 466.274C681.762 464.15 688.37 463.088 696.079 463.088C702.923 463.088 708.902 463.914 714.015 465.566C719.128 467.218 723.101 469.499 725.933 472.41C728.765 475.321 730.181 478.664 730.181 482.44C730.181 485.429 729.237 488.183 727.349 490.7C725.54 493.217 722.59 495.223 718.499 496.718C714.487 498.213 709.216 498.96 702.687 498.96V496.954C712.048 496.561 719.246 497.701 724.281 500.376C729.394 503.051 731.951 507.141 731.951 512.648C731.951 516.66 730.496 520.279 727.585 523.504C724.753 526.729 720.584 529.247 715.077 531.056C709.57 532.865 702.923 533.77 695.135 533.77ZM743.678 464.858H763.266V532H743.678V464.858ZM799.964 464.858H819.552V532H799.964V464.858ZM754.888 490.346H807.634V505.214H754.888V490.346ZM911.894 464.858H931.6V532H911.894V464.858ZM834.368 532V464.858H853.956V526.926L847.584 517.84H873.78C877.398 517.84 880.191 516.975 882.158 515.244C884.124 513.435 885.108 510.996 885.108 507.928C885.108 504.703 884.124 502.225 882.158 500.494C880.191 498.685 877.398 497.78 873.78 497.78H847.702V484.21H876.73C882.472 484.21 887.428 485.233 891.598 487.278C895.846 489.245 899.15 492.037 901.51 495.656C903.87 499.196 905.05 503.365 905.05 508.164C905.05 512.884 903.87 517.053 901.51 520.672C899.15 524.291 895.885 527.083 891.716 529.05C887.546 531.017 882.63 532 876.966 532H834.368ZM946.491 532V464.858H965.843V521.616L961.005 520.318L1001.48 464.858H1026.85V532H1007.5V474.18L1012.33 475.596L971.153 532H946.491ZM986.139 458.722C978.508 458.722 972.372 456.873 967.731 453.176C963.089 449.4 960.218 443.933 959.117 436.774H974.575C975.125 440.157 976.384 442.753 978.351 444.562C980.396 446.293 982.992 447.158 986.139 447.158C989.285 447.158 991.842 446.293 993.809 444.562C995.775 442.753 997.073 440.157 997.703 436.774H1013.04C1012.02 443.933 1009.15 449.4 1004.43 453.176C999.787 456.873 993.691 458.722 986.139 458.722Z" fill="black"/>
<path d="M602.876 587.575C597.385 587.575 593.196 586.084 590.309 583.102C587.422 580.073 585.978 575.671 585.978 569.896V559.814H595.137V569.541C595.137 576.641 598.474 580.191 605.148 580.191C607.893 580.191 610.473 579.552 612.887 578.274C615.348 576.996 617.597 575.079 619.632 572.523L620.2 579.055C618.543 581.753 616.177 583.859 613.1 585.374C610.071 586.841 606.663 587.575 602.876 587.575ZM618.496 600V559.814H627.726V600H618.496ZM659.488 600.994C654.802 600.994 650.637 600.118 646.992 598.367C643.348 596.568 640.484 594.083 638.401 590.912C636.319 587.741 635.277 584.049 635.277 579.836C635.277 575.671 636.248 572.026 638.188 568.902C640.176 565.731 642.898 563.269 646.353 561.518C649.856 559.719 653.856 558.82 658.352 558.82C662.849 558.82 666.73 559.838 669.996 561.873C673.31 563.861 675.866 566.677 677.664 570.322C679.463 573.967 680.362 578.25 680.362 583.173H642.519V576.144H675.747L671.132 578.771C670.99 576.12 670.351 573.848 669.215 571.955C668.127 570.062 666.636 568.618 664.742 567.624C662.896 566.583 660.695 566.062 658.139 566.062C655.441 566.062 653.075 566.606 651.039 567.695C649.051 568.784 647.489 570.322 646.353 572.31C645.217 574.251 644.649 576.57 644.649 579.268C644.649 582.25 645.312 584.83 646.637 587.007C648.01 589.184 649.927 590.865 652.388 592.048C654.897 593.184 657.855 593.752 661.263 593.752C664.34 593.752 667.488 593.279 670.706 592.332C673.925 591.338 676.765 589.965 679.226 588.214V594.888C676.765 596.781 673.759 598.272 670.209 599.361C666.707 600.45 663.133 600.994 659.488 600.994ZM694.292 559.814H733.839V600H724.609V562.654L728.869 566.914H698.907L702.883 563.648C703.12 566.583 703.309 569.375 703.451 572.026C703.641 574.629 703.735 576.972 703.735 579.055C703.735 586.628 702.67 592.143 700.54 595.598C698.41 599.053 694.979 600.781 690.245 600.781C688.967 600.781 687.737 600.639 686.553 600.355C685.37 600.071 684.234 599.621 683.145 599.006V592.119C683.997 592.45 684.826 592.711 685.63 592.9C686.482 593.089 687.263 593.184 687.973 593.184C690.577 593.184 692.446 591.977 693.582 589.563C694.766 587.149 695.357 583.22 695.357 577.777C695.357 575.41 695.263 572.712 695.073 569.683C694.931 566.654 694.671 563.364 694.292 559.814ZM765.856 600.994C760.981 600.994 756.697 600.118 753.005 598.367C749.361 596.568 746.497 594.083 744.414 590.912C742.379 587.741 741.361 584.072 741.361 579.907C741.361 575.694 742.379 572.026 744.414 568.902C746.497 565.731 749.361 563.269 753.005 561.518C756.697 559.719 760.981 558.82 765.856 558.82C770.732 558.82 774.992 559.719 778.636 561.518C782.328 563.269 785.192 565.731 787.227 568.902C789.31 572.026 790.351 575.694 790.351 579.907C790.351 584.072 789.31 587.741 787.227 590.912C785.192 594.083 782.328 596.568 778.636 598.367C774.992 600.118 770.732 600.994 765.856 600.994ZM765.856 593.752C768.98 593.752 771.655 593.184 773.879 592.048C776.151 590.912 777.903 589.326 779.133 587.291C780.364 585.208 780.979 582.747 780.979 579.907C780.979 577.067 780.364 574.629 779.133 572.594C777.903 570.511 776.151 568.902 773.879 567.766C771.655 566.63 768.98 566.062 765.856 566.062C762.78 566.062 760.105 566.63 757.833 567.766C755.561 568.902 753.81 570.511 752.579 572.594C751.349 574.629 750.733 577.067 750.733 579.907C750.733 582.747 751.349 585.208 752.579 587.291C753.81 589.326 755.561 590.912 757.833 592.048C760.105 593.184 762.78 593.752 765.856 593.752ZM796.931 600L798.99 579.907L796.931 559.814H826.041C829.922 559.814 832.952 560.713 835.129 562.512C837.354 564.311 838.466 566.796 838.466 569.967C838.466 572.902 837.354 575.268 835.129 577.067C832.952 578.818 829.899 579.86 825.97 580.191L826.68 578.487C831.319 578.582 834.869 579.528 837.33 581.327C839.791 583.126 841.022 585.658 841.022 588.924C841.022 592.379 839.768 595.101 837.259 597.089C834.798 599.03 831.366 600 826.964 600H796.931ZM805.877 597.728L802.327 593.61H824.621C827.13 593.61 828.928 593.137 830.017 592.19C831.153 591.196 831.721 589.823 831.721 588.072C831.721 586.51 831.082 585.208 829.804 584.167C828.573 583.126 826.491 582.605 823.556 582.605H804.315V576.641H822.207C824.621 576.641 826.372 576.168 827.461 575.221C828.597 574.227 829.165 572.949 829.165 571.387C829.165 569.872 828.668 568.642 827.674 567.695C826.727 566.701 825.118 566.204 822.846 566.204H802.398L805.877 562.157L807.865 579.907L805.877 597.728ZM870.408 600.994C865.722 600.994 861.557 600.118 857.912 598.367C854.268 596.568 851.404 594.083 849.321 590.912C847.239 587.741 846.197 584.049 846.197 579.836C846.197 575.671 847.168 572.026 849.108 568.902C851.096 565.731 853.818 563.269 857.273 561.518C860.776 559.719 864.776 558.82 869.272 558.82C873.769 558.82 877.65 559.838 880.916 561.873C884.23 563.861 886.786 566.677 888.584 570.322C890.383 573.967 891.282 578.25 891.282 583.173H853.439V576.144H886.667L882.052 578.771C881.91 576.12 881.271 573.848 880.135 571.955C879.047 570.062 877.556 568.618 875.662 567.624C873.816 566.583 871.615 566.062 869.059 566.062C866.361 566.062 863.995 566.606 861.959 567.695C859.971 568.784 858.409 570.322 857.273 572.31C856.137 574.251 855.569 576.57 855.569 579.268C855.569 582.25 856.232 584.83 857.557 587.007C858.93 589.184 860.847 590.865 863.308 592.048C865.817 593.184 868.775 593.752 872.183 593.752C875.26 593.752 878.408 593.279 881.626 592.332C884.845 591.338 887.685 589.965 890.146 588.214V594.888C887.685 596.781 884.679 598.272 881.129 599.361C877.627 600.45 874.053 600.994 870.408 600.994ZM898.877 600V559.814H908.107V592.19L905.338 591.196L930.969 559.814H941.477L907.397 600H898.877ZM931.963 600L919.467 580.12L925.928 574.298L942.755 600H931.963Z" fill="black"/>
</g>
<defs>
<clipPath id="clip0_6364_1319">
<rect width="1039" height="1024" fill="white"/>
</clipPath>
</defs>
</svg>
