<svg width="1024" height="1024" viewBox="0 0 1024 1024" fill="none" xmlns="http://www.w3.org/2000/svg">
<g clip-path="url(#clip0_6364_1652)">
<path d="M0 0H1024V1024H0V0Z" fill="white"/>
<path d="M314.853 420.543L419.612 420.62L419.584 488.06C378.378 488.682 335.755 488.151 294.431 488.161L235.25 488.188C220.893 488.282 204.185 488.761 190 488.016C211.765 476.727 233.377 465.144 254.83 453.271C274.98 442.625 294.99 431.715 314.853 420.543Z" fill="black"/>
<path d="M643.945 420.497C662.21 420.48 680.49 420.348 698.752 420.456C704.977 420.493 714.211 426.859 719.82 429.921L754.113 448.739C763.426 453.816 822.296 484.163 826.247 488.397L644.032 488.245L643.945 420.497Z" fill="black"/>
<path d="M495.171 700.855C496.667 703.044 505.13 721.233 506.579 724.313L495.502 724.198L483.605 724.265C486.861 717.153 491.483 707.649 495.171 700.855Z" fill="white"/>
<path d="M260.209 611L209.393 557.624V611H205.169V515H209.393V549.816L249.457 515H255.473L210.545 553.4L265.841 611H260.209ZM296.507 612.408C291.045 612.408 285.968 611.043 281.275 608.312C276.581 605.581 272.869 601.912 270.139 597.304C267.408 592.611 266.043 587.576 266.043 582.2C266.043 576.824 267.408 571.832 270.139 567.224C272.869 562.531 276.581 558.819 281.275 556.088C285.968 553.357 291.045 551.992 296.507 551.992C302.053 551.992 307.301 553.485 312.251 556.472C317.2 559.373 320.656 563.171 322.619 567.864V553.4H326.715V611H322.619V596.664C320.315 601.443 316.731 605.283 311.867 608.184C307.088 611 301.968 612.408 296.507 612.408ZM296.763 608.824C301.456 608.824 305.808 607.629 309.819 605.24C313.829 602.765 316.987 599.523 319.291 595.512C321.68 591.416 322.875 586.979 322.875 582.2C322.875 577.507 321.68 573.112 319.291 569.016C316.901 564.92 313.701 561.677 309.691 559.288C305.68 556.813 301.328 555.576 296.635 555.576C291.941 555.576 287.547 556.813 283.451 559.288C279.44 561.763 276.197 565.048 273.723 569.144C271.333 573.24 270.139 577.635 270.139 582.328C270.139 587.021 271.333 591.416 273.723 595.512C276.197 599.523 279.483 602.765 283.579 605.24C287.675 607.629 292.069 608.824 296.763 608.824ZM342.871 553.4H346.967V567.48C349.271 562.872 352.855 559.16 357.719 556.344C362.583 553.443 367.703 551.992 373.079 551.992C378.625 551.992 383.703 553.357 388.311 556.088C393.004 558.819 396.716 562.488 399.447 567.096C402.177 571.704 403.543 576.739 403.543 582.2C403.543 587.661 402.177 592.696 399.447 597.304C396.716 601.912 393.004 605.581 388.311 608.312C383.703 611.043 378.625 612.408 373.079 612.408C367.873 612.408 362.839 611 357.975 608.184C353.196 605.368 349.527 601.656 346.967 597.048V636.6H342.871V553.4ZM373.335 608.824C378.028 608.824 382.38 607.629 386.391 605.24C390.401 602.765 393.559 599.523 395.863 595.512C398.252 591.416 399.447 586.979 399.447 582.2C399.447 577.507 398.252 573.112 395.863 569.016C393.473 564.92 390.273 561.677 386.263 559.288C382.252 556.813 377.9 555.576 373.207 555.576C368.513 555.576 364.119 556.813 360.023 559.288C356.012 561.763 352.769 565.048 350.295 569.144C347.905 573.24 346.711 577.635 346.711 582.328C346.711 587.021 347.905 591.416 350.295 595.512C352.769 599.523 356.055 602.765 360.151 605.24C364.247 607.629 368.641 608.824 373.335 608.824ZM416.657 553.4H420.753V573.368L443.537 553.4H448.785L422.417 576.44L455.441 611H449.937L420.753 579.896V611H416.657V553.4ZM488.007 612.408C482.545 612.408 477.468 611.043 472.775 608.312C468.081 605.581 464.369 601.912 461.639 597.304C458.908 592.611 457.543 587.576 457.543 582.2C457.543 576.824 458.908 571.832 461.639 567.224C464.369 562.531 468.081 558.819 472.775 556.088C477.468 553.357 482.545 551.992 488.007 551.992C493.553 551.992 498.801 553.485 503.751 556.472C508.7 559.373 512.156 563.171 514.119 567.864V553.4H518.215V611H514.119V596.664C511.815 601.443 508.231 605.283 503.367 608.184C498.588 611 493.468 612.408 488.007 612.408ZM488.263 608.824C492.956 608.824 497.308 607.629 501.319 605.24C505.329 602.765 508.487 599.523 510.791 595.512C513.18 591.416 514.375 586.979 514.375 582.2C514.375 577.507 513.18 573.112 510.791 569.016C508.401 564.92 505.201 561.677 501.191 559.288C497.18 556.813 492.828 555.576 488.135 555.576C483.441 555.576 479.047 556.813 474.951 559.288C470.94 561.763 467.697 565.048 465.223 569.144C462.833 573.24 461.639 577.635 461.639 582.328C461.639 587.021 462.833 591.416 465.223 595.512C467.697 599.523 470.983 602.765 475.079 605.24C479.175 607.629 483.569 608.824 488.263 608.824ZM561.507 612.664C555.96 612.664 550.84 611.341 546.147 608.696C541.539 606.051 537.869 602.424 535.139 597.816C532.408 593.208 531.043 588.003 531.043 582.2C531.043 576.824 532.408 571.875 535.139 567.352C537.869 562.744 541.581 559.075 546.275 556.344C551.053 553.613 556.301 552.248 562.019 552.248C566.797 552.248 570.893 553.016 574.307 554.552C577.72 556.088 581.048 558.477 584.291 561.72V568.632C581.475 564.451 578.317 561.293 574.819 559.16C571.405 556.941 567.139 555.832 562.019 555.832C557.325 555.832 552.888 557.069 548.707 559.544C544.611 561.933 541.325 565.176 538.851 569.272C536.376 573.368 535.139 577.763 535.139 582.456C535.139 587.576 536.333 592.184 538.723 596.28C541.112 600.291 544.312 603.448 548.323 605.752C552.419 607.971 556.813 609.08 561.507 609.08C571.064 609.08 578.659 604.771 584.291 596.152V603.064C581.219 606.307 577.805 608.739 574.051 610.36C570.381 611.896 566.2 612.664 561.507 612.664ZM597.157 515H631.333V518.712H601.381V611H597.157V515ZM625.621 553.4H629.717V567.48C632.021 562.872 635.605 559.16 640.469 556.344C645.333 553.443 650.453 551.992 655.829 551.992C661.375 551.992 666.453 553.357 671.061 556.088C675.754 558.819 679.466 562.488 682.197 567.096C684.927 571.704 686.293 576.739 686.293 582.2C686.293 587.661 684.927 592.696 682.197 597.304C679.466 601.912 675.754 605.581 671.061 608.312C666.453 611.043 661.375 612.408 655.829 612.408C650.623 612.408 645.589 611 640.725 608.184C635.946 605.368 632.277 601.656 629.717 597.048V636.6H625.621V553.4ZM656.085 608.824C660.778 608.824 665.13 607.629 669.141 605.24C673.151 602.765 676.309 599.523 678.613 595.512C681.002 591.416 682.197 586.979 682.197 582.2C682.197 577.507 681.002 573.112 678.613 569.016C676.223 564.92 673.023 561.677 669.013 559.288C665.002 556.813 660.65 555.576 655.957 555.576C651.263 555.576 646.869 556.813 642.773 559.288C638.762 561.763 635.519 565.048 633.045 569.144C630.655 573.24 629.461 577.635 629.461 582.328C629.461 587.021 630.655 591.416 633.045 595.512C635.519 599.523 638.805 602.765 642.901 605.24C646.997 607.629 651.391 608.824 656.085 608.824ZM726.257 612.408C720.795 612.408 715.718 611.043 711.025 608.312C706.331 605.581 702.619 601.912 699.889 597.304C697.158 592.611 695.793 587.576 695.793 582.2C695.793 576.824 697.158 571.832 699.889 567.224C702.619 562.531 706.331 558.819 711.025 556.088C715.718 553.357 720.795 551.992 726.257 551.992C731.803 551.992 737.051 553.485 742.001 556.472C746.95 559.373 750.406 563.171 752.369 567.864V553.4H756.465V611H752.369V596.664C750.065 601.443 746.481 605.283 741.617 608.184C736.838 611 731.718 612.408 726.257 612.408ZM726.513 608.824C731.206 608.824 735.558 607.629 739.569 605.24C743.579 602.765 746.737 599.523 749.041 595.512C751.43 591.416 752.625 586.979 752.625 582.2C752.625 577.507 751.43 573.112 749.041 569.016C746.651 564.92 743.451 561.677 739.441 559.288C735.43 556.813 731.078 555.576 726.385 555.576C721.691 555.576 717.297 556.813 713.201 559.288C709.19 561.763 705.947 565.048 703.473 569.144C701.083 573.24 699.889 577.635 699.889 582.328C699.889 587.021 701.083 591.416 703.473 595.512C705.947 599.523 709.233 602.765 713.329 605.24C717.425 607.629 721.819 608.824 726.513 608.824ZM829.965 607.288V623.416H826.381V611H771.085V623.416H767.501V607.416H772.237L798.989 551.736L825.741 607.288H829.965ZM821.645 607.288L798.989 560.184L776.333 607.288H821.645Z" fill="black"/>
<rect x="441.057" y="419" width="182" height="69" fill="black"/>
<path d="M509.057 300L703.912 421.5H314.201L509.057 300Z" fill="black"/>
<rect x="267.057" y="405" width="468" height="20" fill="white"/>
<rect x="623.057" y="337" width="21" height="94" fill="white"/>
<rect x="420.057" y="337" width="21" height="94" fill="white"/>
</g>
<defs>
<clipPath id="clip0_6364_1652">
<rect width="1024" height="1024" fill="white"/>
</clipPath>
</defs>
</svg>
