<svg width="1024" height="1024" viewBox="0 0 1024 1024" fill="none" xmlns="http://www.w3.org/2000/svg">
<g clip-path="url(#clip0_6364_1681)">
<path d="M0 0H1024V1024H0V0Z" fill="white"/>
<path d="M99.4805 552.152C117.937 552.387 137.135 552.016 155.476 552.572C167.422 562.092 160.939 582.741 187.235 598C197.356 603.873 209.318 606.578 220.834 607.975C236.57 609.883 252.992 609.015 268.838 609.01L356.289 609.053C368.894 609.071 381.487 608.932 394.088 608.905C397.976 608.896 401.05 610.328 401.117 614.722C401.394 632.917 400.499 650.854 401.189 669.101C401.624 680.594 410.559 691.353 422.397 692.573C432.438 693.248 443.077 692.945 453.183 692.951L515.946 692.85L569.817 692.911C579.654 692.934 590.206 693.16 600.013 692.47C603.795 692.204 607.251 690.237 610.35 688.143C620.782 681.097 619.83 666.705 619.873 655.056L619.86 630.395C619.81 625.469 619.441 620.062 619.917 615.168C620.531 610.126 622.484 608.693 627.475 608.766C639.217 608.939 650.905 609.077 662.634 609.089L747.575 609.22C760.806 609.174 774.652 609.281 787.741 608.852C813.845 607.995 841.251 600.167 852.47 574.188C854.967 568.856 856.838 560.008 860.958 555.712C865.225 551.262 879.798 552.504 885.721 552.489C897.014 552.428 908.307 552.443 919.6 552.536C914.913 580.756 908.878 609.782 887.88 630.908C836.472 678.595 732.791 660.204 675.042 633.68L675.415 671.728C675.483 680.594 675.976 690.307 674.679 698.919C670.081 727.656 643.858 748.145 615.004 747.064C604.222 746.66 592.427 746.989 581.652 747.008L488.708 747.102L426.058 747.275C410.269 747.343 392.962 749.459 378.523 742.441C336.352 721.942 338.924 673.877 345.583 634.658C323.715 643.261 302.3 650.518 278.896 654.643C235.008 662.377 179.207 664.128 140.966 638.149C111.932 618.424 105.247 584.166 99.4805 552.152Z" fill="black"/>
<path d="M455.373 277.25C492.257 276.832 530.226 277.287 567.123 277.471L600.974 277.432C607.192 277.41 614.818 277.153 620.899 277.606C636.282 278.753 651.341 284.625 661.39 296.721C676.285 314.651 676.43 336.453 676.095 358.459C675.955 369.202 675.436 379.936 674.539 390.643C703.134 380.384 726.45 372.291 757.147 367.988C798.46 362.197 847.269 364.009 882.139 389.691C908.618 409.193 915.379 443.012 919.711 473.467L874.978 473.39C855.691 473.187 859.664 463.208 853.435 449.309C850.991 443.942 847.593 439.063 843.406 434.911C818.816 410.085 772.963 415.804 740.487 415.988L635.335 416.031C631.126 416.011 625.483 416.257 622.418 412.883C616.055 405.876 619.501 369.346 619.635 358.734C619.738 350.58 617.862 342.187 611.841 336.263C608.971 333.481 605.42 331.503 601.544 330.526C595.524 328.976 569.361 329.796 561.292 329.799L477.663 329.849C461.292 329.781 444.526 329.003 428.203 329.782C401.332 331.064 400.815 350.848 401.161 371.436L401.449 395.592C401.537 404.381 401.793 416.551 389.981 416.522C338.086 416.396 286.043 416.29 234.149 416.193C205.477 416.139 175.992 424.191 165.05 453.482C162.974 459.037 162.311 466.977 157.961 471.547C155.347 473.836 138.207 473.053 134.493 473.052L99.3398 473.187C101.375 457.028 106.774 433.621 113.779 419.177C151.564 341.262 284.143 361.571 346.207 390.997C341.204 361.865 337.206 317.765 359.821 294.665C377.596 276.51 398.098 277.555 421.504 277.482L455.373 277.25Z" fill="black"/>
<path d="M604.343 482.176C636.935 483.83 639.203 536.946 607.057 541.999C601.515 542.116 596.505 541.251 591.82 537.894C574.657 525.596 576.905 491.156 597.533 483.525C599.641 482.745 602.082 482.445 604.343 482.176Z" fill="white"/>
<path d="M418.302 502.918C419.716 504.479 425.25 521.394 426.264 524.448L420.626 524.459C417.326 524.505 414.189 524.394 410.893 524.282C412.794 517.731 415.989 509.412 418.302 502.918Z" fill="white"/>
<path d="M756.071 500.285C758.398 505.552 761.83 517.19 763.753 523.092L757.126 523.065L748.43 523.044C750.817 515.467 753.674 508.033 756.071 500.285Z" fill="white"/>
<path d="M224.57 457.315C228.492 457.315 232.096 458.004 235.382 459.382C238.774 460.654 241.636 462.456 243.968 464.788C246.406 467.014 248.261 469.664 249.533 472.738C250.911 475.812 251.6 479.151 251.6 482.755C251.6 485.511 251.229 488.002 250.487 490.228C249.851 492.348 248.95 494.256 247.784 495.952C246.724 497.542 245.452 498.973 243.968 500.245C242.59 501.411 241.159 502.365 239.675 503.107C236.177 505.015 232.202 506.181 227.75 506.605C233.262 507.135 238.138 508.672 242.378 511.216C244.18 512.276 245.982 513.601 247.784 515.191C249.586 516.781 251.176 518.742 252.554 521.074C253.932 523.3 255.045 525.95 255.893 529.024C256.741 531.992 257.165 535.384 257.165 539.2C257.165 543.97 256.264 548.422 254.462 552.556C252.66 556.69 250.169 560.347 246.989 563.527C243.809 566.601 240.046 569.039 235.7 570.841C231.354 572.537 226.584 573.385 221.39 573.385C217.044 573.385 213.016 572.643 209.306 571.159C205.596 569.675 202.363 567.714 199.607 565.276C196.957 562.732 194.89 559.87 193.406 556.69C191.922 553.404 191.18 549.959 191.18 546.355C191.18 537.981 192.717 531.939 195.791 528.229C198.971 524.413 202.734 522.505 207.08 522.505C207.61 522.505 208.14 522.558 208.67 522.664C209.306 522.77 209.889 522.876 210.419 522.982C210.949 523.088 211.426 523.194 211.85 523.3L208.67 536.02C199.13 536.02 194.36 540.525 194.36 549.535C194.36 551.973 194.996 554.411 196.268 556.849C197.646 559.287 199.448 561.513 201.674 563.527C204.006 565.435 206.709 567.025 209.783 568.297C212.857 569.569 216.196 570.205 219.8 570.205C226.16 570.205 231.46 567.714 235.7 562.732C239.94 557.75 242.06 549.906 242.06 539.2C242.06 528.494 239.94 520.65 235.7 515.668C231.46 510.686 226.16 508.195 219.8 508.195H215.03V505.015H219.8C224.994 505.015 229.34 503.107 232.838 499.291C236.336 495.475 238.085 489.963 238.085 482.755C238.085 479.151 237.608 475.971 236.654 473.215C235.806 470.459 234.64 468.127 233.156 466.219C231.778 464.311 230.188 462.88 228.386 461.926C226.584 460.972 224.782 460.495 222.98 460.495C218.21 460.495 213.758 462.827 209.624 467.491C205.596 472.049 202.363 478.727 199.925 487.525H197.54C197.646 485.935 197.752 484.292 197.858 482.596C197.964 481.112 198.07 479.522 198.176 477.826C198.282 476.024 198.335 474.222 198.335 472.42C198.335 470.83 198.282 469.24 198.176 467.65C198.07 465.954 197.964 464.364 197.858 462.88C197.752 461.29 197.646 459.7 197.54 458.11H199.925C201.515 458.534 202.999 459.488 204.377 460.972C205.861 462.35 207.027 463.834 207.875 465.424C209.147 463.94 210.631 462.615 212.327 461.449C213.811 460.389 215.56 459.435 217.574 458.587C219.588 457.739 221.92 457.315 224.57 457.315ZM271.525 571C271.525 576.194 270.571 580.911 268.663 585.151C266.755 589.391 263.999 592.889 260.395 595.645H258.805C258.911 594.161 259.017 592.571 259.123 590.875C259.229 589.497 259.335 587.96 259.441 586.264C259.547 584.568 259.6 582.925 259.6 581.335C259.6 579.533 259.547 577.837 259.441 576.247C259.335 574.657 259.229 573.226 259.123 571.954C259.017 570.47 258.911 569.092 258.805 567.82H269.935C272.479 564.64 274.705 560.135 276.613 554.305C278.309 549.323 279.846 542.698 281.224 534.43C282.708 526.056 283.45 515.456 283.45 502.63V464.47L273.115 461.29V459.7H337.51V461.29L327.97 463.675V567.82H340.69C340.478 569.092 340.319 570.47 340.213 571.954C340.107 573.226 340.001 574.657 339.895 576.247C339.895 577.837 339.895 579.533 339.895 581.335C339.895 582.925 339.895 584.568 339.895 586.264C340.001 587.96 340.107 589.497 340.213 590.875C340.319 592.571 340.478 594.161 340.69 595.645H339.1C335.496 592.889 332.74 589.391 330.832 585.151C328.924 580.911 327.97 576.194 327.97 571H271.525ZM286.63 502.63C286.63 515.456 285.941 526.056 284.563 534.43C283.291 542.698 281.86 549.323 280.27 554.305C278.362 560.135 276.242 564.64 273.91 567.82H314.455V462.88H286.63V502.63ZM426.537 515.35C426.537 525.102 425.424 533.635 423.198 540.949C421.078 548.157 418.216 554.199 414.612 559.075C411.114 563.845 407.139 567.449 402.687 569.887C398.235 572.219 393.73 573.385 389.172 573.385C384.614 573.385 380.109 572.219 375.657 569.887C371.205 567.449 367.177 563.845 363.573 559.075C360.075 554.199 357.213 548.157 354.987 540.949C352.867 533.635 351.807 525.102 351.807 515.35C351.807 505.598 352.867 497.118 354.987 489.91C357.213 482.596 360.075 476.554 363.573 471.784C367.177 466.908 371.205 463.304 375.657 460.972C380.109 458.534 384.614 457.315 389.172 457.315C393.73 457.315 398.235 458.534 402.687 460.972C407.139 463.304 411.114 466.908 414.612 471.784C418.216 476.554 421.078 482.596 423.198 489.91C425.424 497.118 426.537 505.598 426.537 515.35ZM411.432 515.35C411.432 504.432 410.743 495.422 409.365 488.32C408.093 481.112 406.344 475.388 404.118 471.148C401.998 466.908 399.613 463.94 396.963 462.244C394.313 460.548 391.716 459.7 389.172 459.7C386.628 459.7 384.031 460.548 381.381 462.244C378.731 463.94 376.293 466.908 374.067 471.148C371.947 475.388 370.198 481.112 368.82 488.32C367.548 495.422 366.912 504.432 366.912 515.35C366.912 526.268 367.548 535.331 368.82 542.539C370.198 549.641 371.947 555.312 374.067 559.552C376.293 563.792 378.731 566.76 381.381 568.456C384.031 570.152 386.628 571 389.172 571C391.716 571 394.313 570.152 396.963 568.456C399.613 566.76 401.998 563.792 404.118 559.552C406.344 555.312 408.093 549.641 409.365 542.539C410.743 535.331 411.432 526.268 411.432 515.35ZM463.076 531.25V567.025L472.616 569.41V571H440.021V569.41L449.561 567.025V463.675L440.021 461.29V459.7H468.641C475.213 459.7 481.043 460.601 486.131 462.403C491.325 464.205 495.671 466.696 499.169 469.876C502.667 473.056 505.317 476.819 507.119 481.165C509.027 485.511 509.981 490.281 509.981 495.475C509.981 500.669 509.027 505.439 507.119 509.785C505.317 514.131 502.667 517.894 499.169 521.074C495.671 524.254 491.325 526.745 486.131 528.547C481.043 530.349 475.213 531.25 468.641 531.25H463.076ZM463.076 528.07H468.641C477.015 528.07 483.481 525.526 488.039 520.438C492.597 515.35 494.876 507.029 494.876 495.475C494.876 483.921 492.597 475.6 488.039 470.512C483.481 465.424 477.015 462.88 468.641 462.88H463.076V528.07ZM594.233 515.35C594.233 525.102 593.12 533.635 590.894 540.949C588.774 548.157 585.912 554.199 582.308 559.075C578.81 563.845 574.835 567.449 570.383 569.887C565.931 572.219 561.426 573.385 556.868 573.385C552.31 573.385 547.805 572.219 543.353 569.887C538.901 567.449 534.873 563.845 531.269 559.075C527.771 554.199 524.909 548.157 522.683 540.949C520.563 533.635 519.503 525.102 519.503 515.35C519.503 505.598 520.563 497.118 522.683 489.91C524.909 482.596 527.771 476.554 531.269 471.784C534.873 466.908 538.901 463.304 543.353 460.972C547.805 458.534 552.31 457.315 556.868 457.315C561.426 457.315 565.931 458.534 570.383 460.972C574.835 463.304 578.81 466.908 582.308 471.784C585.912 476.554 588.774 482.596 590.894 489.91C593.12 497.118 594.233 505.598 594.233 515.35ZM579.128 515.35C579.128 504.432 578.439 495.422 577.061 488.32C575.789 481.112 574.04 475.388 571.814 471.148C569.694 466.908 567.309 463.94 564.659 462.244C562.009 460.548 559.412 459.7 556.868 459.7C554.324 459.7 551.727 460.548 549.077 462.244C546.427 463.94 543.989 466.908 541.763 471.148C539.643 475.388 537.894 481.112 536.516 488.32C535.244 495.422 534.608 504.432 534.608 515.35C534.608 526.268 535.244 535.331 536.516 542.539C537.894 549.641 539.643 555.312 541.763 559.552C543.989 563.792 546.427 566.76 549.077 568.456C551.727 570.152 554.324 571 556.868 571C559.412 571 562.009 570.152 564.659 568.456C567.309 566.76 569.694 563.792 571.814 559.552C574.04 555.312 575.789 549.641 577.061 542.539C578.439 535.331 579.128 526.268 579.128 515.35ZM607.717 571V569.41L617.257 567.025V463.675L607.717 461.29V459.7H636.337C641.319 459.7 645.612 460.283 649.216 461.449C652.926 462.509 656 464.046 658.438 466.06C660.876 467.968 662.678 470.247 663.844 472.897C665.116 475.441 665.752 478.197 665.752 481.165C665.752 483.497 665.381 485.564 664.639 487.366C664.003 489.168 663.102 490.758 661.936 492.136C660.876 493.408 659.604 494.574 658.12 495.634C656.742 496.588 655.311 497.383 653.827 498.019C650.329 499.609 646.354 500.616 641.902 501.04C648.474 501.676 654.304 503.319 659.392 505.969C661.618 507.135 663.738 508.566 665.752 510.262C667.872 511.852 669.727 513.866 671.317 516.304C673.013 518.636 674.338 521.392 675.292 524.572C676.352 527.646 676.882 531.197 676.882 535.225C676.882 540.207 675.928 544.871 674.02 549.217C672.112 553.563 669.356 557.379 665.752 560.665C662.254 563.845 658.014 566.389 653.032 568.297C648.05 570.099 642.485 571 636.337 571H607.717ZM630.772 502.63V567.82H636.337C639.941 567.82 643.28 567.131 646.354 565.753C649.428 564.375 652.078 562.308 654.304 559.552C656.636 556.796 658.438 553.404 659.71 549.376C661.088 545.348 661.777 540.631 661.777 535.225C661.777 529.819 661.088 525.102 659.71 521.074C658.438 517.046 656.636 513.654 654.304 510.898C652.078 508.142 649.428 506.075 646.354 504.697C643.28 503.319 639.941 502.63 636.337 502.63H630.772ZM630.772 499.45H636.337C641.107 499.344 644.923 497.807 647.785 494.839C650.753 491.765 652.237 487.207 652.237 481.165C652.237 475.123 650.753 470.565 647.785 467.491C644.923 464.417 641.107 462.88 636.337 462.88H630.772V499.45ZM716.613 502.63C723.185 502.63 729.015 503.531 734.103 505.333C739.297 507.029 743.643 509.467 747.141 512.647C750.639 515.721 753.289 519.325 755.091 523.459C756.999 527.593 757.953 532.045 757.953 536.815C757.953 541.585 756.999 546.037 755.091 550.171C753.289 554.305 750.639 557.962 747.141 561.142C743.643 564.216 739.297 566.654 734.103 568.456C729.015 570.152 723.185 571 716.613 571H687.993V569.41L697.533 567.025V463.675L687.993 461.29V459.7H720.588V461.29L711.048 463.675V502.63H716.613ZM711.048 567.82H716.613C724.987 567.82 731.453 565.382 736.011 560.506C740.569 555.524 742.848 547.627 742.848 536.815C742.848 526.003 740.569 518.159 736.011 513.283C731.453 508.301 724.987 505.81 716.613 505.81H711.048V567.82ZM823.124 567.82C823.124 563.368 824.025 559.234 825.827 555.418C827.629 551.602 829.908 548.316 832.664 545.56H834.254C834.042 546.938 833.883 548.369 833.777 549.853C833.671 551.125 833.565 552.503 833.459 553.987C833.459 555.471 833.459 556.902 833.459 558.28C833.459 560.294 833.459 562.096 833.459 563.686C833.565 565.17 833.671 566.495 833.777 567.661C833.883 568.933 834.042 570.046 834.254 571H768.269V569.41L777.809 567.025V463.675L768.269 461.29V459.7H832.664C832.452 460.654 832.293 461.767 832.187 463.039C832.081 464.205 831.975 465.583 831.869 467.173C831.869 468.657 831.869 470.406 831.869 472.42C831.869 473.904 831.869 475.388 831.869 476.872C831.975 478.25 832.081 479.575 832.187 480.847C832.293 482.331 832.452 483.762 832.664 485.14H831.074C828.318 482.384 826.039 479.098 824.237 475.282C822.435 471.466 821.534 467.332 821.534 462.88H791.324V510.58H806.429L813.584 496.27H815.174V528.07H813.584L806.429 513.76H791.324V567.82H823.124Z" fill="black"/>
<path d="M440.45 631.8H471.95V632.5L467.75 633.55V662.25L471.95 663.3V664H458.3V663.3L462.15 662.25V633.2H450.25V662.25L454.1 663.3V664H440.45V663.3L444.65 662.25V633.55L440.45 632.5V631.8ZM478.217 631.8H504.117V632.5L499.917 633.55V662.25L504.117 663.3V664H490.117V663.3L494.317 662.25V633.2H484.167V643C484.167 647.713 483.957 651.54 483.537 654.48C483.164 657.42 482.627 659.707 481.927 661.34C481.274 662.927 480.504 664 479.617 664.56C478.731 665.12 477.797 665.4 476.817 665.4C476.537 665.4 476.281 665.377 476.047 665.33C475.814 665.33 475.581 665.307 475.347 665.26C475.114 665.213 474.904 665.143 474.717 665.05L473.667 660.15C473.901 660.243 474.134 660.313 474.367 660.36C474.601 660.407 474.834 660.453 475.067 660.5C475.301 660.5 475.534 660.5 475.767 660.5C476.747 660.5 477.657 660.267 478.497 659.8C479.337 659.333 480.061 658.447 480.667 657.14C481.321 655.833 481.834 654.06 482.207 651.82C482.581 649.533 482.767 646.593 482.767 643V633.9L478.217 632.5V631.8ZM537.714 630.75C539.441 630.75 541.098 631.147 542.684 631.94C544.318 632.687 545.741 633.807 546.954 635.3C548.214 636.747 549.194 638.543 549.894 640.69C550.641 642.79 551.014 645.193 551.014 647.9C551.014 650.607 550.641 653.033 549.894 655.18C549.194 657.28 548.214 659.077 546.954 660.57C545.741 662.017 544.318 663.137 542.684 663.93C541.098 664.677 539.441 665.05 537.714 665.05C535.941 665.05 534.261 664.677 532.674 663.93C531.088 663.137 529.664 662.017 528.404 660.57C527.191 659.123 526.211 657.373 525.464 655.32C524.764 653.22 524.414 650.863 524.414 648.25H518.814V662.25L523.014 663.3V664H509.014V663.3L513.214 662.25V633.55L509.014 632.5V631.8H523.014V632.5L518.814 633.55V646.85H524.414C524.508 644.33 524.928 642.067 525.674 640.06C526.468 638.053 527.471 636.373 528.684 635.02C529.898 633.62 531.274 632.57 532.814 631.87C534.401 631.123 536.034 630.75 537.714 630.75ZM537.714 631.8C536.921 631.8 536.104 632.08 535.264 632.64C534.471 633.153 533.724 634.04 533.024 635.3C532.371 636.513 531.811 638.147 531.344 640.2C530.924 642.253 530.714 644.82 530.714 647.9C530.714 650.98 530.924 653.547 531.344 655.6C531.811 657.653 532.371 659.31 533.024 660.57C533.724 661.783 534.471 662.67 535.264 663.23C536.104 663.743 536.921 664 537.714 664C538.508 664 539.301 663.743 540.094 663.23C540.934 662.67 541.681 661.783 542.334 660.57C543.034 659.31 543.594 657.653 544.014 655.6C544.481 653.547 544.714 650.98 544.714 647.9C544.714 644.82 544.481 642.253 544.014 640.2C543.594 638.147 543.034 636.513 542.334 635.3C541.681 634.04 540.934 633.153 540.094 632.64C539.301 632.08 538.508 631.8 537.714 631.8ZM570.943 632.15C570.056 632.15 569.169 632.43 568.283 632.99C567.443 633.503 566.673 634.367 565.973 635.58C565.273 636.793 564.689 638.403 564.223 640.41C563.803 642.417 563.593 644.913 563.593 647.9C563.593 650.887 563.803 653.383 564.223 655.39C564.689 657.397 565.296 659.03 566.043 660.29C566.789 661.503 567.629 662.367 568.563 662.88C569.543 663.393 570.569 663.65 571.643 663.65C572.856 663.65 573.999 663.417 575.073 662.95C576.146 662.483 577.103 661.853 577.943 661.06C578.783 660.267 579.459 659.31 579.973 658.19C580.533 657.07 580.906 655.857 581.093 654.55H582.143C581.956 656.043 581.536 657.443 580.883 658.75C580.276 660.01 579.483 661.107 578.503 662.04C577.523 662.973 576.379 663.697 575.073 664.21C573.813 664.77 572.436 665.05 570.943 665.05C569.123 665.05 567.373 664.677 565.693 663.93C564.059 663.137 562.613 662.017 561.353 660.57C560.093 659.077 559.089 657.28 558.343 655.18C557.643 653.033 557.293 650.607 557.293 647.9C557.293 645.193 557.643 642.79 558.343 640.69C559.089 638.543 560.069 636.747 561.283 635.3C562.496 633.807 563.873 632.687 565.413 631.94C566.953 631.147 568.563 630.75 570.243 630.75C571.363 630.75 572.343 630.937 573.183 631.31C574.069 631.683 574.816 632.08 575.423 632.5C576.123 633.013 576.729 633.597 577.243 634.25C577.429 633.55 577.803 632.897 578.363 632.29C578.969 631.683 579.529 631.287 580.043 631.1H581.093C580.999 631.707 580.929 632.337 580.883 632.99C580.836 633.55 580.789 634.157 580.743 634.81C580.743 635.463 580.743 636.093 580.743 636.7C580.743 637.4 580.743 638.123 580.743 638.87C580.789 639.57 580.836 640.2 580.883 640.76C580.929 641.413 580.999 642.043 581.093 642.65H580.043C579.156 639.29 577.849 636.7 576.123 634.88C574.443 633.06 572.716 632.15 570.943 632.15Z" fill="black"/>
</g>
<defs>
<clipPath id="clip0_6364_1681">
<rect width="1024" height="1024" fill="white"/>
</clipPath>
</defs>
</svg>
