<svg width="734" height="200" viewBox="0 0 734 200" fill="none" xmlns="http://www.w3.org/2000/svg">
<path d="M111.615 0.139314C116.748 0.806356 126.604 0.373643 132.169 0.485907C148.762 0.819427 165.529 -0.0677664 182.074 0.00416946C182.048 1.55297 182.033 3.10284 182.028 4.65164C181.961 16.9047 183.878 27.3245 192.999 36.4658C205.962 49.4557 224.099 47.3728 241 47.2366L240.894 117.517C231.809 117.546 219.701 117.892 210.826 117.277C182.6 115.09 156.379 101.849 137.871 80.435C118.054 57.6335 109.567 30.1104 111.615 0.139314Z" fill="white"/>
<path d="M169.226 135.567C169.494 135.535 169.76 135.502 170.027 135.468C187.521 133.707 204.964 139.268 218.208 150.827C233.814 164.279 239.587 179.916 240.953 199.768C222.136 200.011 202.59 199.769 183.726 199.761C160.208 199.73 134.506 199.345 111.155 200C112.945 165.415 134.443 140.292 169.226 135.567Z" fill="white"/>
<path fill-rule="evenodd" clip-rule="evenodd" d="M52.6635 11.1531C38.1361 3.84942 22.0385 0.219935 5.78168 0.582884C5.67243 9.6067 5.71621 18.8874 5.76018 28.2066C5.82768 42.5128 5.8956 56.9095 5.41094 70.6059C17.1437 71.3743 26.1689 74.5668 34.2194 83.647C40.7171 91.0346 43.9937 100.709 43.3231 110.522C42.714 120.221 35.2852 133.691 29.5389 144.111C28.3313 146.301 27.198 148.356 26.218 150.213L0 200H75.1503C79.0079 192.759 82.8983 185.649 86.696 178.957C106.913 143.333 119.73 113.083 105.738 71.4528C96.719 45.1286 77.6359 23.4476 52.6635 11.1531Z" fill="white"/>
<path d="M326.377 52.9028C326.377 48.5722 324.88 45.1505 321.886 42.6376C318.945 40.1248 314.588 38.8684 308.814 38.8684C305.926 38.8684 302.959 39.2694 299.912 40.0713C296.864 40.8199 293.924 42.1297 291.09 44.001V37.906C293.924 36.0882 296.891 34.7784 299.992 33.9764C303.146 33.1744 306.515 32.7734 310.097 32.7734C314.695 32.7734 318.758 33.5219 322.287 35.0189C325.869 36.516 328.676 38.7882 330.707 41.8357C332.739 44.8297 333.755 48.6524 333.755 53.3038V78.9668H326.457L326.377 52.9028ZM306.648 49.7752C313.331 49.5613 318.571 49.9623 322.367 50.9781C326.216 51.9939 328.328 52.8494 328.702 53.5444C329.077 54.186 329.264 57.9552 329.264 64.8522C329.264 66.1888 328.729 67.7392 327.66 69.5036C326.59 71.2144 325.067 72.8718 323.089 74.4758C321.11 76.0262 318.731 77.3361 315.951 78.4054C313.171 79.4747 310.07 80.0094 306.648 80.0094C302.906 80.0094 299.537 79.4212 296.543 78.245C293.603 77.0153 291.277 75.2777 289.566 73.0322C287.855 70.7333 287 68.0333 287 64.9324C287 61.8314 287.855 59.1849 289.566 56.9929C291.331 54.7474 293.683 53.0098 296.624 51.7801C299.618 50.5504 302.959 49.8821 306.648 49.7752ZM312.342 55.6295C305.659 55.5761 301.061 56.4048 298.548 58.1156C296.089 59.8265 294.859 62.0453 294.859 64.772C294.859 67.5521 296.089 69.8244 298.548 71.5887C301.008 73.2996 304.429 74.1015 308.814 73.9946C313.893 73.8877 318.09 72.3639 321.404 69.4234C324.719 66.4828 326.377 62.6601 326.377 57.9552C323.703 56.4048 319.025 55.6295 312.342 55.6295Z" fill="white"/>
<path d="M376.446 33.816V39.8308H346.533L349.981 36.4625V78.9668H342.603V33.816H376.446Z" fill="white"/>
<path d="M402.078 80.0094C396.892 80.0094 392.294 79.0203 388.284 77.0421C384.328 75.0104 381.2 72.2303 378.901 68.7016C376.656 65.1195 375.533 61.0027 375.533 56.3513C375.533 51.6464 376.602 47.5296 378.741 44.001C380.879 40.4723 383.847 37.7189 387.643 35.7407C391.439 33.7625 395.796 32.7734 400.715 32.7734C405.58 32.7734 409.83 33.8427 413.466 35.9813C417.102 38.1199 419.908 41.1406 421.887 45.0435C423.918 48.893 424.934 53.384 424.934 58.5166H381.147V52.6622H421.806L417.476 55.3087C417.315 51.9405 416.513 49.0267 415.07 46.5673C413.626 44.1079 411.675 42.2099 409.216 40.8733C406.756 39.5367 403.896 38.8684 400.634 38.8684C397.106 38.8684 394.032 39.5902 391.412 41.0337C388.792 42.4238 386.734 44.402 385.237 46.9683C383.793 49.5346 383.071 52.5553 383.071 56.0305C383.071 59.6661 383.9 62.8205 385.557 65.4937C387.215 68.167 389.541 70.2253 392.535 71.6689C395.529 73.1124 399.057 73.8342 403.121 73.8342C406.81 73.8342 410.418 73.2194 413.947 71.9897C417.529 70.76 420.737 69.0759 423.571 66.9373V72.7114C420.791 74.957 417.476 76.748 413.626 78.0846C409.777 79.3678 405.927 80.0094 402.078 80.0094Z" fill="white"/>
<path d="M431.694 33.816H438.992V78.9668H431.694V33.816ZM470.509 33.816H477.887V78.9668H470.509V33.816ZM435.784 53.1434H473.958V59.1582H435.784V53.1434Z" fill="white"/>
<path d="M501.995 36.3021H509.373V78.9668H501.995V36.3021ZM482.427 33.816H528.941V39.8308H482.427V33.816Z" fill="white"/>
<path d="M579.002 61.8047C578.413 65.3868 576.943 68.5412 574.591 71.2679C572.292 73.9946 569.351 76.1332 565.769 77.6836C562.187 79.2341 558.231 80.0094 553.9 80.0094C548.874 80.0094 544.437 79.0203 540.587 77.0421C536.738 75.0104 533.717 72.2303 531.525 68.7016C529.386 65.1195 528.317 61.0027 528.317 56.3513C528.317 51.6999 529.386 47.6098 531.525 44.0812C533.717 40.4991 536.738 37.7189 540.587 35.7407C544.437 33.7625 548.874 32.7734 553.9 32.7734C558.231 32.7734 562.187 33.5487 565.769 35.0991C569.351 36.5961 572.292 38.708 574.591 41.4347C576.943 44.1614 578.413 47.3425 579.002 50.9781H571.383C570.581 47.2356 568.576 44.295 565.368 42.1565C562.214 39.9644 558.391 38.8684 553.9 38.8684C550.264 38.8684 547.083 39.5902 544.357 41.0337C541.683 42.4773 539.598 44.5089 538.101 47.1287C536.604 49.695 535.856 52.7692 535.856 56.3513C535.856 59.9334 536.604 63.0344 538.101 65.6541C539.598 68.2739 541.683 70.3055 544.357 71.7491C547.083 73.1392 550.264 73.8342 553.9 73.8342C558.444 73.8342 562.294 72.7382 565.448 70.5461C568.656 68.3541 570.634 65.4403 571.383 61.8047H579.002Z" fill="white"/>
<path d="M597.743 36.3021H605.121V78.9668H597.743V36.3021ZM578.174 33.816H624.689V39.8308H578.174V33.816Z" fill="white"/>
<path d="M628.335 78.9668V33.816H658.97C663.354 33.816 666.749 34.8318 669.155 36.8635C671.615 38.8417 672.844 41.6486 672.844 45.2841C672.844 48.5989 671.615 51.2454 669.155 53.2236C666.749 55.1483 663.408 56.2711 659.131 56.5919L659.852 55.0681C664.985 55.1216 668.915 56.1642 671.641 58.1958C674.368 60.174 675.731 63.0076 675.731 66.6967C675.731 70.5461 674.341 73.5669 671.561 75.7589C668.834 77.8975 665.012 78.9668 660.093 78.9668H628.335ZM635.553 76.8015L632.746 73.353H658.89C662.044 73.353 664.37 72.7382 665.867 71.5085C667.418 70.2788 668.193 68.5145 668.193 66.2155C668.193 63.8631 667.257 62.0185 665.386 60.6819C663.568 59.3453 660.708 58.677 656.805 58.677H632.505V53.384H656.324C659.264 53.384 661.483 52.7157 662.98 51.3791C664.531 50.0425 665.306 48.2782 665.306 46.0861C665.306 44.001 664.611 42.3703 663.221 41.1941C661.884 39.9644 659.799 39.3496 656.965 39.3496H632.826L635.553 35.9813V76.8015Z" fill="white"/>
<path d="M706.634 80.0094C701.341 80.0094 696.663 79.0203 692.6 77.0421C688.59 75.0639 685.462 72.2837 683.217 68.7016C680.971 65.1195 679.848 61.0027 679.848 56.3513C679.848 51.6464 680.971 47.5296 683.217 44.001C685.462 40.4723 688.59 37.7189 692.6 35.7407C696.663 33.7625 701.341 32.7734 706.634 32.7734C711.981 32.7734 716.659 33.7625 720.668 35.7407C724.678 37.7189 727.806 40.4723 730.052 44.001C732.351 47.5296 733.5 51.6464 733.5 56.3513C733.5 61.0027 732.351 65.1195 730.052 68.7016C727.806 72.2837 724.678 75.0639 720.668 77.0421C716.659 79.0203 711.981 80.0094 706.634 80.0094ZM706.634 73.8342C710.59 73.8342 714.012 73.1392 716.899 71.7491C719.786 70.3055 722.005 68.2739 723.556 65.6541C725.16 63.0344 725.962 59.9334 725.962 56.3513C725.962 52.8226 725.16 49.7484 723.556 47.1287C722.005 44.5089 719.786 42.4773 716.899 41.0337C714.012 39.5902 710.59 38.8684 706.634 38.8684C702.731 38.8684 699.309 39.5902 696.369 41.0337C693.482 42.4773 691.263 44.5089 689.713 47.1287C688.162 49.7484 687.387 52.8226 687.387 56.3513C687.387 59.9334 688.162 63.0344 689.713 65.6541C691.263 68.2739 693.482 70.3055 696.369 71.7491C699.309 73.1392 702.731 73.8342 706.634 73.8342Z" fill="white"/>
<path d="M314.137 103.5H335.919V165.196H314.137V103.5ZM287 95.8331H363.056V112.505H287V95.8331Z" fill="white"/>
<path d="M389.258 187.222C384.471 187.222 380.212 186.613 376.48 185.396C372.749 184.261 369.139 182.476 365.65 180.042V164.587C369.22 166.859 372.586 168.482 375.75 169.455C378.914 170.51 382.403 171.037 386.216 171.037C389.623 171.037 392.584 170.307 395.099 168.847C397.695 167.386 399.845 164.709 401.548 160.815L429.659 95.8331H452.901L418.707 167.751C416.435 172.538 413.717 176.351 410.553 179.19C407.471 182.03 404.104 184.058 400.453 185.275C396.884 186.573 393.152 187.222 389.258 187.222ZM392.422 160.085L362.243 95.8331H386.337L413.596 160.085H392.422Z" fill="white"/>
<path d="M533.536 136.599C532.806 142.602 530.535 147.916 526.722 152.54C522.909 157.083 518.001 160.653 511.997 163.249C505.994 165.845 499.261 167.143 491.797 167.143C483.441 167.143 476.059 165.602 469.65 162.519C463.322 159.436 458.373 155.136 454.804 149.62C451.234 144.103 449.449 137.735 449.449 130.515C449.449 123.294 451.234 116.966 454.804 111.531C458.373 106.014 463.322 101.715 469.65 98.632C476.059 95.5492 483.441 94.0078 491.797 94.0078C499.261 94.0078 505.994 95.3058 511.997 97.9019C518.001 100.417 522.909 103.986 526.722 108.611C530.535 113.154 532.806 118.467 533.536 124.552H511.754C510.78 120.009 508.468 116.52 504.818 114.087C501.248 111.653 496.908 110.436 491.797 110.436C487.741 110.436 484.171 111.247 481.088 112.87C478.006 114.411 475.653 116.683 474.03 119.684C472.408 122.686 471.597 126.296 471.597 130.515C471.597 134.733 472.408 138.343 474.03 141.345C475.653 144.347 478.006 146.659 481.088 148.281C484.171 149.823 487.741 150.593 491.797 150.593C496.989 150.593 501.37 149.336 504.939 146.821C508.509 144.225 510.78 140.818 511.754 136.599H533.536Z" fill="white"/>
<path d="M595.601 126.499C595.601 121.469 593.694 117.575 589.881 114.817C586.149 112.058 580.268 110.679 572.236 110.679C567.531 110.679 562.704 111.247 557.755 112.383C552.807 113.519 548.182 115.222 543.883 117.494V101.431C549.156 98.8348 554.51 96.9689 559.946 95.8331C565.462 94.6163 571.303 94.0078 577.469 94.0078C585.582 94.0078 592.518 95.2247 598.278 97.6585C604.119 100.011 608.702 103.54 612.029 108.245C615.355 112.951 617.018 118.67 617.018 125.404V165.196H595.601V126.499ZM567.977 121.023C578.442 120.698 586.474 121.469 592.072 123.335C597.75 125.12 600.874 126.539 601.442 127.594C602.01 128.568 602.293 134.003 602.293 143.9C602.293 145.928 601.482 148.281 599.86 150.958C598.237 153.554 595.925 156.11 592.923 158.625C589.922 161.058 586.312 163.087 582.093 164.709C577.875 166.332 573.169 167.143 567.977 167.143C562.298 167.143 557.187 166.21 552.644 164.344C548.182 162.478 544.653 159.842 542.057 156.434C539.461 152.946 538.163 148.808 538.163 144.022C538.163 139.317 539.461 135.26 542.057 131.853C544.735 128.365 548.304 125.728 552.766 123.943C557.309 122.159 562.379 121.185 567.977 121.023ZM578.929 133.922C571.06 133.922 565.625 134.774 562.623 136.477C559.702 138.181 558.242 140.371 558.242 143.049C558.242 145.807 559.702 148.078 562.623 149.863C565.543 151.567 569.559 152.419 574.67 152.419C580.836 152.419 585.865 150.796 589.76 147.551C593.654 144.225 595.601 140.452 595.601 136.234C592.437 134.693 586.88 133.922 578.929 133.922Z" fill="white"/>
<path d="M627.022 165.196V95.8331H659.756L683.607 153.635H677.036L700.766 95.8331H733.5V165.196H712.935V103.865H717.072L690.3 165.196H670.1L643.328 104.108L647.466 103.986V165.196H627.022Z" fill="white"/>
</svg>
