<svg width="26" height="26" viewBox="0 0 26 26" fill="none" xmlns="http://www.w3.org/2000/svg">
<path fill-rule="evenodd" clip-rule="evenodd" d="M12.882 25.0413C10.4068 25.0413 9.2565 24.68 7.25705 23.2346C5.99233 24.8607 1.98741 26.1314 1.81276 23.9573C1.81276 22.3252 1.45141 20.9461 1.04188 19.4405C0.554065 17.5855 0 15.5198 0 12.5267C0 5.37805 5.86586 0 12.8158 0C19.7717 0 25.222 5.64303 25.222 12.5929C25.2454 19.4354 19.7244 25.0048 12.882 25.0413ZM12.9844 6.17903C9.59978 6.00438 6.96195 8.34711 6.37777 12.0208C5.89597 15.0621 6.75116 18.7659 7.47988 18.9587C7.82918 19.043 8.70846 18.3323 9.2565 17.7843C10.1627 18.4103 11.218 18.7863 12.3159 18.8744C15.8229 19.043 18.8195 16.3731 19.055 12.87C19.1921 9.35939 16.4919 6.38595 12.9844 6.18505L12.9844 6.17903Z" fill="white"/>
</svg>
