<svg width="142" height="44" viewBox="0 0 142 44" fill="none" xmlns="http://www.w3.org/2000/svg">
<path d="M24.2716 0.0306491C25.3877 0.177398 27.531 0.0822015 28.7412 0.106899C32.3494 0.180274 35.9956 -0.0149086 39.5933 0.000917281C39.5879 0.341653 39.5846 0.682624 39.5834 1.02336C39.5689 3.71904 39.9858 6.01139 41.9692 8.02248C44.7881 10.8803 48.732 10.422 52.4074 10.392L52.3843 25.8537C50.4087 25.8602 47.7758 25.9362 45.8459 25.8009C39.7079 25.3197 34.0059 22.4068 29.9811 17.6957C25.6717 12.6794 23.8263 6.62429 24.2716 0.0306491Z" fill="white"/>
<path d="M36.7996 29.8248C36.8577 29.8176 36.9156 29.8104 36.9737 29.803C40.778 29.4155 44.5711 30.6389 47.4511 33.182C50.8448 36.1415 52.1 39.5815 52.3972 43.9489C48.3052 44.0024 44.0547 43.9492 39.9526 43.9475C34.8384 43.9405 29.2494 43.8559 24.1715 44C24.5609 36.3913 29.2356 30.8643 36.7996 29.8248Z" fill="white"/>
<path fill-rule="evenodd" clip-rule="evenodd" d="M11.4521 2.45368C8.29299 0.846873 4.79244 0.0483856 1.25727 0.128234C1.23351 2.11347 1.24304 4.15524 1.2526 6.20544C1.26727 9.35281 1.28204 12.5201 1.17665 15.5333C3.72803 15.7024 5.69064 16.4047 7.44127 18.4023C8.85425 20.0276 9.56678 22.156 9.42095 24.3148C9.2885 26.4486 7.67305 29.4121 6.42346 31.7045C6.16087 32.1862 5.91443 32.6383 5.7013 33.0468L0 44H16.342C17.1809 42.4071 18.0269 40.8427 18.8527 39.3704C23.2491 31.5333 26.0362 24.8782 22.9935 15.7196C21.0323 9.9283 16.8825 5.15847 11.4521 2.45368Z" fill="white"/>
<path d="M62.4104 10.4391V8.82606L64.7907 7.98893L66.344 4.62H68.4217V7.70308H73.4245V10.4391H68.4217V14.4205C68.4217 15.2917 68.5966 15.9042 68.9462 16.2581C69.3093 16.612 69.9481 16.789 70.8626 16.789C71.4274 16.789 71.9317 16.7413 72.3755 16.6461C72.8193 16.5372 73.2362 16.3874 73.6262 16.1969V18.9941C73.2227 19.1574 72.6983 19.3072 72.0527 19.4433C71.4072 19.593 70.7348 19.6679 70.0355 19.6679C68.8252 19.6679 67.83 19.4705 67.05 19.0758C66.2835 18.681 65.7119 18.1297 65.3354 17.4219C64.9723 16.7141 64.7907 15.8838 64.7907 14.931V10.4391H62.4104Z" fill="white"/>
<path d="M80.2611 19.6475C79.1987 19.6475 78.291 19.4297 77.5379 18.9941C76.7848 18.5449 76.2065 17.912 75.8031 17.0952C75.4131 16.2785 75.2181 15.3121 75.2181 14.1959V7.70308H78.8491V13.6446C78.8491 14.6247 79.0777 15.3733 79.5349 15.8906C79.9922 16.3942 80.6444 16.6461 81.4916 16.6461C82.1237 16.6461 82.6616 16.5167 83.1054 16.2581C83.5492 15.9995 83.8854 15.6184 84.114 15.1147C84.3561 14.6111 84.4771 14.019 84.4771 13.3384L85.6269 13.9509C85.4925 15.1624 85.1764 16.1969 84.6788 17.0544C84.1813 17.8983 83.5492 18.5449 82.7827 18.9941C82.0296 19.4297 81.189 19.6475 80.2611 19.6475ZM84.4771 19.3412V7.70308H88.1081V19.3412H84.4771Z" fill="white"/>
<path d="M103.575 15.6252C103.575 16.4827 103.326 17.2177 102.828 17.8303C102.331 18.4292 101.598 18.8852 100.629 19.1983C99.6746 19.5113 98.5113 19.6679 97.1396 19.6679C95.7276 19.6679 94.497 19.4909 93.4481 19.137C92.3991 18.7831 91.5788 18.2863 90.9871 17.6465C90.3954 17.0068 90.0793 16.2649 90.039 15.421H93.7305C93.8112 15.7749 94.0062 16.088 94.3155 16.3602C94.6248 16.6188 95.0283 16.8162 95.5258 16.9523C96.0234 17.0884 96.6017 17.1565 97.2606 17.1565C98.1751 17.1565 98.861 17.0612 99.3182 16.8706C99.7889 16.6665 100.024 16.367 100.024 15.9723C100.024 15.6592 99.8561 15.4278 99.5199 15.2781C99.1972 15.1283 98.5987 15.0194 97.7246 14.9514L95.6267 14.788C94.3088 14.6791 93.2665 14.4682 92.5 14.1551C91.7335 13.8284 91.1888 13.4132 90.8661 12.9096C90.5433 12.406 90.3819 11.8411 90.3819 11.2149C90.3819 10.371 90.6442 9.66999 91.1686 9.1119C91.6931 8.54021 92.4193 8.11143 93.3472 7.82559C94.2886 7.53974 95.3779 7.39681 96.6151 7.39681C97.8793 7.39681 99.0022 7.56696 99.9839 7.90726C100.966 8.24755 101.752 8.71716 102.344 9.31608C102.936 9.915 103.272 10.6092 103.353 11.3987H99.6611C99.6074 11.1265 99.4594 10.8746 99.2174 10.6432C98.9887 10.3982 98.6458 10.2008 98.1886 10.0511C97.7448 9.90139 97.1665 9.82652 96.4538 9.82652C95.6334 9.82652 95.0081 9.92181 94.5777 10.1124C94.1474 10.2893 93.9322 10.5548 93.9322 10.9087C93.9322 11.1809 94.06 11.3987 94.3155 11.562C94.5845 11.7118 95.0888 11.8139 95.8284 11.8683L98.5718 12.0929C99.8494 12.2018 100.851 12.4128 101.578 12.7258C102.304 13.0253 102.815 13.42 103.111 13.9101C103.42 14.4001 103.575 14.9718 103.575 15.6252Z" fill="white"/>
<path d="M114.438 12.8484C114.438 12.0044 114.122 11.351 113.49 10.8882C112.871 10.4254 111.896 10.194 110.565 10.194C109.785 10.194 108.984 10.2893 108.164 10.4799C107.344 10.6705 106.577 10.9563 105.864 11.3374V8.64229C106.739 8.20672 107.626 7.89364 108.527 7.70308C109.442 7.4989 110.41 7.39681 111.432 7.39681C112.777 7.39681 113.927 7.60099 114.881 8.00935C115.85 8.40409 116.61 8.9962 117.161 9.78569C117.712 10.5752 117.988 11.5348 117.988 12.6646V19.3412H114.438V12.8484ZM109.859 11.9296C111.593 11.8751 112.925 12.0044 113.853 12.3175C114.794 12.6169 115.312 12.8552 115.406 13.0321C115.5 13.1955 115.547 14.1074 115.547 15.7681C115.547 16.1084 115.413 16.5031 115.144 16.9523C114.875 17.3879 114.491 17.8167 113.994 18.2386C113.496 18.647 112.898 18.9873 112.199 19.2595C111.499 19.5318 110.719 19.6679 109.859 19.6679C108.917 19.6679 108.07 19.5113 107.317 19.1983C106.577 18.8852 105.992 18.4428 105.562 17.8711C105.132 17.2858 104.916 16.5916 104.916 15.7885C104.916 14.999 105.132 14.3184 105.562 13.7467C106.006 13.1614 106.597 12.719 107.337 12.4196C108.09 12.1201 108.931 11.9568 109.859 11.9296ZM111.674 14.0938C110.37 14.0938 109.469 14.2368 108.971 14.5226C108.487 14.8085 108.245 15.176 108.245 15.6252C108.245 16.088 108.487 16.4691 108.971 16.7686C109.455 17.0544 110.121 17.1973 110.968 17.1973C111.99 17.1973 112.824 16.9251 113.469 16.3806C114.115 15.8225 114.438 15.1896 114.438 14.4818C113.913 14.2231 112.992 14.0938 111.674 14.0938Z" fill="white"/>
<path d="M120.456 7.70308H124.087V19.3412H120.456V7.70308ZM128.142 7.39681C129.177 7.39681 130.058 7.62141 130.784 8.0706C131.524 8.50618 132.082 9.13232 132.459 9.94903C132.849 10.7657 133.044 11.739 133.044 12.8688V19.3412H129.413V13.42C129.413 12.4264 129.197 11.6777 128.767 11.1741C128.337 10.6568 127.711 10.3982 126.891 10.3982C126.313 10.3982 125.808 10.5343 125.378 10.8066C124.961 11.0788 124.638 11.4667 124.41 11.9704C124.195 12.4604 124.087 13.0457 124.087 13.7263L122.917 13.1138C123.065 11.8751 123.381 10.8338 123.865 9.98987C124.349 9.14593 124.961 8.50618 125.701 8.0706C126.44 7.62141 127.254 7.39681 128.142 7.39681ZM137.078 7.39681C138.113 7.39681 139.001 7.62141 139.741 8.0706C140.48 8.50618 141.038 9.13232 141.415 9.94903C141.805 10.7657 142 11.739 142 12.8688V19.3412H138.369V13.42C138.369 12.4264 138.154 11.6777 137.723 11.1741C137.293 10.6568 136.668 10.3982 135.847 10.3982C135.269 10.3982 134.765 10.5343 134.335 10.8066C133.918 11.0788 133.595 11.4667 133.366 11.9704C133.151 12.4604 133.044 13.0457 133.044 13.7263L131.874 13.1138C132.021 11.8751 132.338 10.8338 132.822 9.98987C133.306 9.14593 133.911 8.50618 134.637 8.0706C135.377 7.62141 136.19 7.39681 137.078 7.39681Z" fill="white"/>
<path d="M73.1219 33.0051V31.0041L73.2429 30.5549V27.9006L73.1219 27.4923V24.2663H76.7529V32.8009C76.7529 34.2574 76.4301 35.4892 75.7846 36.4965C75.1391 37.5038 74.2381 38.2728 73.0815 38.8037C71.9384 39.3346 70.6071 39.6 69.0874 39.6C68.025 39.6 67.05 39.4571 66.1625 39.1712C65.2749 38.899 64.4007 38.4838 63.5401 37.9257V35.0877C64.3604 35.7274 65.2211 36.1834 66.1221 36.4557C67.0231 36.7415 67.9376 36.8844 68.8655 36.8844C70.2372 36.8844 71.2862 36.5646 72.0124 35.9248C72.752 35.285 73.1219 34.3118 73.1219 33.0051ZM67.9981 34.7814C66.9357 34.7814 65.9809 34.5568 65.1337 34.1076C64.2864 33.6584 63.6207 33.0323 63.1366 32.2292C62.6525 31.4125 62.4104 30.4597 62.4104 29.3707C62.4104 28.2818 62.6525 27.3357 63.1366 26.5326C63.6207 25.7159 64.2864 25.083 65.1337 24.6338C65.9809 24.1846 66.9357 23.96 67.9981 23.96C68.805 23.96 69.5447 24.0893 70.2171 24.3479C70.8895 24.593 71.4879 24.9196 72.0124 25.328C72.5369 25.7364 72.9807 26.1855 73.3438 26.6756C73.7069 27.152 73.9826 27.6352 74.1708 28.1252C74.3591 28.6016 74.4532 29.0304 74.4532 29.4115C74.4532 29.9152 74.3053 30.4801 74.0095 31.1062C73.7136 31.7187 73.2833 32.3041 72.7184 32.8621C72.1671 33.4202 71.4947 33.883 70.7012 34.2506C69.9078 34.6045 69.0067 34.7814 67.9981 34.7814ZM69.2085 32.2292C70.0423 32.2292 70.7953 31.9978 71.4678 31.535C72.1536 31.0722 72.7453 30.3508 73.2429 29.3707C72.7453 28.3634 72.1536 27.6352 71.4678 27.186C70.7953 26.7232 70.0423 26.4918 69.2085 26.4918C68.5495 26.4918 67.9847 26.6143 67.514 26.8593C67.0433 27.0907 66.6802 27.4242 66.4247 27.8598C66.1692 28.2818 66.0414 28.7854 66.0414 29.3707C66.0414 29.9424 66.1625 30.446 66.4045 30.8816C66.66 31.3036 67.0231 31.6371 67.4938 31.8821C67.978 32.1135 68.5495 32.2292 69.2085 32.2292Z" fill="white"/>
<path d="M79.33 24.2663H82.961V35.9044H79.33V24.2663ZM88.4681 24.1233V27.2881C88.1184 27.2064 87.762 27.1452 87.3989 27.1043C87.0493 27.0635 86.7265 27.0431 86.4307 27.0431C85.7717 27.0431 85.18 27.1792 84.6555 27.4514C84.131 27.7237 83.7141 28.1524 83.4048 28.7378C83.109 29.3095 82.961 30.0513 82.961 30.9633L82.2348 30.0445C82.3155 29.2278 82.4635 28.4519 82.6786 27.7169C82.8938 26.9682 83.1897 26.3149 83.5662 25.7568C83.9428 25.1987 84.4134 24.7631 84.9783 24.45C85.5431 24.1233 86.2155 23.96 86.9955 23.96C87.2376 23.96 87.4864 23.9736 87.7419 24.0008C87.9974 24.0281 88.2395 24.0689 88.4681 24.1233Z" fill="white"/>
<path d="M96.3051 36.2311C94.8662 36.2311 93.6021 35.9724 92.5128 35.4552C91.4235 34.9379 90.5762 34.2165 89.9711 33.2909C89.3659 32.3653 89.0633 31.2968 89.0633 30.0853C89.0633 28.8603 89.3659 27.7917 89.9711 26.8797C90.5762 25.9541 91.4235 25.2395 92.5128 24.7359C93.6021 24.2186 94.8662 23.96 96.3051 23.96C97.7575 23.96 99.0217 24.2186 100.098 24.7359C101.187 25.2395 102.034 25.9541 102.639 26.8797C103.244 27.7917 103.547 28.8603 103.547 30.0853C103.547 31.3104 103.244 32.3857 102.639 33.3113C102.034 34.2233 101.187 34.9379 100.098 35.4552C99.0082 35.9724 97.7441 36.2311 96.3051 36.2311ZM96.3051 33.4543C97.0582 33.4543 97.697 33.3181 98.2215 33.0459C98.7594 32.7737 99.1696 32.3857 99.452 31.8821C99.7479 31.3785 99.8958 30.7795 99.8958 30.0853C99.8958 29.3911 99.7479 28.7922 99.452 28.2886C99.1696 27.7849 98.7594 27.397 98.2215 27.1248C97.697 26.8525 97.0582 26.7164 96.3051 26.7164C95.5789 26.7164 94.9469 26.8525 94.409 27.1248C93.871 27.397 93.4541 27.7849 93.1583 28.2886C92.8759 28.7922 92.7347 29.3911 92.7347 30.0853C92.7347 30.7931 92.8759 31.3989 93.1583 31.9025C93.4541 32.3925 93.871 32.7737 94.409 33.0459C94.9469 33.3181 95.5789 33.4543 96.3051 33.4543Z" fill="white"/>
<path d="M110.309 36.2107C109.247 36.2107 108.339 35.9929 107.586 35.5573C106.833 35.1081 106.255 34.4751 105.851 33.6584C105.461 32.8417 105.266 31.8753 105.266 30.7591V24.2663H108.897V30.2078C108.897 31.1879 109.126 31.9365 109.583 32.4538C110.04 32.9574 110.693 33.2092 111.54 33.2092C112.172 33.2092 112.71 33.0799 113.154 32.8213C113.597 32.5627 113.934 32.1816 114.162 31.6779C114.404 31.1743 114.525 30.5822 114.525 29.9016L115.675 30.5141C115.541 31.7256 115.225 32.7601 114.727 33.6176C114.229 34.4615 113.597 35.1081 112.831 35.5573C112.078 35.9929 111.237 36.2107 110.309 36.2107ZM114.525 35.9044V24.2663H118.156V35.9044H114.525Z" fill="white"/>
<path d="M120.793 24.2663H124.404V27.8394L124.263 28.3294V31.2696L124.404 32.1475V39.2733H120.793V24.2663ZM123.194 30.0853C123.409 28.8467 123.799 27.7713 124.364 26.8593C124.928 25.9337 125.641 25.2191 126.502 24.7155C127.376 24.2118 128.344 23.96 129.407 23.96C130.536 23.96 131.525 24.2186 132.372 24.7359C133.233 25.2395 133.905 25.9541 134.389 26.8797C134.873 27.7917 135.115 28.8603 135.115 30.0853C135.115 31.3104 134.873 32.3857 134.389 33.3113C133.905 34.2233 133.233 34.9379 132.372 35.4552C131.525 35.9724 130.536 36.2311 129.407 36.2311C128.331 36.2311 127.363 35.9793 126.502 35.4756C125.655 34.9584 124.942 34.2437 124.364 33.3317C123.799 32.4061 123.409 31.324 123.194 30.0853ZM131.444 30.0853C131.444 29.4456 131.31 28.8807 131.041 28.3907C130.785 27.887 130.429 27.4991 129.972 27.2268C129.514 26.941 128.983 26.7981 128.378 26.7981C127.773 26.7981 127.194 26.941 126.643 27.2268C126.105 27.4991 125.634 27.887 125.231 28.3907C124.828 28.8807 124.512 29.4456 124.283 30.0853C124.512 30.7387 124.828 31.3104 125.231 31.8004C125.634 32.2904 126.105 32.6784 126.643 32.9642C127.194 33.2501 127.773 33.393 128.378 33.393C128.983 33.393 129.514 33.2501 129.972 32.9642C130.429 32.6784 130.785 32.2904 131.041 31.8004C131.31 31.3104 131.444 30.7387 131.444 30.0853Z" fill="white"/>
</svg>
